Technology.ufo
<glyph name="exclam" format="2">
  <advance width="153"/>
  <unicode hex="0021"/>
  <outline>
    <contour>
      <point x="96" y="102" type="line"/>
      <point x="40" y="158" type="line"/>
      <point x="40" y="280" type="line"/>
      <point x="96" y="336" type="line"/>
      <point x="114" y="317" type="line"/>
      <point x="114" y="121" type="line"/>
    </contour>
    <contour>
      <point x="40" y="0" type="line"/>
      <point x="40" y="74" type="line"/>
      <point x="114" y="74" type="line"/>
      <point x="114" y="0" type="line"/>
    </contour>
    <contour>
      <point x="40" y="410" type="line"/>
      <point x="40" y="634" type="line"/>
      <point x="96" y="690" type="line"/>
      <point x="114" y="671" type="line"/>
      <point x="114" y="373" type="line"/>
      <point x="96" y="355" type="line"/>
    </contour>
  </outline>
</glyph>
<glyph name="numbersign" format="2">
  <advance width="592"/>
  <unicode hex="0023"/>
  <outline>
    <contour>
      <point x="55" y="187" type="line"/>
      <point x="18" y="224" type="line"/>
      <point x="55" y="261" type="line"/>
      <point x="147" y="261" type="line"/>
      <point x="185" y="224" type="line"/>
      <point x="147" y="187" type="line"/>
    </contour>
    <contour>
      <point x="55" y="391" type="line"/>
      <point x="18" y="428" type="line"/>
      <point x="55" y="465" type="line"/>
      <point x="147" y="465" type="line"/>
      <point x="185" y="428" type="line"/>
      <point x="147" y="391" type="line"/>
    </contour>
    <contour>
      <point x="195" y="238" type="line"/>
      <point x="165" y="271" type="line"/>
      <point x="167" y="377" type="line"/>
      <point x="198" y="412" type="line"/>
      <point x="242" y="370" type="line"/>
      <point x="242" y="285" type="line"/>
    </contour>
    <contour>
      <point x="204" y="53" type="line"/>
      <point x="167" y="91" type="line"/>
      <point x="167" y="181" type="line"/>
      <point x="195" y="210" type="line"/>
      <point x="242" y="163" type="line"/>
      <point x="242" y="91" type="line"/>
    </contour>
    <contour>
      <point x="246" y="187" type="line"/>
      <point x="209" y="224" type="line"/>
      <point x="246" y="261" type="line"/>
      <point x="338" y="261" type="line"/>
      <point x="376" y="224" type="line"/>
      <point x="338" y="187" type="line"/>
    </contour>
    <contour>
      <point x="246" y="391" type="line"/>
      <point x="209" y="428" type="line"/>
      <point x="246" y="465" type="line"/>
      <point x="338" y="465" type="line"/>
      <point x="376" y="428" type="line"/>
      <point x="338" y="391" type="line"/>
    </contour>
    <contour>
      <point x="387" y="238" type="line"/>
      <point x="357" y="271" type="line"/>
      <point x="359" y="384" type="line"/>
      <point x="393" y="412" type="line"/>
      <point x="434" y="374" type="line"/>
      <point x="434" y="285" type="line"/>
    </contour>
    <contour>
      <point x="396" y="53" type="line"/>
      <point x="359" y="91" type="line"/>
      <point x="359" y="181" type="line"/>
      <point x="387" y="210" type="line"/>
      <point x="434" y="163" type="line"/>
      <point x="434" y="91" type="line"/>
    </contour>
    <contour>
      <point x="402" y="224" type="line"/>
      <point x="440" y="261" type="line"/>
      <point x="532" y="261" type="line"/>
      <point x="569" y="224" type="line"/>
      <point x="532" y="187" type="line"/>
      <point x="440" y="187" type="line"/>
    </contour>
    <contour>
      <point x="195" y="442" type="line"/>
      <point x="167" y="471" type="line"/>
      <point x="167" y="561" type="line"/>
      <point x="204" y="599" type="line"/>
      <point x="242" y="561" type="line"/>
      <point x="242" y="489" type="line"/>
    </contour>
    <contour>
      <point x="387" y="442" type="line"/>
      <point x="359" y="471" type="line"/>
      <point x="359" y="561" type="line"/>
      <point x="396" y="599" type="line"/>
      <point x="434" y="561" type="line"/>
      <point x="434" y="489" type="line"/>
    </contour>
    <contour>
      <point x="402" y="428" type="line"/>
      <point x="440" y="465" type="line"/>
      <point x="532" y="465" type="line"/>
      <point x="569" y="428" type="line"/>
      <point x="532" y="391" type="line"/>
      <point x="440" y="391" type="line"/>
    </contour>
  </outline>
</glyph>
<glyph name="dollar" format="2">
  <advance width="447"/>
  <unicode hex="0024"/>
  <outline>
    <contour>
      <point x="38" y="0" type="line"/>
      <point x="112" y="75" type="line"/>
      <point x="318" y="75" type="line"/>
      <point x="374" y="19" type="line"/>
      <point x="355" y="0" type="line"/>
    </contour>
    <contour>
      <point x="183" y="99" type="line"/>
      <point x="183" y="284" type="line"/>
      <point x="257" y="284" type="line"/>
      <point x="257" y="99" type="line"/>
    </contour>
    <contour>
      <point x="392" y="38" type="line"/>
      <point x="336" y="94" type="line"/>
      <point x="336" y="280" type="line"/>
      <point x="392" y="336" type="line"/>
      <point x="411" y="318" type="line"/>
      <point x="411" y="57" type="line"/>
    </contour>
    <contour>
      <point x="38" y="373" type="line"/>
      <point x="38" y="634" type="line"/>
      <point x="57" y="653" type="line"/>
      <point x="113" y="597" type="line"/>
      <point x="113" y="410" type="line"/>
      <point x="57" y="355" type="line"/>
    </contour>
    <contour>
      <point x="183" y="407" type="line"/>
      <point x="183" y="591" type="line"/>
      <point x="257" y="591" type="line"/>
      <point x="257" y="407" type="line"/>
    </contour>
    <contour>
      <point x="84" y="345" type="line"/>
      <point x="122" y="382" type="line"/>
      <point x="327" y="382" type="line"/>
      <point x="365" y="345" type="line"/>
      <point x="327" y="308" type="line"/>
      <point x="122" y="308" type="line"/>
    </contour>
    <contour>
      <point x="183" y="714" type="line"/>
      <point x="183" y="737" type="line"/>
      <point x="239" y="793" type="line"/>
      <point x="257" y="775" type="line"/>
      <point x="257" y="714" type="line"/>
    </contour>
    <contour>
      <point x="75" y="671" type="line"/>
      <point x="94" y="690" type="line"/>
      <point x="411" y="690" type="line"/>
      <point x="336" y="615" type="line"/>
      <point x="131" y="615" type="line"/>
    </contour>
    <contour>
      <point x="239" y="-100" type="line"/>
      <point x="183" y="-44" type="line"/>
      <point x="183" y="-24" type="line"/>
      <point x="257" y="-24" type="line"/>
      <point x="257" y="-81" type="line"/>
    </contour>
  </outline>
</glyph>
<glyph name="percent" format="2">
  <advance width="892"/>
  <unicode hex="0025"/>
  <outline>
    <contour>
      <point x="591" y="0" type="line"/>
      <point x="572" y="19" type="line"/>
      <point x="628" y="75" type="line"/>
      <point x="776" y="75" type="line"/>
      <point x="831" y="19" type="line"/>
      <point x="813" y="0" type="line"/>
    </contour>
    <contour>
      <point x="82" y="313" type="line"/>
      <point x="63" y="332" type="line"/>
      <point x="119" y="388" type="line"/>
      <point x="267" y="388" type="line"/>
      <point x="322" y="332" type="line"/>
      <point x="304" y="313" type="line"/>
    </contour>
    <contour>
      <point x="214" y="0" type="line"/>
      <point x="198" y="77" type="line"/>
      <point x="363" y="319" type="line"/>
      <point x="441" y="335" type="line"/>
      <point x="446" y="309" type="line"/>
      <point x="240" y="4" type="line"/>
    </contour>
    <contour>
      <point x="535" y="56" type="line"/>
      <point x="535" y="322" type="line"/>
      <point x="554" y="340" type="line"/>
      <point x="610" y="285" type="line"/>
      <point x="610" y="93" type="line"/>
      <point x="554" y="38" type="line"/>
    </contour>
    <contour>
      <point x="794" y="93" type="line"/>
      <point x="794" y="285" type="line"/>
      <point x="850" y="340" type="line"/>
      <point x="869" y="322" type="line"/>
      <point x="869" y="56" type="line"/>
      <point x="850" y="38" type="line"/>
    </contour>
    <contour>
      <point x="26" y="369" type="line"/>
      <point x="26" y="635" type="line"/>
      <point x="45" y="653" type="line"/>
      <point x="101" y="598" type="line"/>
      <point x="101" y="406" type="line"/>
      <point x="45" y="351" type="line"/>
    </contour>
    <contour>
      <point x="119" y="616" type="line"/>
      <point x="63" y="672" type="line"/>
      <point x="82" y="691" type="line"/>
      <point x="304" y="691" type="line"/>
      <point x="322" y="672" type="line"/>
      <point x="267" y="616" type="line"/>
    </contour>
    <contour>
      <point x="285" y="406" type="line"/>
      <point x="285" y="598" type="line"/>
      <point x="341" y="653" type="line"/>
      <point x="360" y="635" type="line"/>
      <point x="360" y="369" type="line"/>
      <point x="341" y="351" type="line"/>
    </contour>
    <contour>
      <point x="451" y="351" type="line"/>
      <point x="435" y="428" type="line"/>
      <point x="594" y="674" type="line"/>
      <point x="672" y="690" type="line"/>
      <point x="677" y="664" type="line"/>
      <point x="477" y="355" type="line"/>
    </contour>
    <contour>
      <point x="628" y="303" type="line"/>
      <point x="572" y="359" type="line"/>
      <point x="591" y="378" type="line"/>
      <point x="813" y="378" type="line"/>
      <point x="831" y="359" type="line"/>
      <point x="776" y="303" type="line"/>
    </contour>
  </outline>
</glyph>
<glyph name="ampersand" format="2">
  <advance width="562"/>
  <unicode hex="0026"/>
  <outline>
    <contour>
      <point x="37" y="89" type="line"/>
      <point x="37" y="307" type="line"/>
      <point x="65" y="336" type="line"/>
      <point x="112" y="289" type="line"/>
      <point x="112" y="89" type="line"/>
      <point x="74" y="51" type="line"/>
    </contour>
    <contour>
      <point x="88" y="37" type="line"/>
      <point x="125" y="75" type="line"/>
      <point x="368" y="75" type="line"/>
      <point x="405" y="37" type="line"/>
      <point x="368" y="0" type="line"/>
      <point x="125" y="0" type="line"/>
    </contour>
    <contour>
      <point x="65" y="364" type="line"/>
      <point x="37" y="392" type="line"/>
      <point x="37" y="611" type="line"/>
      <point x="74" y="649" type="line"/>
      <point x="112" y="611" type="line"/>
      <point x="112" y="411" type="line"/>
    </contour>
    <contour>
      <point x="116" y="313" type="line"/>
      <point x="79" y="350" type="line"/>
      <point x="116" y="387" type="line"/>
      <point x="377" y="387" type="line"/>
      <point x="415" y="350" type="line"/>
      <point x="377" y="313" type="line"/>
    </contour>
    <contour>
      <point x="419" y="51" type="line"/>
      <point x="382" y="89" type="line"/>
      <point x="382" y="289" type="line"/>
      <point x="429" y="336" type="line"/>
      <point x="456" y="307" type="line"/>
      <point x="456" y="89" type="line"/>
    </contour>
    <contour>
      <point x="429" y="364" type="line"/>
      <point x="382" y="411" type="line"/>
      <point x="382" y="487" type="line"/>
      <point x="419" y="525" type="line"/>
      <point x="456" y="487" type="line"/>
      <point x="456" y="392" type="line"/>
    </contour>
    <contour>
      <point x="483" y="313" type="line"/>
      <point x="446" y="350" type="line"/>
      <point x="483" y="387" type="line"/>
      <point x="502" y="387" type="line"/>
      <point x="540" y="350" type="line"/>
      <point x="502" y="313" type="line"/>
    </contour>
    <contour>
      <point x="125" y="625" type="line"/>
      <point x="88" y="663" type="line"/>
      <point x="125" y="700" type="line"/>
      <point x="368" y="700" type="line"/>
      <point x="405" y="663" type="line"/>
      <point x="368" y="625" type="line"/>
    </contour>
  </outline>
</glyph>
<glyph name="quotesingle" format="2">
  <advance width="128"/>
  <unicode hex="0027"/>
  <outline>
    <contour>
      <point x="63" y="460" type="line"/>
      <point x="25" y="498" type="line"/>
      <point x="25" y="679" type="line"/>
      <point x="100" y="679" type="line"/>
      <point x="100" y="498" type="line"/>
    </contour>
  </outline>
</glyph>
<glyph name="parenleft" format="2">
  <advance width="150"/>
  <unicode hex="0028"/>
  <outline>
    <contour>
      <point x="56" y="-71" type="line"/>
      <point x="38" y="-52" type="line"/>
      <point x="38" y="317" type="line"/>
      <point x="56" y="335" type="line"/>
      <point x="112" y="279" type="line"/>
      <point x="112" y="-15" type="line"/>
    </contour>
    <contour>
      <point x="56" y="354" type="line"/>
      <point x="38" y="372" type="line"/>
      <point x="38" y="740" type="line"/>
      <point x="56" y="759" type="line"/>
      <point x="112" y="703" type="line"/>
      <point x="112" y="410" type="line"/>
    </contour>
    <contour>
      <point x="131" y="722" type="line"/>
      <point x="75" y="778" type="line"/>
      <point x="94" y="796" type="line"/>
      <point x="263" y="796" type="line"/>
      <point x="188" y="722" type="line"/>
    </contour>
    <contour>
      <point x="75" y="-90" type="line"/>
      <point x="131" y="-34" type="line"/>
      <point x="188" y="-34" type="line"/>
      <point x="263" y="-108" type="line"/>
      <point x="94" y="-108" type="line"/>
    </contour>
  </outline>
</glyph>
<glyph name="parenright" format="2">
  <advance width="160"/>
  <unicode hex="0029"/>
  <outline>
    <contour>
      <point x="99" y="-69" type="line"/>
      <point x="43" y="-13" type="line"/>
      <point x="43" y="280" type="line"/>
      <point x="99" y="336" type="line"/>
      <point x="117" y="318" type="line"/>
      <point x="117" y="-50" type="line"/>
    </contour>
    <contour>
      <point x="99" y="355" type="line"/>
      <point x="43" y="411" type="line"/>
      <point x="43" y="705" type="line"/>
      <point x="99" y="761" type="line"/>
      <point x="117" y="742" type="line"/>
      <point x="117" y="373" type="line"/>
    </contour>
    <contour>
      <point x="-108" y="798" type="line"/>
      <point x="61" y="798" type="line"/>
      <point x="80" y="780" type="line"/>
      <point x="24" y="724" type="line"/>
      <point x="-33" y="724" type="line"/>
    </contour>
    <contour>
      <point x="-33" y="-32" type="line"/>
      <point x="24" y="-32" type="line"/>
      <point x="80" y="-88" type="line"/>
      <point x="61" y="-106" type="line"/>
      <point x="-108" y="-106" type="line"/>
    </contour>
  </outline>
</glyph>
<glyph name="asterisk" format="2">
  <advance width="295"/>
  <unicode hex="002A"/>
  <outline>
    <contour>
      <point x="82" y="444" type="line"/>
      <point x="67" y="493" type="line"/>
      <point x="87" y="524" type="line"/>
      <point x="44" y="524" type="line"/>
      <point x="12" y="559" type="line"/>
      <point x="44" y="594" type="line"/>
      <point x="87" y="594" type="line"/>
      <point x="87" y="597" type="line"/>
      <point x="67" y="628" type="line"/>
      <point x="82" y="676" type="line"/>
      <point x="129" y="664" type="line"/>
      <point x="147" y="632" type="line"/>
      <point x="149" y="632" type="line"/>
      <point x="167" y="664" type="line"/>
      <point x="215" y="676" type="line"/>
      <point x="228" y="628" type="line"/>
      <point x="211" y="597" type="line"/>
      <point x="244" y="597" type="line"/>
      <point x="277" y="562" type="line"/>
      <point x="244" y="526" type="line"/>
      <point x="208" y="526" type="line"/>
      <point x="211" y="524" type="line"/>
      <point x="228" y="493" type="line"/>
      <point x="215" y="444" type="line"/>
      <point x="167" y="458" type="line"/>
      <point x="149" y="489" type="line"/>
      <point x="147" y="489" type="line"/>
      <point x="129" y="458" type="line"/>
    </contour>
  </outline>
</glyph>
<glyph name="plus" format="2">
  <advance width="407"/>
  <unicode hex="002B"/>
  <outline>
    <contour>
      <point x="64" y="313" type="line"/>
      <point x="27" y="350" type="line"/>
      <point x="64" y="387" type="line"/>
      <point x="156" y="387" type="line"/>
      <point x="194" y="350" type="line"/>
      <point x="156" y="313" type="line"/>
    </contour>
    <contour>
      <point x="204" y="364" type="line"/>
      <point x="176" y="392" type="line"/>
      <point x="176" y="500" type="line"/>
      <point x="213" y="538" type="line"/>
      <point x="251" y="500" type="line"/>
      <point x="251" y="411" type="line"/>
    </contour>
    <contour>
      <point x="176" y="217" type="line"/>
      <point x="176" y="307" type="line"/>
      <point x="204" y="336" type="line"/>
      <point x="251" y="289" type="line"/>
      <point x="251" y="217" type="line"/>
      <point x="213" y="179" type="line"/>
    </contour>
    <contour>
      <point x="255" y="313" type="line"/>
      <point x="218" y="350" type="line"/>
      <point x="255" y="387" type="line"/>
      <point x="347" y="387" type="line"/>
      <point x="385" y="350" type="line"/>
      <point x="347" y="313" type="line"/>
    </contour>
  </outline>
</glyph>
<glyph name="comma" format="2">
  <advance width="158"/>
  <unicode hex="002C"/>
  <outline>
    <contour>
      <point x="78" y="-92" type="line"/>
      <point x="40" y="-54" type="line"/>
      <point x="40" y="71" type="line"/>
      <point x="115" y="71" type="line"/>
      <point x="115" y="-54" type="line"/>
    </contour>
  </outline>
</glyph>
<glyph name="hyphen" format="2">
  <advance width="267"/>
  <unicode hex="002D"/>
  <outline>
    <contour>
      <point x="61" y="302" type="line"/>
      <point x="24" y="339" type="line"/>
      <point x="61" y="376" type="line"/>
      <point x="209" y="376" type="line"/>
      <point x="246" y="339" type="line"/>
      <point x="209" y="302" type="line"/>
    </contour>
  </outline>
</glyph>
<glyph name="period" format="2">
  <advance width="158"/>
  <unicode hex="002E"/>
  <outline>
    <contour>
      <point x="37" y="0" type="line"/>
      <point x="37" y="73" type="line"/>
      <point x="111" y="73" type="line"/>
      <point x="111" y="0" type="line"/>
    </contour>
  </outline>
</glyph>
<glyph name="slash" format="2">
  <advance width="413"/>
  <unicode hex="002F"/>
  <outline>
    <contour>
      <point x="54" y="10" type="line"/>
      <point x="26" y="84" type="line"/>
      <point x="137" y="311" type="line"/>
      <point x="211" y="339" type="line"/>
      <point x="220" y="314" type="line"/>
      <point x="79" y="18" type="line"/>
    </contour>
    <contour>
      <point x="219" y="356" type="line"/>
      <point x="191" y="430" type="line"/>
      <point x="301" y="663" type="line"/>
      <point x="375" y="690" type="line"/>
      <point x="384" y="665" type="line"/>
      <point x="243" y="365" type="line"/>
    </contour>
  </outline>
</glyph>
<glyph name="two" format="2">
  <advance width="447"/>
  <unicode hex="0032"/>
  <outline>
    <contour>
      <point x="37" y="55" type="line"/>
      <point x="37" y="316" type="line"/>
      <point x="56" y="335" type="line"/>
      <point x="112" y="279" type="line"/>
      <point x="112" y="92" type="line"/>
      <point x="56" y="37" type="line"/>
    </contour>
    <contour>
      <point x="74" y="18" type="line"/>
      <point x="130" y="74" type="line"/>
      <point x="336" y="74" type="line"/>
      <point x="410" y="0" type="line"/>
      <point x="93" y="0" type="line"/>
    </contour>
    <contour>
      <point x="83" y="344" type="line"/>
      <point x="121" y="382" type="line"/>
      <point x="326" y="382" type="line"/>
      <point x="364" y="344" type="line"/>
      <point x="326" y="307" type="line"/>
      <point x="121" y="307" type="line"/>
    </contour>
    <contour>
      <point x="112" y="614" type="line"/>
      <point x="37" y="689" type="line"/>
      <point x="354" y="689" type="line"/>
      <point x="373" y="670" type="line"/>
      <point x="317" y="614" type="line"/>
    </contour>
    <contour>
      <point x="335" y="409" type="line"/>
      <point x="335" y="596" type="line"/>
      <point x="391" y="652" type="line"/>
      <point x="410" y="633" type="line"/>
      <point x="410" y="372" type="line"/>
      <point x="391" y="354" type="line"/>
    </contour>
  </outline>
</glyph>
<glyph name="three" format="2">
  <advance width="412"/>
  <unicode hex="0033"/>
  <outline>
    <contour>
      <point x="23" y="0" type="line"/>
      <point x="97" y="74" type="line"/>
      <point x="284" y="74" type="line"/>
      <point x="358" y="0" type="line"/>
    </contour>
    <contour>
      <point x="88" y="307" type="line"/>
      <point x="51" y="344" type="line"/>
      <point x="88" y="382" type="line"/>
      <point x="294" y="382" type="line"/>
      <point x="331" y="344" type="line"/>
      <point x="294" y="307" type="line"/>
    </contour>
    <contour>
      <point x="377" y="18" type="line"/>
      <point x="302" y="93" type="line"/>
      <point x="302" y="279" type="line"/>
      <point x="358" y="335" type="line"/>
      <point x="377" y="316" type="line"/>
    </contour>
    <contour>
      <point x="23" y="689" type="line"/>
      <point x="358" y="689" type="line"/>
      <point x="284" y="615" type="line"/>
      <point x="98" y="615" type="line"/>
    </contour>
    <contour>
      <point x="358" y="354" type="line"/>
      <point x="302" y="410" type="line"/>
      <point x="302" y="596" type="line"/>
      <point x="377" y="670" type="line"/>
      <point x="377" y="372" type="line"/>
    </contour>
  </outline>
</glyph>
<glyph name="four" format="2">
  <advance width="436"/>
  <unicode hex="0034"/>
  <outline>
    <contour>
      <point x="112" y="308" type="line"/>
      <point x="75" y="345" type="line"/>
      <point x="112" y="382" type="line"/>
      <point x="318" y="382" type="line"/>
      <point x="355" y="345" type="line"/>
      <point x="318" y="308" type="line"/>
    </contour>
    <contour>
      <point x="327" y="75" type="line"/>
      <point x="327" y="280" type="line"/>
      <point x="383" y="336" type="line"/>
      <point x="402" y="317" type="line"/>
      <point x="402" y="0" type="line"/>
    </contour>
    <contour>
      <point x="48" y="354" type="line"/>
      <point x="29" y="373" type="line"/>
      <point x="29" y="690" type="line"/>
      <point x="104" y="615" type="line"/>
      <point x="104" y="410" type="line"/>
    </contour>
    <contour>
      <point x="383" y="354" type="line"/>
      <point x="327" y="410" type="line"/>
      <point x="327" y="615" type="line"/>
      <point x="402" y="690" type="line"/>
      <point x="402" y="373" type="line"/>
    </contour>
  </outline>
</glyph>
<glyph name="seven" format="2">
  <advance width="412"/>
  <unicode hex="0037"/>
  <outline>
    <contour>
      <point x="299" y="74" type="line"/>
      <point x="299" y="279" type="line"/>
      <point x="355" y="335" type="line"/>
      <point x="374" y="316" type="line"/>
      <point x="374" y="0" type="line"/>
    </contour>
    <contour>
      <point x="94" y="615" type="line"/>
      <point x="20" y="689" type="line"/>
      <point x="355" y="689" type="line"/>
      <point x="281" y="615" type="line"/>
    </contour>
    <contour>
      <point x="355" y="354" type="line"/>
      <point x="299" y="410" type="line"/>
      <point x="299" y="596" type="line"/>
      <point x="374" y="670" type="line"/>
      <point x="374" y="372" type="line"/>
    </contour>
  </outline>
</glyph>
<glyph name="eight" format="2">
  <advance width="447"/>
  <unicode hex="0038"/>
  <outline>
    <contour>
      <point x="56" y="37" type="line"/>
      <point x="38" y="55" type="line"/>
      <point x="38" y="316" type="line"/>
      <point x="56" y="335" type="line"/>
      <point x="112" y="279" type="line"/>
      <point x="112" y="93" type="line"/>
    </contour>
    <contour>
      <point x="75" y="18" type="line"/>
      <point x="131" y="74" type="line"/>
      <point x="317" y="74" type="line"/>
      <point x="373" y="18" type="line"/>
      <point x="354" y="0" type="line"/>
      <point x="94" y="0" type="line"/>
    </contour>
    <contour>
      <point x="392" y="37" type="line"/>
      <point x="336" y="93" type="line"/>
      <point x="336" y="279" type="line"/>
      <point x="392" y="335" type="line"/>
      <point x="410" y="317" type="line"/>
      <point x="410" y="56" type="line"/>
    </contour>
    <contour>
      <point x="56" y="354" type="line"/>
      <point x="38" y="372" type="line"/>
      <point x="38" y="633" type="line"/>
      <point x="56" y="652" type="line"/>
      <point x="112" y="596" type="line"/>
      <point x="112" y="410" type="line"/>
    </contour>
    <contour>
      <point x="121" y="307" type="line"/>
      <point x="84" y="344" type="line"/>
      <point x="121" y="382" type="line"/>
      <point x="327" y="382" type="line"/>
      <point x="364" y="344" type="line"/>
      <point x="327" y="307" type="line"/>
    </contour>
    <contour>
      <point x="75" y="670" type="line"/>
      <point x="94" y="689" type="line"/>
      <point x="355" y="689" type="line"/>
      <point x="373" y="670" type="line"/>
      <point x="317" y="615" type="line"/>
      <point x="131" y="615" type="line"/>
    </contour>
    <contour>
      <point x="392" y="354" type="line"/>
      <point x="336" y="410" type="line"/>
      <point x="336" y="596" type="line"/>
      <point x="392" y="652" type="line"/>
      <point x="410" y="634" type="line"/>
      <point x="410" y="373" type="line"/>
    </contour>
  </outline>
</glyph>
<glyph name="nine" format="2">
  <advance width="447"/>
  <unicode hex="0039"/>
  <outline>
    <contour>
      <point x="37" y="0" type="line"/>
      <point x="111" y="74" type="line"/>
      <point x="132" y="75" type="line"/>
      <point x="317" y="75" type="line"/>
      <point x="373" y="19" type="line"/>
      <point x="354" y="0" type="line"/>
    </contour>
    <contour>
      <point x="391" y="37" type="line"/>
      <point x="335" y="93" type="line"/>
      <point x="335" y="280" type="line"/>
      <point x="391" y="336" type="line"/>
      <point x="410" y="317" type="line"/>
      <point x="410" y="56" type="line"/>
    </contour>
    <contour>
      <point x="56" y="354" type="line"/>
      <point x="37" y="373" type="line"/>
      <point x="37" y="634" type="line"/>
      <point x="56" y="652" type="line"/>
      <point x="112" y="597" type="line"/>
      <point x="112" y="410" type="line"/>
    </contour>
    <contour>
      <point x="83" y="345" type="line"/>
      <point x="121" y="382" type="line"/>
      <point x="326" y="382" type="line"/>
      <point x="364" y="345" type="line"/>
      <point x="326" y="308" type="line"/>
      <point x="121" y="308" type="line"/>
    </contour>
    <contour>
      <point x="130" y="615" type="line"/>
      <point x="74" y="671" type="line"/>
      <point x="93" y="690" type="line"/>
      <point x="354" y="690" type="line"/>
      <point x="373" y="671" type="line"/>
      <point x="317" y="615" type="line"/>
    </contour>
    <contour>
      <point x="391" y="354" type="line"/>
      <point x="335" y="410" type="line"/>
      <point x="335" y="596" type="line"/>
      <point x="391" y="652" type="line"/>
      <point x="410" y="634" type="line"/>
      <point x="410" y="373" type="line"/>
    </contour>
  </outline>
</glyph>
<glyph name="colon" format="2">
  <advance width="160"/>
  <unicode hex="003A"/>
  <outline>
    <contour>
      <point x="44" y="186" type="line"/>
      <point x="44" y="260" type="line"/>
      <point x="118" y="260" type="line"/>
      <point x="118" y="186" type="line"/>
    </contour>
    <contour>
      <point x="44" y="470" type="line"/>
      <point x="44" y="544" type="line"/>
      <point x="118" y="544" type="line"/>
      <point x="118" y="470" type="line"/>
    </contour>
  </outline>
</glyph>
<glyph name="semicolon" format="2">
  <advance width="160"/>
  <unicode hex="003B"/>
  <outline>
    <contour>
      <point x="81" y="99" type="line"/>
      <point x="43" y="137" type="line"/>
      <point x="43" y="262" type="line"/>
      <point x="118" y="262" type="line"/>
      <point x="118" y="137" type="line"/>
    </contour>
    <contour>
      <point x="44" y="470" type="line"/>
      <point x="44" y="544" type="line"/>
      <point x="118" y="544" type="line"/>
      <point x="118" y="470" type="line"/>
    </contour>
  </outline>
</glyph>
<glyph name="less" format="2">
  <advance width="317"/>
  <unicode hex="003C"/>
  <outline>
    <contour>
      <point x="21" y="359" type="line"/>
      <point x="100" y="359" type="line"/>
      <point x="283" y="202" type="line"/>
      <point x="285" y="120" type="line"/>
      <point x="261" y="119" type="line"/>
      <point x="22" y="327" type="line"/>
    </contour>
    <contour>
      <point x="21" y="377" type="line"/>
      <point x="22" y="409" type="line"/>
      <point x="261" y="617" type="line"/>
      <point x="285" y="616" type="line"/>
      <point x="283" y="534" type="line"/>
      <point x="100" y="377" type="line"/>
    </contour>
  </outline>
</glyph>
<glyph name="equal" format="2">
  <advance width="389"/>
  <unicode hex="003D"/>
  <outline>
    <contour>
      <point x="61" y="263" type="line"/>
      <point x="24" y="300" type="line"/>
      <point x="61" y="337" type="line"/>
      <point x="332" y="337" type="line"/>
      <point x="369" y="300" type="line"/>
      <point x="332" y="263" type="line"/>
    </contour>
    <contour>
      <point x="61" y="403" type="line"/>
      <point x="24" y="440" type="line"/>
      <point x="61" y="477" type="line"/>
      <point x="332" y="477" type="line"/>
      <point x="369" y="440" type="line"/>
      <point x="332" y="403" type="line"/>
    </contour>
  </outline>
</glyph>
<glyph name="greater" format="2">
  <advance width="317"/>
  <unicode hex="003E"/>
  <outline>
    <contour>
      <point x="21" y="120" type="line"/>
      <point x="23" y="202" type="line"/>
      <point x="206" y="359" type="line"/>
      <point x="285" y="359" type="line"/>
      <point x="284" y="327" type="line"/>
      <point x="45" y="119" type="line"/>
    </contour>
    <contour>
      <point x="23" y="534" type="line"/>
      <point x="21" y="616" type="line"/>
      <point x="45" y="617" type="line"/>
      <point x="284" y="409" type="line"/>
      <point x="285" y="377" type="line"/>
      <point x="206" y="377" type="line"/>
    </contour>
  </outline>
</glyph>
<glyph name="question" format="2">
  <advance width="414"/>
  <unicode hex="003F"/>
  <outline>
    <contour>
      <point x="145" y="102" type="line"/>
      <point x="127" y="120" type="line"/>
      <point x="127" y="317" type="line"/>
      <point x="145" y="335" type="line"/>
      <point x="201" y="279" type="line"/>
      <point x="201" y="157" type="line"/>
    </contour>
    <contour>
      <point x="127" y="0" type="line"/>
      <point x="127" y="73" type="line"/>
      <point x="201" y="73" type="line"/>
      <point x="201" y="0" type="line"/>
    </contour>
    <contour>
      <point x="210" y="307" type="line"/>
      <point x="173" y="344" type="line"/>
      <point x="210" y="382" type="line"/>
      <point x="292" y="382" type="line"/>
      <point x="329" y="344" type="line"/>
      <point x="292" y="307" type="line"/>
    </contour>
    <contour>
      <point x="98" y="615" type="line"/>
      <point x="24" y="689" type="line"/>
      <point x="319" y="689" type="line"/>
      <point x="338" y="671" type="line"/>
      <point x="282" y="615" type="line"/>
    </contour>
    <contour>
      <point x="357" y="354" type="line"/>
      <point x="301" y="410" type="line"/>
      <point x="301" y="596" type="line"/>
      <point x="357" y="652" type="line"/>
      <point x="375" y="634" type="line"/>
      <point x="375" y="373" type="line"/>
    </contour>
  </outline>
</glyph>
<glyph name="at" format="2">
  <advance width="785"/>
  <unicode hex="0040"/>
  <outline>
    <contour>
      <point x="38" y="56" type="line"/>
      <point x="38" y="317" type="line"/>
      <point x="57" y="336" type="line"/>
      <point x="113" y="280" type="line"/>
      <point x="113" y="93" type="line"/>
      <point x="57" y="38" type="line"/>
    </contour>
    <contour>
      <point x="94" y="0" type="line"/>
      <point x="75" y="19" type="line"/>
      <point x="131" y="75" type="line"/>
      <point x="550" y="75" type="line"/>
      <point x="605" y="19" type="line"/>
      <point x="587" y="0" type="line"/>
    </contour>
    <contour>
      <point x="218" y="169" type="line"/>
      <point x="218" y="327" type="line"/>
      <point x="237" y="346" type="line"/>
      <point x="293" y="290" type="line"/>
      <point x="293" y="206" type="line"/>
      <point x="237" y="151" type="line"/>
    </contour>
    <contour>
      <point x="274" y="113" type="line"/>
      <point x="255" y="132" type="line"/>
      <point x="311" y="188" type="line"/>
      <point x="659" y="188" type="line"/>
      <point x="714" y="132" type="line"/>
      <point x="696" y="113" type="line"/>
    </contour>
    <contour>
      <point x="732" y="136" type="line"/>
      <point x="676" y="205" type="line"/>
      <point x="676" y="280" type="line"/>
      <point x="732" y="336" type="line"/>
      <point x="751" y="317" type="line"/>
      <point x="751" y="168" type="line"/>
    </contour>
    <contour>
      <point x="57" y="354" type="line"/>
      <point x="38" y="373" type="line"/>
      <point x="38" y="634" type="line"/>
      <point x="57" y="652" type="line"/>
      <point x="113" y="597" type="line"/>
      <point x="113" y="410" type="line"/>
    </contour>
    <contour>
      <point x="237" y="364" type="line"/>
      <point x="218" y="383" type="line"/>
      <point x="218" y="527" type="line"/>
      <point x="237" y="545" type="line"/>
      <point x="293" y="490" type="line"/>
      <point x="293" y="420" type="line"/>
    </contour>
    <contour>
      <point x="131" y="615" type="line"/>
      <point x="75" y="671" type="line"/>
      <point x="94" y="690" type="line"/>
      <point x="695" y="690" type="line"/>
      <point x="713" y="671" type="line"/>
      <point x="658" y="615" type="line"/>
    </contour>
    <contour>
      <point x="311" y="508" type="line"/>
      <point x="255" y="564" type="line"/>
      <point x="274" y="583" type="line"/>
      <point x="539" y="583" type="line"/>
      <point x="475" y="508" type="line"/>
    </contour>
    <contour>
      <point x="549" y="364" type="line"/>
      <point x="493" y="420" type="line"/>
      <point x="493" y="490" type="line"/>
      <point x="568" y="574" type="line"/>
      <point x="568" y="383" type="line"/>
    </contour>
    <contour>
      <point x="493" y="206" type="line"/>
      <point x="493" y="290" type="line"/>
      <point x="549" y="346" type="line"/>
      <point x="568" y="327" type="line"/>
      <point x="568" y="204" type="line"/>
    </contour>
    <contour>
      <point x="732" y="354" type="line"/>
      <point x="676" y="410" type="line"/>
      <point x="676" y="596" type="line"/>
      <point x="732" y="652" type="line"/>
      <point x="751" y="634" type="line"/>
      <point x="751" y="373" type="line"/>
    </contour>
  </outline>
</glyph>
<glyph name="N" format="2">
  <advance width="447"/>
  <unicode hex="004E"/>
  <outline>
    <contour>
      <point x="57" y="0" type="line"/>
      <point x="39" y="18" type="line"/>
      <point x="39" y="316" type="line"/>
      <point x="57" y="335" type="line"/>
      <point x="113" y="279" type="line"/>
      <point x="113" y="56" type="line"/>
    </contour>
    <contour>
      <point x="393" y="0" type="line"/>
      <point x="337" y="56" type="line"/>
      <point x="337" y="279" type="line"/>
      <point x="393" y="335" type="line"/>
      <point x="411" y="316" type="line"/>
      <point x="411" y="18" type="line"/>
    </contour>
    <contour>
      <point x="57" y="354" type="line"/>
      <point x="39" y="372" type="line"/>
      <point x="39" y="670" type="line"/>
      <point x="57" y="689" type="line"/>
      <point x="113" y="633" type="line"/>
      <point x="113" y="410" type="line"/>
    </contour>
    <contour>
      <point x="139" y="553" type="line"/>
      <point x="139" y="633" type="line"/>
      <point x="165" y="633" type="line"/>
      <point x="311" y="487" type="line"/>
      <point x="311" y="410" type="line"/>
      <point x="283" y="410" type="line"/>
    </contour>
    <contour>
      <point x="393" y="354" type="line"/>
      <point x="337" y="410" type="line"/>
      <point x="337" y="633" type="line"/>
      <point x="393" y="689" type="line"/>
      <point x="411" y="670" type="line"/>
      <point x="411" y="372" type="line"/>
    </contour>
  </outline>
</glyph>
<glyph name="O" format="2">
  <advance width="447"/>
  <unicode hex="004F"/>
  <outline>
    <contour>
      <point x="38" y="56" type="line"/>
      <point x="38" y="317" type="line"/>
      <point x="57" y="336" type="line"/>
      <point x="113" y="280" type="line"/>
      <point x="113" y="93" type="line"/>
      <point x="57" y="38" type="line"/>
    </contour>
    <contour>
      <point x="94" y="0" type="line"/>
      <point x="75" y="19" type="line"/>
      <point x="131" y="75" type="line"/>
      <point x="318" y="75" type="line"/>
      <point x="373" y="19" type="line"/>
      <point x="355" y="0" type="line"/>
    </contour>
    <contour>
      <point x="336" y="93" type="line"/>
      <point x="336" y="280" type="line"/>
      <point x="392" y="336" type="line"/>
      <point x="411" y="317" type="line"/>
      <point x="411" y="56" type="line"/>
      <point x="392" y="38" type="line"/>
    </contour>
    <contour>
      <point x="57" y="354" type="line"/>
      <point x="38" y="373" type="line"/>
      <point x="38" y="634" type="line"/>
      <point x="57" y="652" type="line"/>
      <point x="113" y="597" type="line"/>
      <point x="113" y="410" type="line"/>
    </contour>
    <contour>
      <point x="131" y="615" type="line"/>
      <point x="75" y="671" type="line"/>
      <point x="94" y="690" type="line"/>
      <point x="355" y="690" type="line"/>
      <point x="373" y="671" type="line"/>
      <point x="318" y="615" type="line"/>
    </contour>
    <contour>
      <point x="392" y="354" type="line"/>
      <point x="336" y="410" type="line"/>
      <point x="336" y="596" type="line"/>
      <point x="392" y="652" type="line"/>
      <point x="411" y="634" type="line"/>
      <point x="411" y="373" type="line"/>
    </contour>
  </outline>
</glyph>
<glyph name="Q" format="2">
  <advance width="447"/>
  <unicode hex="0051"/>
  <outline>
    <contour>
      <point x="58" y="38" type="line"/>
      <point x="40" y="56" type="line"/>
      <point x="40" y="317" type="line"/>
      <point x="58" y="336" type="line"/>
      <point x="114" y="280" type="line"/>
      <point x="114" y="94" type="line"/>
    </contour>
    <contour>
      <point x="95" y="0" type="line"/>
      <point x="77" y="19" type="line"/>
      <point x="133" y="75" type="line"/>
      <point x="251" y="75" type="line"/>
      <point x="325" y="0" type="line"/>
    </contour>
    <contour>
      <point x="360" y="0" type="line"/>
      <point x="249" y="111" type="line"/>
      <point x="249" y="173" type="line"/>
      <point x="293" y="173" type="line"/>
      <point x="412" y="53" type="line"/>
      <point x="412" y="0" type="line"/>
    </contour>
    <contour>
      <point x="338" y="162" type="line"/>
      <point x="338" y="280" type="line"/>
      <point x="393" y="336" type="line"/>
      <point x="412" y="317" type="line"/>
      <point x="412" y="87" type="line"/>
    </contour>
    <contour>
      <point x="58" y="354" type="line"/>
      <point x="40" y="373" type="line"/>
      <point x="40" y="634" type="line"/>
      <point x="58" y="653" type="line"/>
      <point x="114" y="597" type="line"/>
      <point x="114" y="410" type="line"/>
    </contour>
    <contour>
      <point x="133" y="615" type="line"/>
      <point x="77" y="671" type="line"/>
      <point x="96" y="690" type="line"/>
      <point x="357" y="690" type="line"/>
      <point x="375" y="671" type="line"/>
      <point x="320" y="615" type="line"/>
    </contour>
    <contour>
      <point x="393" y="354" type="line"/>
      <point x="338" y="410" type="line"/>
      <point x="338" y="597" type="line"/>
      <point x="393" y="653" type="line"/>
      <point x="412" y="634" type="line"/>
      <point x="412" y="373" type="line"/>
    </contour>
  </outline>
</glyph>
<glyph name="X" format="2">
  <advance width="416"/>
  <unicode hex="0058"/>
  <outline>
    <contour>
      <point x="159" y="357" type="line"/>
      <point x="30" y="665" type="line"/>
      <point x="40" y="689" type="line"/>
      <point x="100" y="689" type="line"/>
      <point x="102" y="683"/>
      <point x="119" y="645"/>
      <point x="141" y="593"/>
      <point x="165" y="536"/>
      <point x="185" y="488"/>
      <point x="198" y="456"/>
      <point x="198" y="456" type="qcurve"/>
      <point x="198" y="357" type="line"/>
    </contour>
    <contour>
      <point x="222" y="357" type="line"/>
      <point x="222" y="456" type="line"/>
      <point x="222" y="456"/>
      <point x="235" y="488"/>
      <point x="255" y="536"/>
      <point x="279" y="593"/>
      <point x="301" y="645"/>
      <point x="318" y="683"/>
      <point x="320" y="689" type="qcurve"/>
      <point x="380" y="689" type="line"/>
      <point x="390" y="665" type="line"/>
      <point x="261" y="357" type="line"/>
    </contour>
    <contour>
      <point x="40" y="0" type="line"/>
      <point x="30" y="24" type="line"/>
      <point x="159" y="333" type="line"/>
      <point x="198" y="333" type="line"/>
      <point x="198" y="233" type="line"/>
      <point x="198" y="232"/>
      <point x="185" y="201"/>
      <point x="165" y="153"/>
      <point x="141" y="96"/>
      <point x="119" y="44"/>
      <point x="103" y="6"/>
      <point x="100" y="0" type="qcurve"/>
    </contour>
    <contour>
      <point x="320" y="0" type="line"/>
      <point x="317" y="6"/>
      <point x="301" y="44"/>
      <point x="279" y="96"/>
      <point x="255" y="153"/>
      <point x="235" y="201"/>
      <point x="222" y="232"/>
      <point x="222" y="233" type="qcurve"/>
      <point x="222" y="333" type="line"/>
      <point x="261" y="333" type="line"/>
      <point x="390" y="24" type="line"/>
      <point x="380" y="0" type="line"/>
    </contour>
  </outline>
</glyph>
<glyph name="bracketleft" format="2">
  <advance width="333"/>
  <unicode hex="005B"/>
  <outline>
    <contour>
      <point x="130" y="763" type="line"/>
      <point x="129" y="764"/>
      <point x="128" y="765" type="qcurve"/>
      <point x="127" y="766" type="line"/>
      <point x="126" y="767"/>
      <point x="125" y="767" type="qcurve"/>
      <point x="124" y="769" type="line"/>
      <point x="122" y="770"/>
      <point x="121" y="772" type="qcurve"/>
      <point x="119" y="773" type="line"/>
      <point x="119" y="774"/>
      <point x="118" y="775" type="qcurve"/>
      <point x="117" y="776" type="line"/>
      <point x="115" y="777"/>
      <point x="113" y="779" type="qcurve"/>
      <point x="112" y="780" type="line"/>
      <point x="111" y="781"/>
      <point x="110" y="782" type="qcurve"/>
      <point x="109" y="783" type="line"/>
      <point x="108" y="784"/>
      <point x="107" y="785" type="qcurve"/>
      <point x="106" y="786" type="line"/>
      <point x="106" y="786"/>
      <point x="105" y="786" type="qcurve"/>
      <point x="104" y="787" type="line"/>
      <point x="103" y="788"/>
      <point x="103" y="789" type="qcurve"/>
      <point x="101" y="790" type="line"/>
      <point x="100" y="792"/>
      <point x="98" y="793" type="qcurve"/>
      <point x="97" y="795" type="line"/>
      <point x="96" y="795"/>
      <point x="95" y="796" type="qcurve"/>
      <point x="94" y="797" type="line"/>
      <point x="93" y="798"/>
      <point x="92" y="799" type="qcurve"/>
      <point x="73" y="817"/>
      <point x="56" y="837" type="qcurve"/>
      <point x="308" y="837" type="line"/>
      <point x="252" y="763" type="line"/>
    </contour>
    <contour>
      <point x="37" y="372" type="line"/>
      <point x="37" y="818" type="line"/>
      <point x="112" y="744" type="line"/>
      <point x="112" y="410" type="line"/>
      <point x="56" y="354" type="line"/>
    </contour>
    <contour>
      <point x="37" y="-126" type="line"/>
      <point x="37" y="318" type="line"/>
      <point x="56" y="336" type="line"/>
      <point x="112" y="280" type="line"/>
      <point x="112" y="-52" type="line"/>
    </contour>
    <contour>
      <point x="56" y="-145" type="line"/>
      <point x="73" y="-125"/>
      <point x="92" y="-107" type="qcurve"/>
      <point x="93" y="-106"/>
      <point x="94" y="-105" type="qcurve"/>
      <point x="95" y="-104" type="line"/>
      <point x="96" y="-103"/>
      <point x="97" y="-103" type="qcurve"/>
      <point x="98" y="-101" type="line"/>
      <point x="100" y="-100"/>
      <point x="101" y="-98" type="qcurve"/>
      <point x="103" y="-97" type="line"/>
      <point x="103" y="-96"/>
      <point x="104" y="-95" type="qcurve"/>
      <point x="105" y="-94" type="line"/>
      <point x="107" y="-93"/>
      <point x="109" y="-91" type="qcurve"/>
      <point x="110" y="-90" type="line"/>
      <point x="111" y="-89"/>
      <point x="112" y="-88" type="qcurve"/>
      <point x="113" y="-87" type="line"/>
      <point x="114" y="-86"/>
      <point x="115" y="-85" type="qcurve"/>
      <point x="116" y="-84" type="line"/>
      <point x="116" y="-84"/>
      <point x="117" y="-84" type="qcurve"/>
      <point x="118" y="-83" type="line"/>
      <point x="119" y="-82"/>
      <point x="119" y="-81" type="qcurve"/>
      <point x="121" y="-80" type="line"/>
      <point x="122" y="-78"/>
      <point x="124" y="-77" type="qcurve"/>
      <point x="125" y="-75" type="line"/>
      <point x="126" y="-75"/>
      <point x="127" y="-74" type="qcurve"/>
      <point x="128" y="-73" type="line"/>
      <point x="129" y="-72"/>
      <point x="130" y="-71" type="qcurve"/>
      <point x="252" y="-71" type="line"/>
      <point x="308" y="-145" type="line"/>
    </contour>
  </outline>
</glyph>
<glyph name="backslash" format="2">
  <advance width="413"/>
  <unicode hex="005C"/>
  <outline>
    <contour>
      <point x="331" y="18" type="line"/>
      <point x="190" y="314" type="line"/>
      <point x="199" y="339" type="line"/>
      <point x="273" y="311" type="line"/>
      <point x="384" y="84" type="line"/>
      <point x="356" y="10" type="line"/>
    </contour>
    <contour>
      <point x="167" y="365" type="line"/>
      <point x="26" y="665" type="line"/>
      <point x="35" y="690" type="line"/>
      <point x="109" y="663" type="line"/>
      <point x="219" y="430" type="line"/>
      <point x="191" y="356" type="line"/>
    </contour>
  </outline>
</glyph>
<glyph name="bracketright" format="2">
  <advance width="333"/>
  <unicode hex="005D"/>
  <outline>
    <contour>
      <point x="93" y="763" type="line"/>
      <point x="37" y="837" type="line"/>
      <point x="289" y="837" type="line"/>
      <point x="272" y="817"/>
      <point x="253" y="799" type="qcurve"/>
      <point x="252" y="798"/>
      <point x="251" y="797" type="qcurve"/>
      <point x="250" y="796" type="line"/>
      <point x="249" y="795"/>
      <point x="248" y="795" type="qcurve"/>
      <point x="247" y="793" type="line"/>
      <point x="247" y="793"/>
      <point x="247" y="793" type="qcurve"/>
      <point x="245" y="792" type="line"/>
      <point x="245" y="791"/>
      <point x="244" y="790" type="qcurve"/>
      <point x="242" y="789" type="line"/>
      <point x="242" y="788"/>
      <point x="241" y="787" type="qcurve"/>
      <point x="240" y="786" type="line"/>
      <point x="238" y="785"/>
      <point x="236" y="783" type="qcurve"/>
      <point x="235" y="782" type="line"/>
      <point x="234" y="781"/>
      <point x="233" y="780" type="qcurve"/>
      <point x="232" y="779" type="line"/>
      <point x="232" y="779"/>
      <point x="231" y="779" type="qcurve"/>
      <point x="230" y="777" type="line"/>
      <point x="229" y="777"/>
      <point x="228" y="776" type="qcurve"/>
      <point x="227" y="775" type="line"/>
      <point x="226" y="774"/>
      <point x="226" y="773" type="qcurve"/>
      <point x="224" y="772" type="line"/>
      <point x="224" y="772"/>
      <point x="224" y="771" type="qcurve"/>
      <point x="223" y="770" type="line"/>
      <point x="222" y="769"/>
      <point x="221" y="769" type="qcurve"/>
      <point x="220" y="767" type="line"/>
      <point x="219" y="767"/>
      <point x="218" y="766" type="qcurve"/>
      <point x="215" y="763" type="line"/>
    </contour>
    <contour>
      <point x="289" y="354" type="line"/>
      <point x="233" y="410" type="line"/>
      <point x="233" y="744" type="line"/>
      <point x="308" y="818" type="line"/>
      <point x="308" y="372" type="line"/>
    </contour>
    <contour>
      <point x="233" y="-52" type="line"/>
      <point x="233" y="280" type="line"/>
      <point x="289" y="336" type="line"/>
      <point x="308" y="318" type="line"/>
      <point x="308" y="-126" type="line"/>
    </contour>
    <contour>
      <point x="37" y="-145" type="line"/>
      <point x="93" y="-71" type="line"/>
      <point x="215" y="-71" type="line"/>
      <point x="216" y="-72" type="line"/>
      <point x="216" y="-72"/>
      <point x="217" y="-73" type="qcurve"/>
      <point x="218" y="-74" type="line"/>
      <point x="219" y="-75"/>
      <point x="220" y="-75" type="qcurve"/>
      <point x="221" y="-77" type="line"/>
      <point x="222" y="-77"/>
      <point x="223" y="-78" type="qcurve"/>
      <point x="224" y="-79" type="line"/>
      <point x="224" y="-80"/>
      <point x="224" y="-80" type="qcurve"/>
      <point x="226" y="-81" type="line"/>
      <point x="226" y="-82"/>
      <point x="227" y="-83" type="qcurve"/>
      <point x="228" y="-84" type="line"/>
      <point x="229" y="-85"/>
      <point x="230" y="-85" type="qcurve"/>
      <point x="231" y="-87" type="line"/>
      <point x="232" y="-87"/>
      <point x="232" y="-87" type="qcurve"/>
      <point x="233" y="-88" type="line"/>
      <point x="234" y="-89"/>
      <point x="235" y="-90" type="qcurve"/>
      <point x="236" y="-91" type="line"/>
      <point x="237" y="-92"/>
      <point x="238" y="-93" type="qcurve"/>
      <point x="239" y="-94" type="line"/>
      <point x="239" y="-94"/>
      <point x="240" y="-94" type="qcurve"/>
      <point x="241" y="-95" type="line"/>
      <point x="242" y="-96"/>
      <point x="242" y="-97" type="qcurve"/>
      <point x="244" y="-98" type="line"/>
      <point x="245" y="-99"/>
      <point x="245" y="-100" type="qcurve"/>
      <point x="247" y="-101" type="line"/>
      <point x="247" y="-101"/>
      <point x="247" y="-101" type="qcurve"/>
      <point x="248" y="-103" type="line"/>
      <point x="249" y="-103"/>
      <point x="250" y="-104" type="qcurve"/>
      <point x="251" y="-105" type="line"/>
      <point x="252" y="-106"/>
      <point x="253" y="-107" type="qcurve"/>
      <point x="272" y="-125"/>
      <point x="289" y="-145" type="qcurve"/>
    </contour>
  </outline>
</glyph>
<glyph name="asciicircum" format="2">
  <advance width="533"/>
  <unicode hex="005E"/>
  <outline>
    <contour>
      <point x="20" y="409" type="line"/>
      <point x="19" y="433" type="line"/>
      <point x="227" y="672" type="line"/>
      <point x="259" y="672" type="line"/>
      <point x="259" y="594" type="line"/>
      <point x="102" y="411" type="line"/>
    </contour>
    <contour>
      <point x="434" y="411" type="line"/>
      <point x="277" y="594" type="line"/>
      <point x="277" y="673" type="line"/>
      <point x="309" y="672" type="line"/>
      <point x="517" y="433" type="line"/>
      <point x="516" y="409" type="line"/>
    </contour>
  </outline>
</glyph>
<glyph name="underscore" format="2">
  <advance width="467"/>
  <unicode hex="005F"/>
  <outline>
    <contour>
      <point x="59" y="-87" type="line"/>
      <point x="22" y="-50" type="line"/>
      <point x="59" y="-13" type="line"/>
      <point x="412" y="-13" type="line"/>
      <point x="449" y="-50" type="line"/>
      <point x="412" y="-87" type="line"/>
    </contour>
  </outline>
</glyph>
<glyph name="grave" format="2">
  <advance width="188"/>
  <unicode hex="0060"/>
  <outline>
    <contour>
      <point x="30" y="795" type="line"/>
      <point x="28" y="851" type="line"/>
      <point x="79" y="851" type="line"/>
      <point x="165" y="749" type="line"/>
      <point x="132" y="723" type="line"/>
    </contour>
  </outline>
</glyph>
<glyph name="b" format="2">
  <advance width="447"/>
  <unicode hex="0062"/>
  <outline>
    <contour>
      <point x="131" y="614" type="line"/>
      <point x="112" y="633"/>
      <point x="75" y="669"/>
      <point x="57" y="689" type="qcurve"/>
      <point x="355" y="689" type="line"/>
      <point x="373" y="670" type="line"/>
      <point x="318" y="614" type="line"/>
    </contour>
    <contour>
      <point x="38" y="372" type="line"/>
      <point x="38" y="670" type="line"/>
      <point x="113" y="596" type="line"/>
      <point x="113" y="410" type="line"/>
      <point x="57" y="354" type="line"/>
    </contour>
    <contour>
      <point x="336" y="409" type="line"/>
      <point x="336" y="596" type="line"/>
      <point x="392" y="652" type="line"/>
      <point x="411" y="633" type="line"/>
      <point x="411" y="372" type="line"/>
      <point x="392" y="354" type="line"/>
    </contour>
    <contour>
      <point x="84" y="344" type="line"/>
      <point x="122" y="382" type="line"/>
      <point x="327" y="382" type="line"/>
      <point x="365" y="344" type="line"/>
      <point x="327" y="307" type="line"/>
      <point x="122" y="307" type="line"/>
    </contour>
    <contour>
      <point x="38" y="18" type="line"/>
      <point x="38" y="316" type="line"/>
      <point x="57" y="335" type="line"/>
      <point x="113" y="279" type="line"/>
      <point x="113" y="93" type="line"/>
    </contour>
    <contour>
      <point x="392" y="37" type="line"/>
      <point x="336" y="93" type="line"/>
      <point x="336" y="279" type="line"/>
      <point x="392" y="335" type="line"/>
      <point x="411" y="317" type="line"/>
      <point x="411" y="56" type="line"/>
    </contour>
    <contour>
      <point x="57" y="0" type="line"/>
      <point x="131" y="74" type="line"/>
      <point x="318" y="74" type="line"/>
      <point x="373" y="18" type="line"/>
      <point x="355" y="0" type="line"/>
    </contour>
  </outline>
</glyph>
<glyph name="d" format="2">
  <advance width="447"/>
  <unicode hex="0064"/>
  <outline>
    <contour>
      <point x="37" y="19" type="line"/>
      <point x="37" y="317" type="line"/>
      <point x="56" y="335" type="line"/>
      <point x="112" y="279" type="line"/>
      <point x="112" y="93" type="line"/>
    </contour>
    <contour>
      <point x="56" y="0" type="line"/>
      <point x="130" y="74" type="line"/>
      <point x="317" y="74" type="line"/>
      <point x="372" y="18" type="line"/>
      <point x="354" y="0" type="line"/>
    </contour>
    <contour>
      <point x="391" y="37" type="line"/>
      <point x="335" y="93" type="line"/>
      <point x="335" y="279" type="line"/>
      <point x="391" y="335" type="line"/>
      <point x="410" y="317" type="line"/>
      <point x="410" y="56" type="line"/>
    </contour>
    <contour>
      <point x="56" y="354" type="line"/>
      <point x="37" y="373" type="line"/>
      <point x="37" y="671" type="line"/>
      <point x="112" y="596" type="line"/>
      <point x="112" y="410" type="line"/>
    </contour>
    <contour>
      <point x="130" y="615" type="line"/>
      <point x="56" y="689" type="line"/>
      <point x="354" y="689" type="line"/>
      <point x="372" y="671" type="line"/>
      <point x="317" y="615" type="line"/>
    </contour>
    <contour>
      <point x="391" y="354" type="line"/>
      <point x="335" y="410" type="line"/>
      <point x="335" y="596" type="line"/>
      <point x="391" y="652" type="line"/>
      <point x="410" y="634" type="line"/>
      <point x="410" y="373" type="line"/>
    </contour>
  </outline>
</glyph>
<glyph name="f" format="2">
  <advance width="404"/>
  <unicode hex="0066"/>
  <outline>
    <contour>
      <point x="36" y="0" type="line"/>
      <point x="36" y="316" type="line"/>
      <point x="55" y="335" type="line"/>
      <point x="110" y="279" type="line"/>
      <point x="110" y="74" type="line"/>
    </contour>
    <contour>
      <point x="36" y="372" type="line"/>
      <point x="36" y="670" type="line"/>
      <point x="110" y="596" type="line"/>
      <point x="110" y="409" type="line"/>
      <point x="55" y="354" type="line"/>
    </contour>
    <contour>
      <point x="119" y="307" type="line"/>
      <point x="82" y="344" type="line"/>
      <point x="119" y="382" type="line"/>
      <point x="325" y="382" type="line"/>
      <point x="362" y="344" type="line"/>
      <point x="325" y="307" type="line"/>
    </contour>
    <contour>
      <point x="129" y="614" type="line"/>
      <point x="55" y="689" type="line"/>
      <point x="390" y="689" type="line"/>
      <point x="315" y="614" type="line"/>
    </contour>
  </outline>
</glyph>
<glyph name="h" format="2">
  <advance width="447"/>
  <unicode hex="0068"/>
  <outline>
    <contour>
      <point x="39" y="0" type="line"/>
      <point x="39" y="317" type="line"/>
      <point x="57" y="336" type="line"/>
      <point x="113" y="280" type="line"/>
      <point x="113" y="75" type="line"/>
    </contour>
    <contour>
      <point x="337" y="75" type="line"/>
      <point x="337" y="280" type="line"/>
      <point x="393" y="336" type="line"/>
      <point x="411" y="317" type="line"/>
      <point x="411" y="0" type="line"/>
    </contour>
    <contour>
      <point x="57" y="354" type="line"/>
      <point x="39" y="373" type="line"/>
      <point x="39" y="690" type="line"/>
      <point x="113" y="615" type="line"/>
      <point x="113" y="410" type="line"/>
    </contour>
    <contour>
      <point x="122" y="308" type="line"/>
      <point x="85" y="345" type="line"/>
      <point x="122" y="382" type="line"/>
      <point x="328" y="382" type="line"/>
      <point x="365" y="345" type="line"/>
      <point x="328" y="308" type="line"/>
    </contour>
    <contour>
      <point x="393" y="354" type="line"/>
      <point x="337" y="410" type="line"/>
      <point x="337" y="615" type="line"/>
      <point x="411" y="690" type="line"/>
      <point x="411" y="373" type="line"/>
    </contour>
  </outline>
</glyph>
<glyph name="i" format="2">
  <advance width="145"/>
  <unicode hex="0069"/>
  <outline>
    <contour>
      <point x="90" y="0" type="line"/>
      <point x="34" y="56" type="line"/>
      <point x="34" y="279" type="line"/>
      <point x="90" y="335" type="line"/>
      <point x="109" y="316" type="line"/>
      <point x="109" y="18" type="line"/>
    </contour>
    <contour>
      <point x="90" y="354" type="line"/>
      <point x="34" y="410" type="line"/>
      <point x="34" y="633" type="line"/>
      <point x="90" y="689" type="line"/>
      <point x="109" y="670" type="line"/>
      <point x="109" y="372" type="line"/>
    </contour>
  </outline>
</glyph>
<glyph name="j" format="2">
  <advance width="447"/>
  <unicode hex="006A"/>
  <outline>
    <contour>
      <point x="38" y="19" type="line"/>
      <point x="38" y="273" type="line"/>
      <point x="112" y="199" type="line"/>
      <point x="112" y="93" type="line"/>
    </contour>
    <contour>
      <point x="56" y="0" type="line"/>
      <point x="131" y="75" type="line"/>
      <point x="317" y="75" type="line"/>
      <point x="392" y="0" type="line"/>
    </contour>
    <contour>
      <point x="336" y="93" type="line"/>
      <point x="336" y="279" type="line"/>
      <point x="392" y="335" type="line"/>
      <point x="410" y="317" type="line"/>
      <point x="410" y="19" type="line"/>
    </contour>
    <contour>
      <point x="392" y="354" type="line"/>
      <point x="336" y="410" type="line"/>
      <point x="336" y="615" type="line"/>
      <point x="410" y="689" type="line"/>
      <point x="410" y="373" type="line"/>
    </contour>
  </outline>
</glyph>
<glyph name="m" format="2">
  <advance width="498"/>
  <unicode hex="006D"/>
  <outline>
    <contour>
      <point x="34" y="0" type="line"/>
      <point x="34" y="317" type="line"/>
      <point x="53" y="336" type="line"/>
      <point x="109" y="280" type="line"/>
      <point x="109" y="75" type="line"/>
    </contour>
    <contour>
      <point x="388" y="75" type="line"/>
      <point x="388" y="280" type="line"/>
      <point x="444" y="336" type="line"/>
      <point x="463" y="317" type="line"/>
      <point x="463" y="0" type="line"/>
    </contour>
    <contour>
      <point x="53" y="354" type="line"/>
      <point x="34" y="373" type="line"/>
      <point x="34" y="671" type="line"/>
      <point x="109" y="596" type="line"/>
      <point x="109" y="410" type="line"/>
    </contour>
    <contour>
      <point x="246" y="336" type="line"/>
      <point x="209" y="373" type="line"/>
      <point x="209" y="589" type="line"/>
      <point x="284" y="589" type="line"/>
      <point x="284" y="373" type="line"/>
    </contour>
    <contour>
      <point x="128" y="615" type="line"/>
      <point x="53" y="690" type="line"/>
      <point x="444" y="690" type="line"/>
      <point x="370" y="615" type="line"/>
    </contour>
    <contour>
      <point x="444" y="354" type="line"/>
      <point x="388" y="410" type="line"/>
      <point x="388" y="596" type="line"/>
      <point x="463" y="671" type="line"/>
      <point x="463" y="373" type="line"/>
    </contour>
  </outline>
</glyph>
<glyph name="p" format="2">
  <advance width="437"/>
  <unicode hex="0070"/>
  <outline>
    <contour>
      <point x="130" y="615" type="line"/>
      <point x="129" y="616"/>
      <point x="128" y="617" type="qcurve"/>
      <point x="127" y="618" type="line"/>
      <point x="126" y="619"/>
      <point x="125" y="619" type="qcurve"/>
      <point x="124" y="621" type="line"/>
      <point x="122" y="622"/>
      <point x="121" y="624" type="qcurve"/>
      <point x="119" y="625" type="line"/>
      <point x="119" y="626"/>
      <point x="118" y="627" type="qcurve"/>
      <point x="117" y="628" type="line"/>
      <point x="115" y="629"/>
      <point x="113" y="631" type="qcurve"/>
      <point x="112" y="632" type="line"/>
      <point x="111" y="633"/>
      <point x="110" y="634" type="qcurve"/>
      <point x="109" y="635" type="line"/>
      <point x="107" y="637"/>
      <point x="105" y="638" type="qcurve"/>
      <point x="104" y="639" type="line"/>
      <point x="103" y="640"/>
      <point x="103" y="641" type="qcurve"/>
      <point x="101" y="642" type="line"/>
      <point x="100" y="644"/>
      <point x="98" y="645" type="qcurve"/>
      <point x="97" y="647" type="line"/>
      <point x="96" y="647"/>
      <point x="95" y="648" type="qcurve"/>
      <point x="94" y="649" type="line"/>
      <point x="93" y="650"/>
      <point x="92" y="651" type="qcurve"/>
      <point x="73" y="669"/>
      <point x="56" y="689" type="qcurve"/>
      <point x="354" y="689" type="line"/>
      <point x="373" y="670" type="line"/>
      <point x="317" y="615" type="line"/>
    </contour>
    <contour>
      <point x="37" y="372" type="line"/>
      <point x="37" y="670" type="line"/>
      <point x="112" y="596" type="line"/>
      <point x="112" y="410" type="line"/>
      <point x="56" y="354" type="line"/>
    </contour>
    <contour>
      <point x="391" y="354" type="line"/>
      <point x="335" y="410" type="line"/>
      <point x="335" y="596" type="line"/>
      <point x="391" y="652" type="line"/>
      <point x="410" y="634" type="line"/>
      <point x="410" y="373" type="line"/>
    </contour>
    <contour>
      <point x="83" y="344" type="line"/>
      <point x="121" y="382" type="line"/>
      <point x="326" y="382" type="line"/>
      <point x="364" y="344" type="line"/>
      <point x="326" y="307" type="line"/>
      <point x="121" y="307" type="line"/>
    </contour>
    <contour>
      <point x="37" y="0" type="line"/>
      <point x="37" y="316" type="line"/>
      <point x="56" y="335" type="line"/>
      <point x="112" y="279" type="line"/>
      <point x="112" y="74" type="line"/>
    </contour>
  </outline>
</glyph>
<glyph name="v" format="2">
  <advance width="439"/>
  <unicode hex="0076"/>
  <outline>
    <contour>
      <point x="54" y="354" type="line"/>
      <point x="36" y="373" type="line"/>
      <point x="36" y="690" type="line"/>
      <point x="110" y="615" type="line"/>
      <point x="110" y="410" type="line"/>
    </contour>
    <contour>
      <point x="390" y="354" type="line"/>
      <point x="334" y="410" type="line"/>
      <point x="334" y="615" type="line"/>
      <point x="408" y="690" type="line"/>
      <point x="408" y="373" type="line"/>
    </contour>
    <contour>
      <point x="187" y="0" type="line"/>
      <point x="41" y="314" type="line"/>
      <point x="50" y="339" type="line"/>
      <point x="124" y="312" type="line"/>
      <point x="128" y="303"/>
      <point x="156" y="246"/>
      <point x="186" y="182"/>
      <point x="210" y="130"/>
      <point x="210" y="127" type="qcurve" smooth="yes"/>
      <point x="210" y="0" type="line"/>
    </contour>
    <contour>
      <point x="234" y="0" type="line"/>
      <point x="234" y="127" type="line" smooth="yes"/>
      <point x="234" y="130"/>
      <point x="258" y="182"/>
      <point x="288" y="246"/>
      <point x="316" y="303"/>
      <point x="320" y="312" type="qcurve"/>
      <point x="395" y="339" type="line"/>
      <point x="404" y="314" type="line"/>
      <point x="366" y="236"/>
      <point x="293" y="79"/>
      <point x="257" y="0" type="qcurve"/>
    </contour>
  </outline>
</glyph>
<glyph name="braceleft" format="2">
  <advance width="353"/>
  <unicode hex="007B"/>
  <outline>
    <contour>
      <point x="156" y="-56" type="line"/>
      <point x="156" y="293" type="line"/>
      <point x="191" y="336" type="line"/>
      <point x="231" y="299" type="line"/>
      <point x="231" y="-19" type="line"/>
      <point x="175" y="-74" type="line"/>
    </contour>
    <contour>
      <point x="65" y="302" type="line"/>
      <point x="28" y="339" type="line"/>
      <point x="65" y="376" type="line"/>
      <point x="138" y="376" type="line"/>
      <point x="175" y="339" type="line"/>
      <point x="138" y="302" type="line"/>
    </contour>
    <contour>
      <point x="191" y="354" type="line"/>
      <point x="156" y="391" type="line"/>
      <point x="156" y="739" type="line"/>
      <point x="175" y="757" type="line"/>
      <point x="231" y="702" type="line"/>
      <point x="231" y="400" type="line"/>
    </contour>
    <contour>
      <point x="249" y="720" type="line"/>
      <point x="193" y="776" type="line"/>
      <point x="212" y="795" type="line"/>
      <point x="398" y="795" type="line"/>
      <point x="416" y="776" type="line"/>
      <point x="361" y="720" type="line"/>
    </contour>
    <contour>
      <point x="212" y="-112" type="line"/>
      <point x="193" y="-93" type="line"/>
      <point x="249" y="-37" type="line"/>
      <point x="361" y="-37" type="line"/>
      <point x="416" y="-93" type="line"/>
      <point x="398" y="-112" type="line"/>
    </contour>
  </outline>
</glyph>
<glyph name="bar" format="2">
  <advance width="145"/>
  <unicode hex="007C"/>
  <outline>
    <contour>
      <point x="34" y="-126" type="line"/>
      <point x="34" y="294" type="line"/>
      <point x="73" y="338" type="line"/>
      <point x="109" y="298" type="line"/>
      <point x="109" y="-128" type="line"/>
      <point x="73" y="-164" type="line"/>
    </contour>
    <contour>
      <point x="34" y="391" type="line"/>
      <point x="34" y="812" type="line"/>
      <point x="73" y="856" type="line"/>
      <point x="109" y="816" type="line"/>
      <point x="109" y="389" type="line"/>
      <point x="73" y="353" type="line"/>
    </contour>
  </outline>
</glyph>
<glyph name="braceright" format="2">
  <advance width="353"/>
  <unicode hex="007D"/>
  <outline>
    <contour>
      <point x="130" y="-19" type="line"/>
      <point x="130" y="299" type="line"/>
      <point x="170" y="336" type="line"/>
      <point x="205" y="293" type="line"/>
      <point x="205" y="-56" type="line"/>
      <point x="186" y="-74" type="line"/>
    </contour>
    <contour>
      <point x="223" y="302" type="line"/>
      <point x="186" y="339" type="line"/>
      <point x="223" y="376" type="line"/>
      <point x="296" y="376" type="line"/>
      <point x="333" y="339" type="line"/>
      <point x="296" y="302" type="line"/>
    </contour>
    <contour>
      <point x="170" y="354" type="line"/>
      <point x="130" y="400" type="line"/>
      <point x="130" y="702" type="line"/>
      <point x="186" y="757" type="line"/>
      <point x="205" y="739" type="line"/>
      <point x="205" y="391" type="line"/>
    </contour>
    <contour>
      <point x="0" y="720" type="line"/>
      <point x="-55" y="776" type="line"/>
      <point x="-37" y="795" type="line"/>
      <point x="149" y="795" type="line"/>
      <point x="168" y="776" type="line"/>
      <point x="112" y="720" type="line"/>
    </contour>
    <contour>
      <point x="-37" y="-112" type="line"/>
      <point x="-55" y="-93" type="line"/>
      <point x="0" y="-37" type="line"/>
      <point x="112" y="-37" type="line"/>
      <point x="168" y="-93" type="line"/>
      <point x="149" y="-112" type="line"/>
    </contour>
  </outline>
</glyph>
<glyph name="asciitilde" format="2">
  <advance width="372"/>
  <unicode hex="007E"/>
  <outline>
    <contour>
      <point x="13" y="296" type="line"/>
      <point x="119" y="417" type="line"/>
      <point x="187" y="417" type="line"/>
      <point x="236" y="362" type="line"/>
      <point x="317" y="417" type="line"/>
      <point x="359" y="386" type="line"/>
      <point x="252" y="265" type="line"/>
      <point x="153" y="332" type="line"/>
      <point x="54" y="265" type="line"/>
    </contour>
  </outline>
</glyph>
<glyph name="exclamdown" format="2">
  <advance width="153"/>
  <unicode hex="00A1"/>
  <outline>
    <contour>
      <point x="96" y="0" type="line"/>
      <point x="40" y="56" type="line"/>
      <point x="40" y="279" type="line"/>
      <point x="96" y="335" type="line"/>
      <point x="114" y="316" type="line"/>
      <point x="114" y="18" type="line"/>
    </contour>
    <contour>
      <point x="96" y="354" type="line"/>
      <point x="40" y="410" type="line"/>
      <point x="40" y="532" type="line"/>
      <point x="96" y="588" type="line"/>
      <point x="114" y="569" type="line"/>
      <point x="114" y="373" type="line"/>
    </contour>
    <contour>
      <point x="40" y="616" type="line"/>
      <point x="40" y="690" type="line"/>
      <point x="114" y="690" type="line"/>
      <point x="114" y="616" type="line"/>
    </contour>
  </outline>
</glyph>
<glyph name="cent" format="2">
  <advance width="405"/>
  <unicode hex="00A2"/>
  <outline>
    <contour>
      <point x="55" y="37" type="line"/>
      <point x="37" y="55" type="line"/>
      <point x="37" y="316" type="line"/>
      <point x="55" y="335" type="line"/>
      <point x="111" y="279" type="line"/>
      <point x="111" y="93" type="line"/>
    </contour>
    <contour>
      <point x="177" y="95" type="line"/>
      <point x="177" y="294" type="line"/>
      <point x="216" y="338" type="line"/>
      <point x="252" y="298" type="line"/>
      <point x="252" y="95" type="line"/>
    </contour>
    <contour>
      <point x="74" y="18" type="line"/>
      <point x="130" y="74" type="line"/>
      <point x="316" y="74" type="line"/>
      <point x="391" y="0" type="line"/>
      <point x="93" y="0" type="line"/>
    </contour>
    <contour>
      <point x="55" y="354" type="line"/>
      <point x="37" y="372" type="line"/>
      <point x="37" y="633" type="line"/>
      <point x="55" y="652" type="line"/>
      <point x="111" y="596" type="line"/>
      <point x="111" y="410" type="line"/>
    </contour>
    <contour>
      <point x="177" y="391" type="line"/>
      <point x="177" y="594" type="line"/>
      <point x="252" y="594" type="line"/>
      <point x="252" y="389" type="line"/>
      <point x="216" y="353" type="line"/>
    </contour>
    <contour>
      <point x="177" y="709" type="line"/>
      <point x="177" y="812" type="line"/>
      <point x="216" y="856" type="line"/>
      <point x="252" y="816" type="line"/>
      <point x="252" y="709" type="line"/>
    </contour>
    <contour>
      <point x="130" y="615" type="line"/>
      <point x="74" y="671" type="line"/>
      <point x="93" y="689" type="line"/>
      <point x="391" y="689" type="line"/>
      <point x="316" y="615" type="line"/>
    </contour>
    <contour>
      <point x="177" y="-126" type="line"/>
      <point x="177" y="-20" type="line"/>
      <point x="252" y="-20" type="line"/>
      <point x="252" y="-128" type="line"/>
      <point x="216" y="-164" type="line"/>
    </contour>
  </outline>
</glyph>
<glyph name="sterling" format="2">
  <advance width="408"/>
  <unicode hex="00A3"/>
  <outline>
    <contour>
      <point x="38" y="19" type="line"/>
      <point x="38" y="317" type="line"/>
      <point x="57" y="336" type="line"/>
      <point x="112" y="280" type="line"/>
      <point x="112" y="94" type="line"/>
    </contour>
    <contour>
      <point x="57" y="0" type="line"/>
      <point x="131" y="75" type="line"/>
      <point x="317" y="75" type="line"/>
      <point x="392" y="0" type="line"/>
    </contour>
    <contour>
      <point x="57" y="354" type="line"/>
      <point x="38" y="373" type="line"/>
      <point x="38" y="690" type="line"/>
      <point x="112" y="615" type="line"/>
      <point x="112" y="410" type="line"/>
    </contour>
    <contour>
      <point x="130" y="489" type="line"/>
      <point x="130" y="563" type="line"/>
      <point x="278" y="563" type="line"/>
      <point x="315" y="526" type="line"/>
      <point x="278" y="489" type="line"/>
    </contour>
  </outline>
</glyph>
<glyph name="currency" format="2">
  <advance width="583"/>
  <unicode hex="00A4"/>
  <outline>
    <contour>
      <point x="43" y="37" type="line"/>
      <point x="23" y="83" type="line"/>
      <point x="109" y="210" type="line"/>
      <point x="154" y="194" type="line"/>
      <point x="153" y="143" type="line"/>
      <point x="89" y="46" type="line"/>
    </contour>
    <contour>
      <point x="492" y="46" type="line"/>
      <point x="428" y="143" type="line"/>
      <point x="427" y="194" type="line"/>
      <point x="472" y="210" type="line"/>
      <point x="558" y="83" type="line"/>
      <point x="538" y="37" type="line"/>
    </contour>
    <contour>
      <point x="117" y="231" type="line"/>
      <point x="117" y="483" type="line"/>
      <point x="157" y="497" type="line"/>
      <point x="192" y="476" type="line"/>
      <point x="192" y="238" type="line"/>
      <point x="157" y="217" type="line"/>
    </contour>
    <contour>
      <point x="179" y="145" type="line"/>
      <point x="180" y="199" type="line"/>
      <point x="210" y="220" type="line"/>
      <point x="371" y="220" type="line"/>
      <point x="401" y="199" type="line"/>
      <point x="402" y="145" type="line"/>
    </contour>
    <contour>
      <point x="389" y="238" type="line"/>
      <point x="389" y="476" type="line"/>
      <point x="424" y="497" type="line"/>
      <point x="464" y="483" type="line"/>
      <point x="464" y="231" type="line"/>
      <point x="424" y="217" type="line"/>
    </contour>
    <contour>
      <point x="109" y="504" type="line"/>
      <point x="23" y="631" type="line"/>
      <point x="43" y="677" type="line"/>
      <point x="89" y="668" type="line"/>
      <point x="153" y="571" type="line"/>
      <point x="154" y="520" type="line"/>
    </contour>
    <contour>
      <point x="210" y="494" type="line"/>
      <point x="180" y="515" type="line"/>
      <point x="179" y="569" type="line"/>
      <point x="402" y="569" type="line"/>
      <point x="401" y="515" type="line"/>
      <point x="371" y="494" type="line"/>
    </contour>
    <contour>
      <point x="427" y="520" type="line"/>
      <point x="428" y="571" type="line"/>
      <point x="492" y="668" type="line"/>
      <point x="538" y="677" type="line"/>
      <point x="558" y="631" type="line"/>
      <point x="472" y="504" type="line"/>
    </contour>
  </outline>
</glyph>
<glyph name="yen" format="2">
  <advance width="633"/>
  <unicode hex="00A5"/>
  <outline>
    <contour>
      <point x="141" y="354" type="line"/>
      <point x="122" y="373" type="line"/>
      <point x="122" y="689" type="line"/>
      <point x="197" y="615" type="line"/>
      <point x="197" y="410" type="line"/>
    </contour>
    <contour>
      <point x="476" y="354" type="line"/>
      <point x="420" y="410" type="line"/>
      <point x="420" y="615" type="line"/>
      <point x="495" y="689" type="line"/>
      <point x="495" y="373" type="line"/>
    </contour>
    <contour>
      <point x="169" y="344" type="line"/>
      <point x="207" y="382" type="line"/>
      <point x="412" y="382" type="line"/>
      <point x="450" y="344" type="line"/>
      <point x="412" y="307" type="line"/>
      <point x="207" y="307" type="line"/>
    </contour>
    <contour>
      <point x="50" y="302" type="line"/>
      <point x="13" y="339" type="line"/>
      <point x="50" y="376" type="line"/>
      <point x="108" y="376" type="line"/>
      <point x="108" y="372"/>
      <point x="109" y="365"/>
      <point x="109" y="363" type="qcurve"/>
      <point x="109" y="357" type="line"/>
      <point x="177" y="302" type="line"/>
    </contour>
    <contour>
      <point x="446" y="302" type="line"/>
      <point x="514" y="357" type="line"/>
      <point x="514" y="363" type="line"/>
      <point x="514" y="363"/>
      <point x="514" y="364" type="qcurve"/>
      <point x="514" y="364"/>
      <point x="514" y="364" type="qcurve"/>
      <point x="514" y="364"/>
      <point x="514" y="364" type="qcurve"/>
      <point x="514" y="365" type="line"/>
      <point x="514" y="365"/>
      <point x="514" y="365" type="qcurve"/>
      <point x="514" y="369" type="line" smooth="yes"/>
      <point x="514" y="372"/>
      <point x="515" y="376" type="qcurve"/>
      <point x="573" y="376" type="line"/>
      <point x="610" y="339" type="line"/>
      <point x="573" y="302" type="line"/>
    </contour>
    <contour>
      <point x="326" y="0" type="line"/>
      <point x="270" y="56" type="line"/>
      <point x="270" y="284" type="line"/>
      <point x="345" y="285" type="line"/>
      <point x="345" y="18" type="line"/>
    </contour>
    <contour>
      <point x="50" y="172" type="line"/>
      <point x="13" y="209" type="line"/>
      <point x="50" y="246" type="line"/>
      <point x="249" y="246" type="line"/>
      <point x="249" y="172" type="line"/>
    </contour>
    <contour>
      <point x="374" y="172" type="line"/>
      <point x="374" y="246" type="line"/>
      <point x="573" y="246" type="line"/>
      <point x="610" y="209" type="line"/>
      <point x="573" y="172" type="line"/>
    </contour>
  </outline>
</glyph>
<glyph name="brokenbar" format="2">
  <advance width="145"/>
  <unicode hex="00A6"/>
  <outline>
    <contour>
      <point x="34" y="-126" type="line"/>
      <point x="34" y="187" type="line"/>
      <point x="73" y="231" type="line"/>
      <point x="109" y="191" type="line"/>
      <point x="109" y="-128" type="line"/>
      <point x="73" y="-164" type="line"/>
    </contour>
    <contour>
      <point x="34" y="519" type="line"/>
      <point x="34" y="812" type="line"/>
      <point x="73" y="856" type="line"/>
      <point x="109" y="816" type="line"/>
      <point x="109" y="517" type="line"/>
      <point x="73" y="481" type="line"/>
    </contour>
  </outline>
</glyph>
<glyph name="section" format="2">
  <advance width="430"/>
  <unicode hex="00A7"/>
  <outline>
    <contour>
      <point x="125" y="24" type="line"/>
      <point x="135" y="-12"/>
      <point x="198" y="-46"/>
      <point x="232" y="-46" type="qcurve" smooth="yes"/>
      <point x="247" y="-46"/>
      <point x="276" y="-39"/>
      <point x="300" y="-23"/>
      <point x="314" y="3"/>
      <point x="314" y="21" type="qcurve" smooth="yes"/>
      <point x="314" y="43"/>
      <point x="291" y="72"/>
      <point x="255" y="91"/>
      <point x="212" y="102"/>
      <point x="192" y="105" type="qcurve"/>
      <point x="180" y="108" type="line" smooth="yes"/>
      <point x="172" y="110"/>
      <point x="154" y="113"/>
      <point x="147" y="115" type="qcurve"/>
      <point x="95" y="136"/>
      <point x="28" y="219"/>
      <point x="28" y="280" type="qcurve" smooth="yes"/>
      <point x="28" y="313"/>
      <point x="49" y="377"/>
      <point x="78" y="403" type="qcurve"/>
      <point x="55" y="429"/>
      <point x="32" y="492"/>
      <point x="32" y="521" type="qcurve" smooth="yes"/>
      <point x="32" y="559"/>
      <point x="60" y="617"/>
      <point x="108" y="657"/>
      <point x="170" y="678"/>
      <point x="204" y="678" type="qcurve" smooth="yes"/>
      <point x="240" y="678"/>
      <point x="309" y="656"/>
      <point x="365" y="615"/>
      <point x="405" y="556"/>
      <point x="413" y="519" type="qcurve"/>
      <point x="311" y="519" type="line"/>
      <point x="300" y="548"/>
      <point x="245" y="582"/>
      <point x="216" y="582" type="qcurve" smooth="yes"/>
      <point x="202" y="582"/>
      <point x="172" y="575"/>
      <point x="148" y="558"/>
      <point x="132" y="533"/>
      <point x="132" y="515" type="qcurve" smooth="yes"/>
      <point x="132" y="494"/>
      <point x="150" y="467"/>
      <point x="181" y="449"/>
      <point x="221" y="438"/>
      <point x="243" y="433" type="qcurve" smooth="yes"/>
      <point x="271" y="426"/>
      <point x="331" y="408"/>
      <point x="380" y="372"/>
      <point x="411" y="312"/>
      <point x="411" y="263" type="qcurve" smooth="yes"/>
      <point x="411" y="229"/>
      <point x="382" y="163"/>
      <point x="353" y="137" type="qcurve"/>
      <point x="378" y="114"/>
      <point x="414" y="49"/>
      <point x="414" y="21" type="qcurve" smooth="yes"/>
      <point x="414" y="-18"/>
      <point x="386" y="-79"/>
      <point x="338" y="-120"/>
      <point x="274" y="-142"/>
      <point x="239" y="-142" type="qcurve" smooth="yes"/>
      <point x="201" y="-142"/>
      <point x="130" y="-119"/>
      <point x="73" y="-76"/>
      <point x="32" y="-15"/>
      <point x="24" y="24" type="qcurve"/>
    </contour>
    <contour>
      <point x="127" y="277" type="qcurve" smooth="yes"/>
      <point x="127" y="257"/>
      <point x="147" y="226"/>
      <point x="176" y="205"/>
      <point x="211" y="195"/>
      <point x="226" y="195" type="qcurve" smooth="yes"/>
      <point x="241" y="195"/>
      <point x="271" y="204"/>
      <point x="296" y="222"/>
      <point x="311" y="249"/>
      <point x="311" y="267" type="qcurve" smooth="yes"/>
      <point x="311" y="290"/>
      <point x="288" y="319"/>
      <point x="254" y="335"/>
      <point x="215" y="341"/>
      <point x="199" y="341" type="qcurve" smooth="yes"/>
      <point x="186" y="341"/>
      <point x="160" y="334"/>
      <point x="140" y="318"/>
      <point x="127" y="294"/>
    </contour>
  </outline>
</glyph>
<glyph name="copyright" format="2">
  <advance width="411"/>
  <unicode hex="00A9"/>
  <outline>
    <contour>
      <point x="12" y="491" type="qcurve" smooth="yes"/>
      <point x="12" y="531"/>
      <point x="42" y="601"/>
      <point x="95" y="653"/>
      <point x="165" y="684"/>
      <point x="205" y="684" type="qcurve" smooth="yes"/>
      <point x="245" y="684"/>
      <point x="315" y="653"/>
      <point x="367" y="601"/>
      <point x="398" y="531"/>
      <point x="398" y="491" type="qcurve" smooth="yes"/>
      <point x="398" y="451"/>
      <point x="367" y="381"/>
      <point x="315" y="329"/>
      <point x="245" y="299"/>
      <point x="205" y="299" type="qcurve" smooth="yes"/>
      <point x="165" y="299"/>
      <point x="95" y="329"/>
      <point x="42" y="381"/>
      <point x="12" y="451"/>
    </contour>
    <contour>
      <point x="57" y="491" type="qcurve" smooth="yes"/>
      <point x="57" y="460"/>
      <point x="80" y="406"/>
      <point x="120" y="366"/>
      <point x="174" y="343"/>
      <point x="205" y="343" type="qcurve" smooth="yes"/>
      <point x="236" y="343"/>
      <point x="290" y="366"/>
      <point x="330" y="406"/>
      <point x="353" y="460"/>
      <point x="353" y="491" type="qcurve" smooth="yes"/>
      <point x="353" y="522"/>
      <point x="330" y="576"/>
      <point x="290" y="616"/>
      <point x="236" y="639"/>
      <point x="205" y="639" type="qcurve" smooth="yes"/>
      <point x="174" y="639"/>
      <point x="120" y="616"/>
      <point x="80" y="576"/>
      <point x="57" y="522"/>
    </contour>
    <contour>
      <point x="277" y="576" type="qcurve"/>
      <point x="241" y="547" type="line"/>
      <point x="225" y="558"/>
      <point x="205" y="558" type="qcurve" smooth="yes"/>
      <point x="177" y="558"/>
      <point x="139" y="518"/>
      <point x="139" y="491" type="qcurve" smooth="yes"/>
      <point x="139" y="463"/>
      <point x="177" y="425"/>
      <point x="205" y="425" type="qcurve" smooth="yes"/>
      <point x="235" y="425"/>
      <point x="254" y="447" type="qcurve"/>
      <point x="288" y="418" type="line"/>
      <point x="273" y="400"/>
      <point x="229" y="380"/>
      <point x="205" y="380" type="qcurve" smooth="yes"/>
      <point x="182" y="380"/>
      <point x="142" y="398"/>
      <point x="112" y="428"/>
      <point x="94" y="468"/>
      <point x="94" y="491" type="qcurve" smooth="yes"/>
      <point x="94" y="514"/>
      <point x="112" y="554"/>
      <point x="142" y="584"/>
      <point x="182" y="602"/>
      <point x="205" y="602" type="qcurve" smooth="yes"/>
      <point x="245" y="602"/>
    </contour>
  </outline>
</glyph>
<glyph name="ordfeminine" format="2">
  <advance width="350"/>
  <unicode hex="00AA"/>
  <outline>
    <contour>
      <point x="21" y="333" type="line"/>
      <point x="21" y="470" type="line"/>
      <point x="37" y="486" type="line"/>
      <point x="85" y="439" type="line"/>
      <point x="85" y="366" type="line"/>
      <point x="37" y="318" type="line"/>
    </contour>
    <contour>
      <point x="61" y="494" type="line"/>
      <point x="93" y="527" type="line"/>
      <point x="257" y="527" type="line"/>
      <point x="289" y="494" type="line"/>
      <point x="257" y="463" type="line"/>
      <point x="93" y="463" type="line"/>
    </contour>
    <contour>
      <point x="53" y="302" type="line"/>
      <point x="102" y="350" type="line"/>
      <point x="248" y="350" type="line"/>
      <point x="308" y="286" type="line"/>
      <point x="70" y="286" type="line"/>
    </contour>
    <contour>
      <point x="329" y="297" type="line"/>
      <point x="265" y="366" type="line"/>
      <point x="265" y="439" type="line"/>
      <point x="314" y="486" type="line"/>
      <point x="329" y="470" type="line"/>
    </contour>
    <contour>
      <point x="84" y="621" type="line"/>
      <point x="20" y="685" type="line"/>
      <point x="281" y="685" type="line"/>
      <point x="297" y="669" type="line"/>
      <point x="248" y="621" type="line"/>
    </contour>
    <contour>
      <point x="265" y="550" type="line"/>
      <point x="265" y="605" type="line"/>
      <point x="314" y="653" type="line"/>
      <point x="329" y="637" type="line"/>
      <point x="329" y="518" type="line"/>
      <point x="314" y="503" type="line"/>
    </contour>
  </outline>
</glyph>
<glyph name="uni00AD" format="2">
  <advance width="329"/>
  <unicode hex="00AD"/>
  <outline>
    <contour>
      <point x="61" y="302" type="line"/>
      <point x="24" y="339" type="line"/>
      <point x="61" y="376" type="line"/>
      <point x="270" y="376" type="line"/>
      <point x="307" y="339" type="line"/>
      <point x="270" y="302" type="line"/>
    </contour>
  </outline>
</glyph>
<glyph name="registered" format="2">
  <advance width="490"/>
  <unicode hex="00AE"/>
  <outline>
    <contour>
      <point x="24" y="456" type="qcurve" smooth="yes"/>
      <point x="24" y="503"/>
      <point x="59" y="585"/>
      <point x="121" y="646"/>
      <point x="203" y="681"/>
      <point x="251" y="681" type="qcurve" smooth="yes"/>
      <point x="298" y="681"/>
      <point x="380" y="646"/>
      <point x="440" y="585"/>
      <point x="475" y="503"/>
      <point x="475" y="456" type="qcurve" smooth="yes"/>
      <point x="475" y="410"/>
      <point x="440" y="329"/>
      <point x="380" y="268"/>
      <point x="298" y="232"/>
      <point x="251" y="232" type="qcurve" smooth="yes"/>
      <point x="203" y="232"/>
      <point x="121" y="268"/>
      <point x="59" y="329"/>
      <point x="24" y="410"/>
    </contour>
    <contour>
      <point x="81" y="456" type="qcurve" smooth="yes"/>
      <point x="81" y="423"/>
      <point x="109" y="361"/>
      <point x="156" y="315"/>
      <point x="217" y="287"/>
      <point x="251" y="287" type="qcurve" smooth="yes"/>
      <point x="284" y="287"/>
      <point x="346" y="315"/>
      <point x="392" y="361"/>
      <point x="420" y="423"/>
      <point x="420" y="456" type="qcurve" smooth="yes"/>
      <point x="420" y="490"/>
      <point x="392" y="551"/>
      <point x="346" y="598"/>
      <point x="284" y="626"/>
      <point x="251" y="626" type="qcurve" smooth="yes"/>
      <point x="217" y="626"/>
      <point x="156" y="598"/>
      <point x="109" y="551"/>
      <point x="81" y="490"/>
    </contour>
    <contour>
      <point x="144" y="352" type="line"/>
      <point x="193" y="579" type="line"/>
      <point x="286" y="579" type="line" smooth="yes"/>
      <point x="318" y="579"/>
      <point x="359" y="540"/>
      <point x="359" y="508" type="qcurve" smooth="yes"/>
      <point x="359" y="478"/>
      <point x="325" y="432"/>
      <point x="299" y="424" type="qcurve"/>
      <point x="330" y="352" type="line"/>
      <point x="275" y="352" type="line"/>
      <point x="246" y="417" type="line"/>
      <point x="207" y="417" type="line"/>
      <point x="193" y="352" type="line"/>
    </contour>
    <contour>
      <point x="217" y="465" type="line"/>
      <point x="274" y="465" type="line" smooth="yes"/>
      <point x="290" y="465"/>
      <point x="310" y="487"/>
      <point x="310" y="502" type="qcurve" smooth="yes"/>
      <point x="310" y="515"/>
      <point x="293" y="532"/>
      <point x="279" y="532" type="qcurve" smooth="yes"/>
      <point x="231" y="532" type="line"/>
    </contour>
  </outline>
</glyph>
<glyph name="degree" format="2">
  <advance width="358"/>
  <unicode hex="00B0"/>
  <outline>
    <contour>
      <point x="15" y="548" type="qcurve" smooth="yes"/>
      <point x="15" y="581"/>
      <point x="40" y="639"/>
      <point x="83" y="682"/>
      <point x="142" y="707"/>
      <point x="176" y="707" type="qcurve" smooth="yes"/>
      <point x="209" y="707"/>
      <point x="267" y="682"/>
      <point x="310" y="639"/>
      <point x="335" y="581"/>
      <point x="335" y="548" type="qcurve" smooth="yes"/>
      <point x="335" y="515"/>
      <point x="310" y="457"/>
      <point x="267" y="414"/>
      <point x="209" y="388"/>
      <point x="176" y="388" type="qcurve" smooth="yes"/>
      <point x="142" y="388"/>
      <point x="83" y="414"/>
      <point x="40" y="457"/>
      <point x="15" y="515"/>
    </contour>
    <contour>
      <point x="81" y="548" type="qcurve" smooth="yes"/>
      <point x="81" y="529"/>
      <point x="96" y="495"/>
      <point x="122" y="469"/>
      <point x="157" y="454"/>
      <point x="176" y="454" type="qcurve" smooth="yes"/>
      <point x="195" y="454"/>
      <point x="229" y="469"/>
      <point x="255" y="495"/>
      <point x="270" y="529"/>
      <point x="270" y="548" type="qcurve" smooth="yes"/>
      <point x="270" y="567"/>
      <point x="255" y="601"/>
      <point x="229" y="627"/>
      <point x="195" y="642"/>
      <point x="176" y="642" type="qcurve" smooth="yes"/>
      <point x="157" y="642"/>
      <point x="122" y="627"/>
      <point x="96" y="601"/>
      <point x="81" y="567"/>
    </contour>
  </outline>
</glyph>
<glyph name="plusminus" format="2">
  <advance width="413"/>
  <unicode hex="00B1"/>
  <outline>
    <contour>
      <point x="58" y="117" type="line"/>
      <point x="21" y="154" type="line"/>
      <point x="58" y="191" type="line"/>
      <point x="349" y="191" type="line"/>
      <point x="386" y="154" type="line"/>
      <point x="349" y="117" type="line"/>
    </contour>
    <contour>
      <point x="61" y="381" type="line"/>
      <point x="24" y="418" type="line"/>
      <point x="61" y="455" type="line"/>
      <point x="153" y="455" type="line"/>
      <point x="191" y="418" type="line"/>
      <point x="153" y="381" type="line"/>
    </contour>
    <contour>
      <point x="201" y="432" type="line"/>
      <point x="173" y="460" type="line"/>
      <point x="173" y="568" type="line"/>
      <point x="210" y="606" type="line"/>
      <point x="248" y="568" type="line"/>
      <point x="248" y="479" type="line"/>
    </contour>
    <contour>
      <point x="173" y="285" type="line"/>
      <point x="173" y="375" type="line"/>
      <point x="201" y="404" type="line"/>
      <point x="248" y="357" type="line"/>
      <point x="248" y="285" type="line"/>
      <point x="210" y="247" type="line"/>
    </contour>
    <contour>
      <point x="252" y="381" type="line"/>
      <point x="215" y="418" type="line"/>
      <point x="252" y="455" type="line"/>
      <point x="344" y="455" type="line"/>
      <point x="382" y="418" type="line"/>
      <point x="344" y="381" type="line"/>
    </contour>
  </outline>
</glyph>
<glyph name="acute" format="2">
  <advance width="181"/>
  <unicode hex="00B4"/>
  <outline>
    <contour>
      <point x="20" y="749" type="line"/>
      <point x="106" y="851" type="line"/>
      <point x="157" y="851" type="line"/>
      <point x="155" y="795" type="line"/>
      <point x="53" y="723" type="line"/>
    </contour>
  </outline>
</glyph>
<glyph name="paragraph" format="2">
  <advance width="641"/>
  <unicode hex="00B6"/>
  <outline>
    <contour>
      <point x="264" y="-128" type="line"/>
      <point x="264" y="279" type="line"/>
      <point x="320" y="335" type="line"/>
      <point x="339" y="316" type="line"/>
      <point x="339" y="-202" type="line"/>
    </contour>
    <contour>
      <point x="460" y="-128" type="line"/>
      <point x="460" y="279" type="line"/>
      <point x="516" y="335" type="line"/>
      <point x="535" y="316" type="line"/>
      <point x="535" y="-202" type="line"/>
    </contour>
    <contour>
      <point x="37" y="372" type="line"/>
      <point x="37" y="633" type="line"/>
      <point x="56" y="652" type="line"/>
      <point x="112" y="596" type="line"/>
      <point x="112" y="409" type="line"/>
      <point x="56" y="354" type="line"/>
    </contour>
    <contour>
      <point x="83" y="344" type="line"/>
      <point x="121" y="382" type="line"/>
      <point x="255" y="382" type="line"/>
      <point x="293" y="344" type="line"/>
      <point x="255" y="307" type="line"/>
      <point x="121" y="307" type="line"/>
    </contour>
    <contour>
      <point x="320" y="354" type="line"/>
      <point x="264" y="410" type="line"/>
      <point x="264" y="596" type="line"/>
      <point x="339" y="596" type="line"/>
      <point x="339" y="372" type="line"/>
    </contour>
    <contour>
      <point x="74" y="670" type="line"/>
      <point x="93" y="689" type="line"/>
      <point x="621" y="689" type="line"/>
      <point x="547" y="615" type="line"/>
      <point x="130" y="615" type="line"/>
    </contour>
    <contour>
      <point x="516" y="354" type="line"/>
      <point x="460" y="410" type="line"/>
      <point x="460" y="593" type="line"/>
      <point x="535" y="593" type="line"/>
      <point x="535" y="372" type="line"/>
    </contour>
  </outline>
</glyph>
<glyph name="periodcentered" format="2">
  <advance width="140"/>
  <unicode hex="00B7"/>
  <outline>
    <contour>
      <point x="26" y="333" type="line"/>
      <point x="26" y="423" type="line"/>
      <point x="117" y="423" type="line"/>
      <point x="117" y="333" type="line"/>
    </contour>
  </outline>
</glyph>
<glyph name="cedilla" format="2">
  <advance width="218"/>
  <unicode hex="00B8"/>
  <outline>
    <contour>
      <point x="31" y="-200" type="line"/>
      <point x="73" y="-148" type="line"/>
      <point x="149" y="-148" type="line"/>
      <point x="149" y="-81" type="line"/>
      <point x="62" y="-80" type="line"/>
      <point x="29" y="-68" type="line"/>
      <point x="29" y="6" type="line"/>
      <point x="85" y="6" type="line"/>
      <point x="85" y="-45" type="line"/>
      <point x="178" y="-45" type="line"/>
      <point x="204" y="-93" type="line"/>
      <point x="204" y="-160" type="line"/>
      <point x="162" y="-200" type="line"/>
    </contour>
  </outline>
</glyph>
<glyph name="ordmasculine" format="2">
  <advance width="376"/>
  <unicode hex="00BA"/>
  <outline>
    <contour>
      <point x="292" y="605" type="line"/>
      <point x="341" y="653" type="line"/>
      <point x="356" y="637" type="line"/>
      <point x="356" y="334" type="line"/>
      <point x="341" y="318" type="line"/>
      <point x="292" y="366" type="line"/>
    </contour>
    <contour>
      <point x="86" y="366" type="line"/>
      <point x="37" y="318" type="line"/>
      <point x="22" y="334" type="line"/>
      <point x="22" y="637" type="line"/>
      <point x="37" y="653" type="line"/>
      <point x="86" y="605" type="line"/>
    </contour>
    <contour>
      <point x="275" y="350" type="line"/>
      <point x="324" y="302" type="line"/>
      <point x="308" y="286" type="line"/>
      <point x="70" y="286" type="line"/>
      <point x="54" y="302" type="line"/>
      <point x="103" y="350" type="line"/>
    </contour>
    <contour>
      <point x="103" y="621" type="line"/>
      <point x="54" y="669" type="line"/>
      <point x="70" y="685" type="line"/>
      <point x="308" y="685" type="line"/>
      <point x="324" y="669" type="line"/>
      <point x="275" y="621" type="line"/>
    </contour>
  </outline>
</glyph>
<glyph name="questiondown" format="2">
  <advance width="414"/>
  <unicode hex="00BF"/>
  <outline>
    <contour>
      <point x="42" y="37" type="line"/>
      <point x="24" y="55" type="line"/>
      <point x="24" y="316" type="line"/>
      <point x="42" y="335" type="line"/>
      <point x="98" y="279" type="line"/>
      <point x="98" y="93" type="line"/>
    </contour>
    <contour>
      <point x="80" y="0" type="line"/>
      <point x="61" y="18" type="line"/>
      <point x="117" y="74" type="line"/>
      <point x="301" y="74" type="line"/>
      <point x="375" y="0" type="line"/>
    </contour>
    <contour>
      <point x="70" y="345" type="line"/>
      <point x="107" y="382" type="line"/>
      <point x="189" y="382" type="line"/>
      <point x="226" y="345" type="line"/>
      <point x="189" y="307" type="line"/>
      <point x="107" y="307" type="line"/>
    </contour>
    <contour>
      <point x="254" y="354" type="line"/>
      <point x="198" y="410" type="line"/>
      <point x="198" y="532" type="line"/>
      <point x="254" y="587" type="line"/>
      <point x="272" y="569" type="line"/>
      <point x="272" y="372" type="line"/>
    </contour>
    <contour>
      <point x="198" y="689" type="line"/>
      <point x="272" y="689" type="line"/>
      <point x="272" y="616" type="line"/>
      <point x="198" y="616" type="line"/>
    </contour>
  </outline>
</glyph>
<glyph name="Agrave" format="2">
  <advance width="447"/>
  <unicode hex="00C0"/>
  <outline>
    <contour>
      <point x="37" y="0" type="line"/>
      <point x="37" y="316" type="line"/>
      <point x="56" y="335" type="line"/>
      <point x="111" y="279" type="line"/>
      <point x="111" y="74" type="line"/>
    </contour>
    <contour>
      <point x="120" y="307" type="line"/>
      <point x="83" y="344" type="line"/>
      <point x="120" y="382" type="line"/>
      <point x="326" y="382" type="line"/>
      <point x="363" y="344" type="line"/>
      <point x="326" y="307" type="line"/>
    </contour>
    <contour>
      <point x="335" y="74" type="line"/>
      <point x="335" y="279" type="line"/>
      <point x="391" y="335" type="line"/>
      <point x="409" y="316" type="line"/>
      <point x="409" y="0" type="line"/>
    </contour>
    <contour>
      <point x="55" y="354" type="line"/>
      <point x="37" y="372" type="line"/>
      <point x="37" y="670" type="line"/>
      <point x="111" y="596" type="line"/>
      <point x="111" y="409" type="line"/>
    </contour>
    <contour>
      <point x="130" y="614" type="line"/>
      <point x="55" y="689" type="line"/>
      <point x="391" y="689" type="line"/>
      <point x="316" y="614" type="line"/>
    </contour>
    <contour>
      <point x="335" y="409" type="line"/>
      <point x="335" y="596" type="line"/>
      <point x="409" y="670" type="line"/>
      <point x="409" y="372" type="line"/>
      <point x="391" y="354" type="line"/>
    </contour>
    <contour>
      <point x="157" y="795" type="line"/>
      <point x="155" y="851" type="line"/>
      <point x="206" y="851" type="line"/>
      <point x="292" y="749" type="line"/>
      <point x="259" y="723" type="line"/>
    </contour>
  </outline>
</glyph>
<glyph name="Acircumflex" format="2">
  <advance width="447"/>
  <unicode hex="00C2"/>
  <outline>
    <contour>
      <point x="37" y="0" type="line"/>
      <point x="37" y="316" type="line"/>
      <point x="56" y="335" type="line"/>
      <point x="111" y="279" type="line"/>
      <point x="111" y="74" type="line"/>
    </contour>
    <contour>
      <point x="120" y="307" type="line"/>
      <point x="83" y="344" type="line"/>
      <point x="120" y="382" type="line"/>
      <point x="326" y="382" type="line"/>
      <point x="363" y="344" type="line"/>
      <point x="326" y="307" type="line"/>
    </contour>
    <contour>
      <point x="335" y="74" type="line"/>
      <point x="335" y="279" type="line"/>
      <point x="391" y="335" type="line"/>
      <point x="409" y="316" type="line"/>
      <point x="409" y="0" type="line"/>
    </contour>
    <contour>
      <point x="55" y="354" type="line"/>
      <point x="37" y="372" type="line"/>
      <point x="37" y="670" type="line"/>
      <point x="111" y="596" type="line"/>
      <point x="111" y="409" type="line"/>
    </contour>
    <contour>
      <point x="96" y="749" type="line"/>
      <point x="182" y="851" type="line"/>
      <point x="262" y="851" type="line"/>
      <point x="348" y="749" type="line"/>
      <point x="315" y="723" type="line"/>
      <point x="222" y="788" type="line"/>
      <point x="129" y="723" type="line"/>
    </contour>
    <contour>
      <point x="130" y="614" type="line"/>
      <point x="55" y="689" type="line"/>
      <point x="391" y="689" type="line"/>
      <point x="316" y="614" type="line"/>
    </contour>
    <contour>
      <point x="335" y="409" type="line"/>
      <point x="335" y="596" type="line"/>
      <point x="409" y="670" type="line"/>
      <point x="409" y="372" type="line"/>
      <point x="391" y="354" type="line"/>
    </contour>
  </outline>
</glyph>
<glyph name="Otilde" format="2">
  <advance width="447"/>
  <unicode hex="00D5"/>
  <outline>
    <contour>
      <point x="38" y="56" type="line"/>
      <point x="38" y="317" type="line"/>
      <point x="57" y="336" type="line"/>
      <point x="113" y="280" type="line"/>
      <point x="113" y="93" type="line"/>
      <point x="57" y="38" type="line"/>
    </contour>
    <contour>
      <point x="94" y="0" type="line"/>
      <point x="75" y="19" type="line"/>
      <point x="131" y="75" type="line"/>
      <point x="318" y="75" type="line"/>
      <point x="373" y="19" type="line"/>
      <point x="355" y="0" type="line"/>
    </contour>
    <contour>
      <point x="336" y="93" type="line"/>
      <point x="336" y="280" type="line"/>
      <point x="392" y="336" type="line"/>
      <point x="411" y="317" type="line"/>
      <point x="411" y="56" type="line"/>
      <point x="392" y="38" type="line"/>
    </contour>
    <contour>
      <point x="57" y="354" type="line"/>
      <point x="38" y="373" type="line"/>
      <point x="38" y="634" type="line"/>
      <point x="57" y="652" type="line"/>
      <point x="113" y="597" type="line"/>
      <point x="113" y="410" type="line"/>
    </contour>
    <contour>
      <point x="131" y="615" type="line"/>
      <point x="75" y="671" type="line"/>
      <point x="94" y="690" type="line"/>
      <point x="355" y="690" type="line"/>
      <point x="373" y="671" type="line"/>
      <point x="318" y="615" type="line"/>
    </contour>
    <contour>
      <point x="392" y="354" type="line"/>
      <point x="336" y="410" type="line"/>
      <point x="336" y="596" type="line"/>
      <point x="392" y="652" type="line"/>
      <point x="411" y="634" type="line"/>
      <point x="411" y="373" type="line"/>
    </contour>
    <contour>
      <point x="97" y="750" type="line"/>
      <point x="183" y="852" type="line"/>
      <point x="237" y="852" type="line"/>
      <point x="277" y="806" type="line"/>
      <point x="343" y="852" type="line"/>
      <point x="376" y="826" type="line"/>
      <point x="290" y="724" type="line"/>
      <point x="210" y="780" type="line"/>
      <point x="130" y="724" type="line"/>
    </contour>
  </outline>
</glyph>
<glyph name="multiply" format="2">
  <advance width="375"/>
  <unicode hex="00D7"/>
  <outline>
    <contour>
      <point x="30" y="212" type="line"/>
      <point x="30" y="264" type="line"/>
      <point x="127" y="362" type="line"/>
      <point x="180" y="362" type="line"/>
      <point x="180" y="309" type="line"/>
      <point x="83" y="212" type="line"/>
    </contour>
    <contour>
      <point x="127" y="381" type="line"/>
      <point x="30" y="479" type="line"/>
      <point x="30" y="531" type="line"/>
      <point x="83" y="531" type="line"/>
      <point x="180" y="434" type="line"/>
      <point x="180" y="381" type="line"/>
    </contour>
    <contour>
      <point x="197" y="381" type="line"/>
      <point x="197" y="433" type="line"/>
      <point x="294" y="531" type="line"/>
      <point x="347" y="531" type="line"/>
      <point x="347" y="478" type="line"/>
      <point x="250" y="381" type="line"/>
    </contour>
    <contour>
      <point x="294" y="212" type="line"/>
      <point x="197" y="310" type="line"/>
      <point x="197" y="362" type="line"/>
      <point x="250" y="362" type="line"/>
      <point x="347" y="265" type="line"/>
      <point x="347" y="212" type="line"/>
    </contour>
  </outline>
</glyph>
<glyph name="Oslash" format="2">
  <advance width="447"/>
  <unicode hex="00D8"/>
  <outline>
    <contour>
      <point x="38" y="56" type="line"/>
      <point x="38" y="317" type="line"/>
      <point x="57" y="336" type="line"/>
      <point x="113" y="280" type="line"/>
      <point x="113" y="93" type="line"/>
      <point x="57" y="38" type="line"/>
    </contour>
    <contour>
      <point x="94" y="0" type="line"/>
      <point x="75" y="19" type="line"/>
      <point x="131" y="75" type="line"/>
      <point x="318" y="75" type="line"/>
      <point x="373" y="19" type="line"/>
      <point x="355" y="0" type="line"/>
    </contour>
    <contour>
      <point x="131" y="156" type="line"/>
      <point x="131" y="282" type="line"/>
      <point x="106" y="307" type="line"/>
      <point x="117" y="325" type="line"/>
      <point x="169" y="352" type="line"/>
      <point x="188" y="301" type="line"/>
    </contour>
    <contour>
      <point x="336" y="93" type="line"/>
      <point x="336" y="280" type="line"/>
      <point x="392" y="336" type="line"/>
      <point x="411" y="317" type="line"/>
      <point x="411" y="56" type="line"/>
      <point x="392" y="38" type="line"/>
    </contour>
    <contour>
      <point x="57" y="354" type="line"/>
      <point x="38" y="373" type="line"/>
      <point x="38" y="634" type="line"/>
      <point x="57" y="652" type="line"/>
      <point x="113" y="597" type="line"/>
      <point x="113" y="410" type="line"/>
    </contour>
    <contour>
      <point x="131" y="615" type="line"/>
      <point x="75" y="671" type="line"/>
      <point x="94" y="690" type="line"/>
      <point x="355" y="690" type="line"/>
      <point x="373" y="671" type="line"/>
      <point x="318" y="615" type="line"/>
    </contour>
    <contour>
      <point x="175" y="366" type="line"/>
      <point x="152" y="415" type="line"/>
      <point x="225" y="601" type="line"/>
      <point x="225" y="593" type="line"/>
      <point x="303" y="593" type="line"/>
      <point x="221" y="386" type="line"/>
    </contour>
    <contour>
      <point x="392" y="354" type="line"/>
      <point x="336" y="410" type="line"/>
      <point x="336" y="596" type="line"/>
      <point x="392" y="652" type="line"/>
      <point x="411" y="634" type="line"/>
      <point x="411" y="373" type="line"/>
    </contour>
    <contour>
      <point x="266" y="706" type="line"/>
      <point x="306" y="807" type="line"/>
      <point x="359" y="834" type="line"/>
      <point x="378" y="783" type="line"/>
      <point x="347" y="706" type="line"/>
    </contour>
    <contour>
      <point x="-15" y="-115" type="line"/>
      <point x="-37" y="-66" type="line"/>
      <point x="21" y="81" type="line"/>
      <point x="21" y="39" type="line"/>
      <point x="66" y="-7" type="line"/>
      <point x="32" y="-95" type="line"/>
    </contour>
  </outline>
</glyph>
<glyph name="Yacute" format="2">
  <advance width="447"/>
  <unicode hex="00DD"/>
  <outline>
    <contour>
      <point x="37" y="0" type="line"/>
      <point x="112" y="74" type="line"/>
      <point x="317" y="74" type="line"/>
      <point x="373" y="18" type="line"/>
      <point x="354" y="0" type="line"/>
    </contour>
    <contour>
      <point x="391" y="37" type="line"/>
      <point x="335" y="93" type="line"/>
      <point x="335" y="279" type="line"/>
      <point x="391" y="335" type="line"/>
      <point x="410" y="317" type="line"/>
      <point x="410" y="56" type="line"/>
    </contour>
    <contour>
      <point x="55" y="354" type="line"/>
      <point x="37" y="372" type="line"/>
      <point x="37" y="689" type="line"/>
      <point x="111" y="614" type="line"/>
      <point x="111" y="409" type="line"/>
    </contour>
    <contour>
      <point x="120" y="307" type="line"/>
      <point x="83" y="344" type="line"/>
      <point x="120" y="382" type="line"/>
      <point x="326" y="382" type="line"/>
      <point x="363" y="344" type="line"/>
      <point x="326" y="307" type="line"/>
    </contour>
    <contour>
      <point x="391" y="354" type="line"/>
      <point x="335" y="410" type="line"/>
      <point x="335" y="615" type="line"/>
      <point x="410" y="689" type="line"/>
      <point x="410" y="373" type="line"/>
    </contour>
    <contour>
      <point x="155" y="749" type="line"/>
      <point x="241" y="851" type="line"/>
      <point x="292" y="851" type="line"/>
      <point x="290" y="795" type="line"/>
      <point x="188" y="723" type="line"/>
    </contour>
  </outline>
</glyph>
<glyph name="atilde" format="2">
  <advance width="447"/>
  <unicode hex="00E3"/>
  <outline>
    <contour>
      <point x="37" y="0" type="line"/>
      <point x="37" y="316" type="line"/>
      <point x="56" y="335" type="line"/>
      <point x="111" y="279" type="line"/>
      <point x="111" y="74" type="line"/>
    </contour>
    <contour>
      <point x="120" y="307" type="line"/>
      <point x="83" y="344" type="line"/>
      <point x="120" y="382" type="line"/>
      <point x="326" y="382" type="line"/>
      <point x="363" y="344" type="line"/>
      <point x="326" y="307" type="line"/>
    </contour>
    <contour>
      <point x="335" y="74" type="line"/>
      <point x="335" y="279" type="line"/>
      <point x="391" y="335" type="line"/>
      <point x="409" y="316" type="line"/>
      <point x="409" y="0" type="line"/>
    </contour>
    <contour>
      <point x="55" y="354" type="line"/>
      <point x="37" y="372" type="line"/>
      <point x="37" y="670" type="line"/>
      <point x="111" y="596" type="line"/>
      <point x="111" y="409" type="line"/>
    </contour>
    <contour>
      <point x="130" y="614" type="line"/>
      <point x="55" y="689" type="line"/>
      <point x="391" y="689" type="line"/>
      <point x="316" y="614" type="line"/>
    </contour>
    <contour>
      <point x="335" y="409" type="line"/>
      <point x="335" y="596" type="line"/>
      <point x="409" y="670" type="line"/>
      <point x="409" y="372" type="line"/>
      <point x="391" y="354" type="line"/>
    </contour>
    <contour>
      <point x="97" y="750" type="line"/>
      <point x="183" y="852" type="line"/>
      <point x="237" y="852" type="line"/>
      <point x="277" y="806" type="line"/>
      <point x="343" y="852" type="line"/>
      <point x="376" y="826" type="line"/>
      <point x="290" y="724" type="line"/>
      <point x="210" y="780" type="line"/>
      <point x="130" y="724" type="line"/>
    </contour>
  </outline>
</glyph>
<glyph name="ae" format="2">
  <advance width="747"/>
  <unicode hex="00E6"/>
  <outline>
    <contour>
      <point x="37" y="0" type="line"/>
      <point x="37" y="316" type="line"/>
      <point x="56" y="335" type="line"/>
      <point x="111" y="279" type="line"/>
      <point x="111" y="74" type="line"/>
    </contour>
    <contour>
      <point x="364" y="19" type="line"/>
      <point x="364" y="317" type="line"/>
      <point x="383" y="336" type="line"/>
      <point x="438" y="280" type="line"/>
      <point x="438" y="94" type="line"/>
    </contour>
    <contour>
      <point x="383" y="0" type="line"/>
      <point x="457" y="75" type="line"/>
      <point x="643" y="75" type="line"/>
      <point x="718" y="0" type="line"/>
    </contour>
    <contour>
      <point x="55" y="354" type="line"/>
      <point x="37" y="372" type="line"/>
      <point x="37" y="670" type="line"/>
      <point x="111" y="596" type="line"/>
      <point x="111" y="409" type="line"/>
    </contour>
    <contour>
      <point x="120" y="307" type="line"/>
      <point x="83" y="344" type="line"/>
      <point x="120" y="382" type="line"/>
      <point x="326" y="382" type="line"/>
      <point x="363" y="344" type="line"/>
      <point x="326" y="307" type="line"/>
    </contour>
    <contour>
      <point x="447" y="308" type="line"/>
      <point x="410" y="345" type="line"/>
      <point x="447" y="382" type="line"/>
      <point x="653" y="382" type="line"/>
      <point x="690" y="345" type="line"/>
      <point x="653" y="308" type="line"/>
    </contour>
    <contour>
      <point x="130" y="614" type="line"/>
      <point x="55" y="689" type="line"/>
      <point x="718" y="690" type="line"/>
      <point x="643" y="615" type="line"/>
      <point x="515" y="615" type="line"/>
      <point x="516" y="614" type="line"/>
    </contour>
    <contour>
      <point x="383" y="354" type="line"/>
      <point x="364" y="373" type="line"/>
      <point x="364" y="595" type="line"/>
      <point x="438" y="595" type="line"/>
      <point x="438" y="410" type="line"/>
    </contour>
  </outline>
</glyph>
<glyph name="ccedilla" format="2">
  <advance width="405"/>
  <unicode hex="00E7"/>
  <outline>
    <contour>
      <point x="55" y="36" type="line"/>
      <point x="37" y="54" type="line"/>
      <point x="37" y="315" type="line"/>
      <point x="55" y="334" type="line"/>
      <point x="111" y="278" type="line"/>
      <point x="111" y="92" type="line"/>
    </contour>
    <contour>
      <point x="55" y="353" type="line"/>
      <point x="37" y="371" type="line"/>
      <point x="37" y="632" type="line"/>
      <point x="55" y="651" type="line"/>
      <point x="111" y="595" type="line"/>
      <point x="111" y="409" type="line"/>
    </contour>
    <contour>
      <point x="130" y="614" type="line"/>
      <point x="74" y="670" type="line"/>
      <point x="93" y="688" type="line"/>
      <point x="391" y="688" type="line"/>
      <point x="316" y="614" type="line"/>
    </contour>
    <contour>
      <point x="74" y="17" type="line"/>
      <point x="130" y="73" type="line"/>
      <point x="316" y="73" type="line"/>
      <point x="391" y="-1" type="line"/>
      <point x="220" y="-1" type="line"/>
      <point x="200" y="-45" type="line"/>
      <point x="293" y="-45" type="line"/>
      <point x="319" y="-93" type="line"/>
      <point x="319" y="-160" type="line"/>
      <point x="277" y="-200" type="line"/>
      <point x="146" y="-200" type="line"/>
      <point x="188" y="-148" type="line"/>
      <point x="264" y="-148" type="line"/>
      <point x="264" y="-81" type="line"/>
      <point x="177" y="-80" type="line"/>
      <point x="144" y="-68" type="line"/>
      <point x="173" y="-1" type="line"/>
      <point x="93" y="-1" type="line"/>
    </contour>
  </outline>
</glyph>
<glyph name="ecircumflex" format="2">
  <advance width="412"/>
  <unicode hex="00EA"/>
  <outline>
    <contour>
      <point x="38" y="19" type="line"/>
      <point x="38" y="317" type="line"/>
      <point x="57" y="336" type="line"/>
      <point x="112" y="280" type="line"/>
      <point x="112" y="94" type="line"/>
    </contour>
    <contour>
      <point x="57" y="0" type="line"/>
      <point x="131" y="75" type="line"/>
      <point x="317" y="75" type="line"/>
      <point x="392" y="0" type="line"/>
    </contour>
    <contour>
      <point x="57" y="354" type="line"/>
      <point x="38" y="373" type="line"/>
      <point x="38" y="671" type="line"/>
      <point x="112" y="597" type="line"/>
      <point x="112" y="410" type="line"/>
    </contour>
    <contour>
      <point x="121" y="308" type="line"/>
      <point x="84" y="345" type="line"/>
      <point x="121" y="382" type="line"/>
      <point x="327" y="382" type="line"/>
      <point x="364" y="345" type="line"/>
      <point x="327" y="308" type="line"/>
    </contour>
    <contour>
      <point x="96" y="749" type="line"/>
      <point x="182" y="851" type="line"/>
      <point x="262" y="851" type="line"/>
      <point x="348" y="749" type="line"/>
      <point x="315" y="723" type="line"/>
      <point x="222" y="788" type="line"/>
      <point x="129" y="723" type="line"/>
    </contour>
    <contour>
      <point x="131" y="615" type="line"/>
      <point x="57" y="690" type="line"/>
      <point x="392" y="690" type="line"/>
      <point x="317" y="615" type="line"/>
    </contour>
  </outline>
</glyph>
<glyph name="edieresis" format="2">
  <advance width="412"/>
  <unicode hex="00EB"/>
  <outline>
    <contour>
      <point x="38" y="19" type="line"/>
      <point x="38" y="317" type="line"/>
      <point x="57" y="336" type="line"/>
      <point x="112" y="280" type="line"/>
      <point x="112" y="94" type="line"/>
    </contour>
    <contour>
      <point x="57" y="0" type="line"/>
      <point x="131" y="75" type="line"/>
      <point x="317" y="75" type="line"/>
      <point x="392" y="0" type="line"/>
    </contour>
    <contour>
      <point x="57" y="354" type="line"/>
      <point x="38" y="373" type="line"/>
      <point x="38" y="671" type="line"/>
      <point x="112" y="597" type="line"/>
      <point x="112" y="410" type="line"/>
    </contour>
    <contour>
      <point x="121" y="308" type="line"/>
      <point x="84" y="345" type="line"/>
      <point x="121" y="382" type="line"/>
      <point x="327" y="382" type="line"/>
      <point x="364" y="345" type="line"/>
      <point x="327" y="308" type="line"/>
    </contour>
    <contour>
      <point x="79" y="738" type="line"/>
      <point x="79" y="828" type="line"/>
      <point x="170" y="828" type="line"/>
      <point x="170" y="738" type="line"/>
    </contour>
    <contour>
      <point x="131" y="615" type="line"/>
      <point x="57" y="690" type="line"/>
      <point x="392" y="690" type="line"/>
      <point x="317" y="615" type="line"/>
    </contour>
    <contour>
      <point x="258" y="738" type="line"/>
      <point x="258" y="828" type="line"/>
      <point x="349" y="828" type="line"/>
      <point x="349" y="738" type="line"/>
    </contour>
  </outline>
</glyph>
<glyph name="igrave" format="2">
  <advance width="145"/>
  <unicode hex="00EC"/>
  <outline>
    <contour>
      <point x="90" y="0" type="line"/>
      <point x="34" y="56" type="line"/>
      <point x="34" y="279" type="line"/>
      <point x="90" y="335" type="line"/>
      <point x="109" y="316" type="line"/>
      <point x="109" y="18" type="line"/>
    </contour>
    <contour>
      <point x="90" y="354" type="line"/>
      <point x="34" y="410" type="line"/>
      <point x="34" y="633" type="line"/>
      <point x="90" y="689" type="line"/>
      <point x="109" y="670" type="line"/>
      <point x="109" y="372" type="line"/>
    </contour>
    <contour>
      <point x="-3" y="795" type="line"/>
      <point x="-5" y="851" type="line"/>
      <point x="46" y="851" type="line"/>
      <point x="132" y="749" type="line"/>
      <point x="99" y="723" type="line"/>
    </contour>
  </outline>
</glyph>
<glyph name="icircumflex" format="2">
  <advance width="145"/>
  <unicode hex="00EE"/>
  <outline>
    <contour>
      <point x="90" y="0" type="line"/>
      <point x="34" y="56" type="line"/>
      <point x="34" y="279" type="line"/>
      <point x="90" y="335" type="line"/>
      <point x="109" y="316" type="line"/>
      <point x="109" y="18" type="line"/>
    </contour>
    <contour>
      <point x="90" y="354" type="line"/>
      <point x="34" y="410" type="line"/>
      <point x="34" y="633" type="line"/>
      <point x="90" y="689" type="line"/>
      <point x="109" y="670" type="line"/>
      <point x="109" y="372" type="line"/>
    </contour>
    <contour>
      <point x="-38" y="749" type="line"/>
      <point x="48" y="851" type="line"/>
      <point x="128" y="851" type="line"/>
      <point x="214" y="749" type="line"/>
      <point x="181" y="723" type="line"/>
      <point x="88" y="788" type="line"/>
      <point x="-5" y="723" type="line"/>
    </contour>
  </outline>
</glyph>
<glyph name="eth" format="2">
  <advance width="505"/>
  <unicode hex="00F0"/>
  <outline>
    <contour>
      <point x="48" y="306" type="line"/>
      <point x="11" y="343" type="line"/>
      <point x="48" y="380" type="line"/>
      <point x="89" y="380" type="line"/>
      <point x="126" y="343" type="line"/>
      <point x="89" y="306" type="line"/>
    </contour>
    <contour>
      <point x="107" y="19" type="line"/>
      <point x="107" y="295" type="line"/>
      <point x="145" y="335" type="line"/>
      <point x="182" y="292" type="line"/>
      <point x="182" y="93" type="line"/>
    </contour>
    <contour>
      <point x="126" y="0" type="line"/>
      <point x="200" y="74" type="line"/>
      <point x="387" y="74" type="line"/>
      <point x="442" y="18" type="line"/>
      <point x="424" y="0" type="line"/>
    </contour>
    <contour>
      <point x="461" y="37" type="line"/>
      <point x="405" y="93" type="line"/>
      <point x="405" y="279" type="line"/>
      <point x="461" y="335" type="line"/>
      <point x="480" y="317" type="line"/>
      <point x="480" y="56" type="line"/>
    </contour>
    <contour>
      <point x="145" y="354" type="line"/>
      <point x="107" y="394" type="line"/>
      <point x="107" y="671" type="line"/>
      <point x="182" y="596" type="line"/>
      <point x="182" y="394" type="line"/>
    </contour>
    <contour>
      <point x="202" y="306" type="line"/>
      <point x="165" y="343" type="line"/>
      <point x="202" y="380" type="line"/>
      <point x="278" y="380" type="line"/>
      <point x="315" y="343" type="line"/>
      <point x="278" y="306" type="line"/>
    </contour>
    <contour>
      <point x="200" y="615" type="line"/>
      <point x="126" y="689" type="line"/>
      <point x="424" y="689" type="line"/>
      <point x="442" y="671" type="line"/>
      <point x="387" y="615" type="line"/>
    </contour>
    <contour>
      <point x="461" y="354" type="line"/>
      <point x="405" y="410" type="line"/>
      <point x="405" y="596" type="line"/>
      <point x="461" y="652" type="line"/>
      <point x="480" y="634" type="line"/>
      <point x="480" y="373" type="line"/>
    </contour>
  </outline>
</glyph>
<glyph name="ntilde" format="2">
  <advance width="447"/>
  <unicode hex="00F1"/>
  <outline>
    <contour>
      <point x="57" y="0" type="line"/>
      <point x="39" y="18" type="line"/>
      <point x="39" y="316" type="line"/>
      <point x="57" y="335" type="line"/>
      <point x="113" y="279" type="line"/>
      <point x="113" y="56" type="line"/>
    </contour>
    <contour>
      <point x="393" y="0" type="line"/>
      <point x="337" y="56" type="line"/>
      <point x="337" y="279" type="line"/>
      <point x="393" y="335" type="line"/>
      <point x="411" y="316" type="line"/>
      <point x="411" y="18" type="line"/>
    </contour>
    <contour>
      <point x="57" y="354" type="line"/>
      <point x="39" y="372" type="line"/>
      <point x="39" y="670" type="line"/>
      <point x="57" y="689" type="line"/>
      <point x="113" y="633" type="line"/>
      <point x="113" y="410" type="line"/>
    </contour>
    <contour>
      <point x="139" y="553" type="line"/>
      <point x="139" y="633" type="line"/>
      <point x="165" y="633" type="line"/>
      <point x="311" y="487" type="line"/>
      <point x="311" y="410" type="line"/>
      <point x="283" y="410" type="line"/>
    </contour>
    <contour>
      <point x="393" y="354" type="line"/>
      <point x="337" y="410" type="line"/>
      <point x="337" y="633" type="line"/>
      <point x="393" y="689" type="line"/>
      <point x="411" y="670" type="line"/>
      <point x="411" y="372" type="line"/>
    </contour>
    <contour>
      <point x="97" y="750" type="line"/>
      <point x="183" y="852" type="line"/>
      <point x="237" y="852" type="line"/>
      <point x="277" y="806" type="line"/>
      <point x="343" y="852" type="line"/>
      <point x="376" y="826" type="line"/>
      <point x="290" y="724" type="line"/>
      <point x="210" y="780" type="line"/>
      <point x="130" y="724" type="line"/>
    </contour>
  </outline>
</glyph>
<glyph name="divide" format="2">
  <advance width="386"/>
  <unicode hex="00F7"/>
  <outline>
    <contour>
      <point x="144" y="163" type="line"/>
      <point x="144" y="253" type="line"/>
      <point x="235" y="253" type="line"/>
      <point x="235" y="163" type="line"/>
    </contour>
    <contour>
      <point x="141" y="413" type="line"/>
      <point x="141" y="503" type="line"/>
      <point x="232" y="503" type="line"/>
      <point x="232" y="413" type="line"/>
    </contour>
    <contour>
      <point x="61" y="302" type="line"/>
      <point x="24" y="339" type="line"/>
      <point x="61" y="376" type="line"/>
      <point x="325" y="376" type="line"/>
      <point x="362" y="339" type="line"/>
      <point x="325" y="302" type="line"/>
    </contour>
  </outline>
</glyph>
<glyph name="uacute" format="2">
  <advance width="447"/>
  <unicode hex="00FA"/>
  <outline>
    <contour>
      <point x="36" y="19" type="line"/>
      <point x="36" y="317" type="line"/>
      <point x="55" y="335" type="line"/>
      <point x="111" y="279" type="line"/>
      <point x="111" y="93" type="line"/>
    </contour>
    <contour>
      <point x="55" y="0" type="line"/>
      <point x="129" y="74" type="line"/>
      <point x="316" y="74" type="line"/>
      <point x="390" y="0" type="line"/>
    </contour>
    <contour>
      <point x="334" y="93" type="line"/>
      <point x="334" y="279" type="line"/>
      <point x="390" y="335" type="line"/>
      <point x="409" y="317" type="line"/>
      <point x="409" y="19" type="line"/>
    </contour>
    <contour>
      <point x="55" y="354" type="line"/>
      <point x="36" y="373" type="line"/>
      <point x="36" y="689" type="line"/>
      <point x="111" y="615" type="line"/>
      <point x="111" y="410" type="line"/>
    </contour>
    <contour>
      <point x="390" y="354" type="line"/>
      <point x="334" y="410" type="line"/>
      <point x="334" y="615" type="line"/>
      <point x="409" y="689" type="line"/>
      <point x="409" y="373" type="line"/>
    </contour>
    <contour>
      <point x="155" y="749" type="line"/>
      <point x="241" y="851" type="line"/>
      <point x="292" y="851" type="line"/>
      <point x="290" y="795" type="line"/>
      <point x="188" y="723" type="line"/>
    </contour>
  </outline>
</glyph>
<glyph name="ucircumflex" format="2">
  <advance width="447"/>
  <unicode hex="00FB"/>
  <outline>
    <contour>
      <point x="36" y="19" type="line"/>
      <point x="36" y="317" type="line"/>
      <point x="55" y="335" type="line"/>
      <point x="111" y="279" type="line"/>
      <point x="111" y="93" type="line"/>
    </contour>
    <contour>
      <point x="55" y="0" type="line"/>
      <point x="129" y="74" type="line"/>
      <point x="316" y="74" type="line"/>
      <point x="390" y="0" type="line"/>
    </contour>
    <contour>
      <point x="334" y="93" type="line"/>
      <point x="334" y="279" type="line"/>
      <point x="390" y="335" type="line"/>
      <point x="409" y="317" type="line"/>
      <point x="409" y="19" type="line"/>
    </contour>
    <contour>
      <point x="55" y="354" type="line"/>
      <point x="36" y="373" type="line"/>
      <point x="36" y="689" type="line"/>
      <point x="111" y="615" type="line"/>
      <point x="111" y="410" type="line"/>
    </contour>
    <contour>
      <point x="390" y="354" type="line"/>
      <point x="334" y="410" type="line"/>
      <point x="334" y="615" type="line"/>
      <point x="409" y="689" type="line"/>
      <point x="409" y="373" type="line"/>
    </contour>
    <contour>
      <point x="96" y="749" type="line"/>
      <point x="182" y="851" type="line"/>
      <point x="262" y="851" type="line"/>
      <point x="348" y="749" type="line"/>
      <point x="315" y="723" type="line"/>
      <point x="222" y="788" type="line"/>
      <point x="129" y="723" type="line"/>
    </contour>
  </outline>
</glyph>
<glyph name="udieresis" format="2">
  <advance width="447"/>
  <unicode hex="00FC"/>
  <outline>
    <contour>
      <point x="36" y="19" type="line"/>
      <point x="36" y="317" type="line"/>
      <point x="55" y="335" type="line"/>
      <point x="111" y="279" type="line"/>
      <point x="111" y="93" type="line"/>
    </contour>
    <contour>
      <point x="55" y="0" type="line"/>
      <point x="129" y="74" type="line"/>
      <point x="316" y="74" type="line"/>
      <point x="390" y="0" type="line"/>
    </contour>
    <contour>
      <point x="334" y="93" type="line"/>
      <point x="334" y="279" type="line"/>
      <point x="390" y="335" type="line"/>
      <point x="409" y="317" type="line"/>
      <point x="409" y="19" type="line"/>
    </contour>
    <contour>
      <point x="55" y="354" type="line"/>
      <point x="36" y="373" type="line"/>
      <point x="36" y="689" type="line"/>
      <point x="111" y="615" type="line"/>
      <point x="111" y="410" type="line"/>
    </contour>
    <contour>
      <point x="390" y="354" type="line"/>
      <point x="334" y="410" type="line"/>
      <point x="334" y="615" type="line"/>
      <point x="409" y="689" type="line"/>
      <point x="409" y="373" type="line"/>
    </contour>
    <contour>
      <point x="88" y="738" type="line"/>
      <point x="88" y="828" type="line"/>
      <point x="179" y="828" type="line"/>
      <point x="179" y="738" type="line"/>
    </contour>
    <contour>
      <point x="267" y="738" type="line"/>
      <point x="267" y="828" type="line"/>
      <point x="358" y="828" type="line"/>
      <point x="358" y="738" type="line"/>
    </contour>
  </outline>
</glyph>
<glyph name="thorn" format="2">
  <advance width="503"/>
  <unicode hex="00FE"/>
  <outline>
    <contour>
      <point x="90" y="0" type="line"/>
      <point x="34" y="56" type="line"/>
      <point x="34" y="279" type="line"/>
      <point x="90" y="335" type="line"/>
      <point x="109" y="316" type="line"/>
      <point x="109" y="18" type="line"/>
    </contour>
    <contour>
      <point x="132" y="88" type="line"/>
      <point x="132" y="163" type="line"/>
      <point x="387" y="163" type="line"/>
      <point x="442" y="107" type="line"/>
      <point x="424" y="88" type="line"/>
    </contour>
    <contour>
      <point x="405" y="181" type="line"/>
      <point x="405" y="279" type="line"/>
      <point x="461" y="335" type="line"/>
      <point x="480" y="316" type="line"/>
      <point x="480" y="144" type="line"/>
      <point x="461" y="126" type="line"/>
    </contour>
    <contour>
      <point x="90" y="354" type="line"/>
      <point x="34" y="410" type="line"/>
      <point x="34" y="633" type="line"/>
      <point x="90" y="689" type="line"/>
      <point x="109" y="670" type="line"/>
      <point x="109" y="372" type="line"/>
    </contour>
    <contour>
      <point x="132" y="539" type="line"/>
      <point x="132" y="614" type="line"/>
      <point x="424" y="614" type="line"/>
      <point x="442" y="595" type="line"/>
      <point x="387" y="539" type="line"/>
    </contour>
    <contour>
      <point x="461" y="353" type="line"/>
      <point x="405" y="409" type="line"/>
      <point x="405" y="521" type="line"/>
      <point x="461" y="576" type="line"/>
      <point x="480" y="558" type="line"/>
      <point x="480" y="372" type="line"/>
    </contour>
  </outline>
</glyph>
<glyph name="Aogonek" format="2">
  <advance width="447"/>
  <unicode hex="0104"/>
  <outline>
    <contour>
      <point x="37" y="0" type="line"/>
      <point x="37" y="316" type="line"/>
      <point x="56" y="335" type="line"/>
      <point x="111" y="279" type="line"/>
      <point x="111" y="74" type="line"/>
    </contour>
    <contour>
      <point x="245" y="-142" type="line"/>
      <point x="245" y="-46" type="line"/>
      <point x="359" y="50" type="line"/>
      <point x="335" y="74" type="line"/>
      <point x="335" y="279" type="line"/>
      <point x="391" y="335" type="line"/>
      <point x="409" y="316" type="line"/>
      <point x="409" y="0" type="line"/>
      <point x="396" y="13" type="line"/>
      <point x="301" y="-63" type="line"/>
      <point x="300" y="-128" type="line"/>
      <point x="369" y="-128" type="line"/>
      <point x="400" y="-182" type="line"/>
      <point x="287" y="-182" type="line"/>
    </contour>
    <contour>
      <point x="55" y="354" type="line"/>
      <point x="37" y="372" type="line"/>
      <point x="37" y="670" type="line"/>
      <point x="111" y="596" type="line"/>
      <point x="111" y="409" type="line"/>
    </contour>
    <contour>
      <point x="120" y="307" type="line"/>
      <point x="83" y="344" type="line"/>
      <point x="120" y="382" type="line"/>
      <point x="326" y="382" type="line"/>
      <point x="363" y="344" type="line"/>
      <point x="326" y="307" type="line"/>
    </contour>
    <contour>
      <point x="130" y="614" type="line"/>
      <point x="55" y="689" type="line"/>
      <point x="391" y="689" type="line"/>
      <point x="316" y="614" type="line"/>
    </contour>
    <contour>
      <point x="335" y="409" type="line"/>
      <point x="335" y="596" type="line"/>
      <point x="409" y="670" type="line"/>
      <point x="409" y="372" type="line"/>
      <point x="391" y="354" type="line"/>
    </contour>
  </outline>
</glyph>
<glyph name="Cacute" format="2">
  <advance width="405"/>
  <unicode hex="0106"/>
  <outline>
    <contour>
      <point x="55" y="37" type="line"/>
      <point x="37" y="55" type="line"/>
      <point x="37" y="316" type="line"/>
      <point x="55" y="335" type="line"/>
      <point x="111" y="279" type="line"/>
      <point x="111" y="93" type="line"/>
    </contour>
    <contour>
      <point x="74" y="18" type="line"/>
      <point x="130" y="74" type="line"/>
      <point x="316" y="74" type="line"/>
      <point x="391" y="0" type="line"/>
      <point x="93" y="0" type="line"/>
    </contour>
    <contour>
      <point x="55" y="354" type="line"/>
      <point x="37" y="372" type="line"/>
      <point x="37" y="633" type="line"/>
      <point x="55" y="652" type="line"/>
      <point x="111" y="596" type="line"/>
      <point x="111" y="410" type="line"/>
    </contour>
    <contour>
      <point x="155" y="749" type="line"/>
      <point x="241" y="851" type="line"/>
      <point x="292" y="851" type="line"/>
      <point x="290" y="795" type="line"/>
      <point x="188" y="723" type="line"/>
    </contour>
    <contour>
      <point x="130" y="615" type="line"/>
      <point x="74" y="671" type="line"/>
      <point x="93" y="689" type="line"/>
      <point x="391" y="689" type="line"/>
      <point x="316" y="615" type="line"/>
    </contour>
  </outline>
</glyph>
<glyph name="Cdotaccent" format="2">
  <advance width="405"/>
  <unicode hex="010A"/>
  <outline>
    <contour>
      <point x="55" y="37" type="line"/>
      <point x="37" y="55" type="line"/>
      <point x="37" y="316" type="line"/>
      <point x="55" y="335" type="line"/>
      <point x="111" y="279" type="line"/>
      <point x="111" y="93" type="line"/>
    </contour>
    <contour>
      <point x="74" y="18" type="line"/>
      <point x="130" y="74" type="line"/>
      <point x="316" y="74" type="line"/>
      <point x="391" y="0" type="line"/>
      <point x="93" y="0" type="line"/>
    </contour>
    <contour>
      <point x="55" y="354" type="line"/>
      <point x="37" y="372" type="line"/>
      <point x="37" y="633" type="line"/>
      <point x="55" y="652" type="line"/>
      <point x="111" y="596" type="line"/>
      <point x="111" y="410" type="line"/>
    </contour>
    <contour>
      <point x="163" y="738" type="line"/>
      <point x="163" y="828" type="line"/>
      <point x="254" y="828" type="line"/>
      <point x="254" y="738" type="line"/>
    </contour>
    <contour>
      <point x="130" y="615" type="line"/>
      <point x="74" y="671" type="line"/>
      <point x="93" y="689" type="line"/>
      <point x="391" y="689" type="line"/>
      <point x="316" y="615" type="line"/>
    </contour>
  </outline>
</glyph>
<glyph name="ccaron" format="2">
  <advance width="405"/>
  <unicode hex="010D"/>
  <outline>
    <contour>
      <point x="55" y="37" type="line"/>
      <point x="37" y="55" type="line"/>
      <point x="37" y="316" type="line"/>
      <point x="55" y="335" type="line"/>
      <point x="111" y="279" type="line"/>
      <point x="111" y="93" type="line"/>
    </contour>
    <contour>
      <point x="74" y="18" type="line"/>
      <point x="130" y="74" type="line"/>
      <point x="316" y="74" type="line"/>
      <point x="391" y="0" type="line"/>
      <point x="93" y="0" type="line"/>
    </contour>
    <contour>
      <point x="55" y="354" type="line"/>
      <point x="37" y="372" type="line"/>
      <point x="37" y="633" type="line"/>
      <point x="55" y="652" type="line"/>
      <point x="111" y="596" type="line"/>
      <point x="111" y="410" type="line"/>
    </contour>
    <contour>
      <point x="96" y="825" type="line"/>
      <point x="129" y="851" type="line"/>
      <point x="222" y="786" type="line"/>
      <point x="315" y="851" type="line"/>
      <point x="348" y="825" type="line"/>
      <point x="262" y="723" type="line"/>
      <point x="182" y="723" type="line"/>
    </contour>
    <contour>
      <point x="130" y="615" type="line"/>
      <point x="74" y="671" type="line"/>
      <point x="93" y="689" type="line"/>
      <point x="391" y="689" type="line"/>
      <point x="316" y="615" type="line"/>
    </contour>
  </outline>
</glyph>
<glyph name="Dcaron" format="2">
  <advance width="447"/>
  <unicode hex="010E"/>
  <outline>
    <contour>
      <point x="37" y="19" type="line"/>
      <point x="37" y="317" type="line"/>
      <point x="56" y="335" type="line"/>
      <point x="112" y="279" type="line"/>
      <point x="112" y="93" type="line"/>
    </contour>
    <contour>
      <point x="56" y="0" type="line"/>
      <point x="130" y="74" type="line"/>
      <point x="317" y="74" type="line"/>
      <point x="372" y="18" type="line"/>
      <point x="354" y="0" type="line"/>
    </contour>
    <contour>
      <point x="391" y="37" type="line"/>
      <point x="335" y="93" type="line"/>
      <point x="335" y="279" type="line"/>
      <point x="391" y="335" type="line"/>
      <point x="410" y="317" type="line"/>
      <point x="410" y="56" type="line"/>
    </contour>
    <contour>
      <point x="56" y="354" type="line"/>
      <point x="37" y="373" type="line"/>
      <point x="37" y="671" type="line"/>
      <point x="112" y="596" type="line"/>
      <point x="112" y="410" type="line"/>
    </contour>
    <contour>
      <point x="130" y="615" type="line"/>
      <point x="56" y="689" type="line"/>
      <point x="354" y="689" type="line"/>
      <point x="372" y="671" type="line"/>
      <point x="317" y="615" type="line"/>
    </contour>
    <contour>
      <point x="391" y="354" type="line"/>
      <point x="335" y="410" type="line"/>
      <point x="335" y="596" type="line"/>
      <point x="391" y="652" type="line"/>
      <point x="410" y="634" type="line"/>
      <point x="410" y="373" type="line"/>
    </contour>
    <contour>
      <point x="96" y="825" type="line"/>
      <point x="129" y="851" type="line"/>
      <point x="222" y="786" type="line"/>
      <point x="315" y="851" type="line"/>
      <point x="348" y="825" type="line"/>
      <point x="262" y="723" type="line"/>
      <point x="182" y="723" type="line"/>
    </contour>
  </outline>
</glyph>
<glyph name="Emacron" format="2">
  <advance width="412"/>
  <unicode hex="0112"/>
  <outline>
    <contour>
      <point x="38" y="19" type="line"/>
      <point x="38" y="317" type="line"/>
      <point x="57" y="336" type="line"/>
      <point x="112" y="280" type="line"/>
      <point x="112" y="94" type="line"/>
    </contour>
    <contour>
      <point x="57" y="0" type="line"/>
      <point x="131" y="75" type="line"/>
      <point x="317" y="75" type="line"/>
      <point x="392" y="0" type="line"/>
    </contour>
    <contour>
      <point x="57" y="354" type="line"/>
      <point x="38" y="373" type="line"/>
      <point x="38" y="671" type="line"/>
      <point x="112" y="597" type="line"/>
      <point x="112" y="410" type="line"/>
    </contour>
    <contour>
      <point x="121" y="308" type="line"/>
      <point x="84" y="345" type="line"/>
      <point x="121" y="382" type="line"/>
      <point x="327" y="382" type="line"/>
      <point x="364" y="345" type="line"/>
      <point x="327" y="308" type="line"/>
    </contour>
    <contour>
      <point x="92" y="779" type="line"/>
      <point x="135" y="820" type="line"/>
      <point x="309" y="820" type="line"/>
      <point x="353" y="779" type="line"/>
      <point x="309" y="738" type="line"/>
      <point x="135" y="738" type="line"/>
    </contour>
    <contour>
      <point x="131" y="615" type="line"/>
      <point x="57" y="690" type="line"/>
      <point x="392" y="690" type="line"/>
      <point x="317" y="615" type="line"/>
    </contour>
  </outline>
</glyph>
<glyph name="Ebreve" format="2">
  <advance width="412"/>
  <unicode hex="0114"/>
  <outline>
    <contour>
      <point x="38" y="19" type="line"/>
      <point x="38" y="317" type="line"/>
      <point x="57" y="336" type="line"/>
      <point x="112" y="280" type="line"/>
      <point x="112" y="94" type="line"/>
    </contour>
    <contour>
      <point x="57" y="0" type="line"/>
      <point x="131" y="75" type="line"/>
      <point x="317" y="75" type="line"/>
      <point x="392" y="0" type="line"/>
    </contour>
    <contour>
      <point x="57" y="354" type="line"/>
      <point x="38" y="373" type="line"/>
      <point x="38" y="671" type="line"/>
      <point x="112" y="597" type="line"/>
      <point x="112" y="410" type="line"/>
    </contour>
    <contour>
      <point x="121" y="308" type="line"/>
      <point x="84" y="345" type="line"/>
      <point x="121" y="382" type="line"/>
      <point x="327" y="382" type="line"/>
      <point x="364" y="345" type="line"/>
      <point x="327" y="308" type="line"/>
    </contour>
    <contour>
      <point x="173" y="786" type="line"/>
      <point x="261" y="786" type="line"/>
      <point x="294" y="838" type="line"/>
      <point x="327" y="825" type="line"/>
      <point x="283" y="723" type="line"/>
      <point x="151" y="723" type="line"/>
      <point x="107" y="825" type="line"/>
      <point x="140" y="838" type="line"/>
    </contour>
    <contour>
      <point x="131" y="615" type="line"/>
      <point x="57" y="690" type="line"/>
      <point x="392" y="690" type="line"/>
      <point x="317" y="615" type="line"/>
    </contour>
  </outline>
</glyph>
<glyph name="Eogonek" format="2">
  <advance width="405"/>
  <unicode hex="0118"/>
  <outline>
    <contour>
      <point x="55" y="37" type="line"/>
      <point x="37" y="55" type="line"/>
      <point x="37" y="316" type="line"/>
      <point x="55" y="335" type="line"/>
      <point x="111" y="279" type="line"/>
      <point x="111" y="93" type="line"/>
    </contour>
    <contour>
      <point x="55" y="354" type="line"/>
      <point x="37" y="372" type="line"/>
      <point x="37" y="633" type="line"/>
      <point x="55" y="652" type="line"/>
      <point x="111" y="596" type="line"/>
      <point x="111" y="410" type="line"/>
    </contour>
    <contour>
      <point x="130" y="615" type="line"/>
      <point x="74" y="671" type="line"/>
      <point x="93" y="689" type="line"/>
      <point x="391" y="689" type="line"/>
      <point x="316" y="615" type="line"/>
    </contour>
    <contour>
      <point x="74" y="18" type="line"/>
      <point x="130" y="74" type="line"/>
      <point x="316" y="74" type="line"/>
      <point x="391" y="0" type="line"/>
      <point x="280" y="0" type="line"/>
      <point x="202" y="-63" type="line"/>
      <point x="201" y="-128" type="line"/>
      <point x="270" y="-128" type="line"/>
      <point x="301" y="-182" type="line"/>
      <point x="188" y="-182" type="line"/>
      <point x="146" y="-142" type="line"/>
      <point x="146" y="-46" type="line"/>
      <point x="200" y="0" type="line"/>
      <point x="93" y="0" type="line"/>
    </contour>
  </outline>
</glyph>
<glyph name="ecaron" format="2">
  <advance width="412"/>
  <unicode hex="011B"/>
  <outline>
    <contour>
      <point x="38" y="19" type="line"/>
      <point x="38" y="317" type="line"/>
      <point x="57" y="336" type="line"/>
      <point x="112" y="280" type="line"/>
      <point x="112" y="94" type="line"/>
    </contour>
    <contour>
      <point x="57" y="0" type="line"/>
      <point x="131" y="75" type="line"/>
      <point x="317" y="75" type="line"/>
      <point x="392" y="0" type="line"/>
    </contour>
    <contour>
      <point x="57" y="354" type="line"/>
      <point x="38" y="373" type="line"/>
      <point x="38" y="671" type="line"/>
      <point x="112" y="597" type="line"/>
      <point x="112" y="410" type="line"/>
    </contour>
    <contour>
      <point x="121" y="308" type="line"/>
      <point x="84" y="345" type="line"/>
      <point x="121" y="382" type="line"/>
      <point x="327" y="382" type="line"/>
      <point x="364" y="345" type="line"/>
      <point x="327" y="308" type="line"/>
    </contour>
    <contour>
      <point x="96" y="825" type="line"/>
      <point x="129" y="851" type="line"/>
      <point x="222" y="786" type="line"/>
      <point x="315" y="851" type="line"/>
      <point x="348" y="825" type="line"/>
      <point x="262" y="723" type="line"/>
      <point x="182" y="723" type="line"/>
    </contour>
    <contour>
      <point x="131" y="615" type="line"/>
      <point x="57" y="690" type="line"/>
      <point x="392" y="690" type="line"/>
      <point x="317" y="615" type="line"/>
    </contour>
  </outline>
</glyph>
<glyph name="gcircumflex" format="2">
  <advance width="447"/>
  <unicode hex="011D"/>
  <outline>
    <contour>
      <point x="57" y="37" type="line"/>
      <point x="38" y="56" type="line"/>
      <point x="38" y="317" type="line"/>
      <point x="57" y="335" type="line"/>
      <point x="112" y="279" type="line"/>
      <point x="112" y="93" type="line"/>
    </contour>
    <contour>
      <point x="94" y="0" type="line"/>
      <point x="75" y="19" type="line"/>
      <point x="131" y="74" type="line"/>
      <point x="317" y="74" type="line"/>
      <point x="373" y="19" type="line"/>
      <point x="355" y="0" type="line"/>
    </contour>
    <contour>
      <point x="392" y="37" type="line"/>
      <point x="336" y="93" type="line"/>
      <point x="336" y="279" type="line"/>
      <point x="392" y="335" type="line"/>
      <point x="411" y="317" type="line"/>
      <point x="411" y="56" type="line"/>
    </contour>
    <contour>
      <point x="57" y="354" type="line"/>
      <point x="38" y="373" type="line"/>
      <point x="38" y="634" type="line"/>
      <point x="57" y="652" type="line"/>
      <point x="112" y="596" type="line"/>
      <point x="112" y="410" type="line"/>
    </contour>
    <contour>
      <point x="209" y="307" type="line"/>
      <point x="172" y="345" type="line"/>
      <point x="209" y="382" type="line"/>
      <point x="327" y="382" type="line"/>
      <point x="364" y="345" type="line"/>
      <point x="327" y="307" type="line"/>
    </contour>
    <contour>
      <point x="96" y="749" type="line"/>
      <point x="182" y="851" type="line"/>
      <point x="262" y="851" type="line"/>
      <point x="348" y="749" type="line"/>
      <point x="315" y="723" type="line"/>
      <point x="222" y="788" type="line"/>
      <point x="129" y="723" type="line"/>
    </contour>
    <contour>
      <point x="131" y="615" type="line"/>
      <point x="75" y="671" type="line"/>
      <point x="94" y="689" type="line"/>
      <point x="413" y="689" type="line"/>
      <point x="338" y="615" type="line"/>
    </contour>
  </outline>
</glyph>
<glyph name="hcircumflex" format="2">
  <advance width="447"/>
  <unicode hex="0125"/>
  <outline>
    <contour>
      <point x="39" y="0" type="line"/>
      <point x="39" y="317" type="line"/>
      <point x="57" y="336" type="line"/>
      <point x="113" y="280" type="line"/>
      <point x="113" y="75" type="line"/>
    </contour>
    <contour>
      <point x="337" y="75" type="line"/>
      <point x="337" y="280" type="line"/>
      <point x="393" y="336" type="line"/>
      <point x="411" y="317" type="line"/>
      <point x="411" y="0" type="line"/>
    </contour>
    <contour>
      <point x="57" y="354" type="line"/>
      <point x="39" y="373" type="line"/>
      <point x="39" y="690" type="line"/>
      <point x="113" y="615" type="line"/>
      <point x="113" y="410" type="line"/>
    </contour>
    <contour>
      <point x="122" y="308" type="line"/>
      <point x="85" y="345" type="line"/>
      <point x="122" y="382" type="line"/>
      <point x="328" y="382" type="line"/>
      <point x="365" y="345" type="line"/>
      <point x="328" y="308" type="line"/>
    </contour>
    <contour>
      <point x="393" y="354" type="line"/>
      <point x="337" y="410" type="line"/>
      <point x="337" y="615" type="line"/>
      <point x="411" y="690" type="line"/>
      <point x="411" y="373" type="line"/>
    </contour>
    <contour>
      <point x="96" y="749" type="line"/>
      <point x="182" y="851" type="line"/>
      <point x="262" y="851" type="line"/>
      <point x="348" y="749" type="line"/>
      <point x="315" y="723" type="line"/>
      <point x="222" y="788" type="line"/>
      <point x="129" y="723" type="line"/>
    </contour>
  </outline>
</glyph>
<glyph name="hbar" format="2">
  <advance width="580"/>
  <unicode hex="0127"/>
  <outline>
    <contour>
      <point x="103" y="0" type="line"/>
      <point x="103" y="317" type="line"/>
      <point x="121" y="336" type="line"/>
      <point x="177" y="280" type="line"/>
      <point x="177" y="75" type="line"/>
    </contour>
    <contour>
      <point x="401" y="75" type="line"/>
      <point x="401" y="280" type="line"/>
      <point x="457" y="336" type="line"/>
      <point x="475" y="317" type="line"/>
      <point x="475" y="0" type="line"/>
    </contour>
    <contour>
      <point x="44" y="491" type="line"/>
      <point x="7" y="528" type="line"/>
      <point x="44" y="565" type="line"/>
      <point x="87" y="565" type="line"/>
      <point x="87" y="491" type="line"/>
    </contour>
    <contour>
      <point x="121" y="354" type="line"/>
      <point x="103" y="373" type="line"/>
      <point x="103" y="690" type="line"/>
      <point x="177" y="615" type="line"/>
      <point x="177" y="410" type="line"/>
    </contour>
    <contour>
      <point x="186" y="308" type="line"/>
      <point x="149" y="345" type="line"/>
      <point x="186" y="382" type="line"/>
      <point x="392" y="382" type="line"/>
      <point x="429" y="345" type="line"/>
      <point x="392" y="308" type="line"/>
    </contour>
    <contour>
      <point x="194" y="491" type="line"/>
      <point x="194" y="565" type="line"/>
      <point x="385" y="565" type="line"/>
      <point x="385" y="491" type="line"/>
    </contour>
    <contour>
      <point x="457" y="354" type="line"/>
      <point x="401" y="410" type="line"/>
      <point x="401" y="615" type="line"/>
      <point x="475" y="690" type="line"/>
      <point x="475" y="373" type="line"/>
    </contour>
    <contour>
      <point x="492" y="491" type="line"/>
      <point x="492" y="565" type="line"/>
      <point x="535" y="565" type="line"/>
      <point x="572" y="528" type="line"/>
      <point x="535" y="491" type="line"/>
    </contour>
  </outline>
</glyph>
<glyph name="Itilde" format="2">
  <advance width="145"/>
  <unicode hex="0128"/>
  <outline>
    <contour>
      <point x="90" y="0" type="line"/>
      <point x="34" y="56" type="line"/>
      <point x="34" y="279" type="line"/>
      <point x="90" y="335" type="line"/>
      <point x="109" y="316" type="line"/>
      <point x="109" y="18" type="line"/>
    </contour>
    <contour>
      <point x="90" y="354" type="line"/>
      <point x="34" y="410" type="line"/>
      <point x="34" y="633" type="line"/>
      <point x="90" y="689" type="line"/>
      <point x="109" y="670" type="line"/>
      <point x="109" y="372" type="line"/>
    </contour>
    <contour>
      <point x="-48" y="750" type="line"/>
      <point x="38" y="852" type="line"/>
      <point x="92" y="852" type="line"/>
      <point x="132" y="806" type="line"/>
      <point x="198" y="852" type="line"/>
      <point x="231" y="826" type="line"/>
      <point x="145" y="724" type="line"/>
      <point x="65" y="780" type="line"/>
      <point x="-15" y="724" type="line"/>
    </contour>
  </outline>
</glyph>
<glyph name="imacron" format="2">
  <advance width="145"/>
  <unicode hex="012B"/>
  <outline>
    <contour>
      <point x="90" y="0" type="line"/>
      <point x="34" y="56" type="line"/>
      <point x="34" y="279" type="line"/>
      <point x="90" y="335" type="line"/>
      <point x="109" y="316" type="line"/>
      <point x="109" y="18" type="line"/>
    </contour>
    <contour>
      <point x="90" y="354" type="line"/>
      <point x="34" y="410" type="line"/>
      <point x="34" y="633" type="line"/>
      <point x="90" y="689" type="line"/>
      <point x="109" y="670" type="line"/>
      <point x="109" y="372" type="line"/>
    </contour>
    <contour>
      <point x="-43" y="779" type="line"/>
      <point x="0" y="820" type="line"/>
      <point x="174" y="820" type="line"/>
      <point x="218" y="779" type="line"/>
      <point x="174" y="738" type="line"/>
      <point x="0" y="738" type="line"/>
    </contour>
  </outline>
</glyph>
<glyph name="Iogonek" format="2">
  <advance width="145"/>
  <unicode hex="012E"/>
  <outline>
    <contour>
      <point x="-39" y="-143" type="line"/>
      <point x="-39" y="-47" type="line"/>
      <point x="44" y="46" type="line"/>
      <point x="34" y="56" type="line"/>
      <point x="34" y="279" type="line"/>
      <point x="90" y="335" type="line"/>
      <point x="109" y="316" type="line"/>
      <point x="109" y="18" type="line"/>
      <point x="90" y="0" type="line"/>
      <point x="81" y="9" type="line"/>
      <point x="17" y="-64" type="line"/>
      <point x="16" y="-129" type="line"/>
      <point x="85" y="-129" type="line"/>
      <point x="116" y="-183" type="line"/>
      <point x="3" y="-183" type="line"/>
    </contour>
    <contour>
      <point x="90" y="354" type="line"/>
      <point x="34" y="410" type="line"/>
      <point x="34" y="633" type="line"/>
      <point x="90" y="689" type="line"/>
      <point x="109" y="670" type="line"/>
      <point x="109" y="372" type="line"/>
    </contour>
  </outline>
</glyph>
<glyph name="Idotaccent" format="2">
  <advance width="145"/>
  <unicode hex="0130"/>
  <outline>
    <contour>
      <point x="90" y="0" type="line"/>
      <point x="34" y="56" type="line"/>
      <point x="34" y="279" type="line"/>
      <point x="90" y="335" type="line"/>
      <point x="109" y="316" type="line"/>
      <point x="109" y="18" type="line"/>
    </contour>
    <contour>
      <point x="90" y="354" type="line"/>
      <point x="34" y="410" type="line"/>
      <point x="34" y="633" type="line"/>
      <point x="90" y="689" type="line"/>
      <point x="109" y="670" type="line"/>
      <point x="109" y="372" type="line"/>
    </contour>
    <contour>
      <point x="26" y="738" type="line"/>
      <point x="26" y="828" type="line"/>
      <point x="117" y="828" type="line"/>
      <point x="117" y="738" type="line"/>
    </contour>
  </outline>
</glyph>
<glyph name="IJ" format="2">
  <advance width="592"/>
  <unicode hex="0132"/>
  <outline>
    <contour>
      <point x="90" y="0" type="line"/>
      <point x="34" y="56" type="line"/>
      <point x="34" y="279" type="line"/>
      <point x="90" y="335" type="line"/>
      <point x="109" y="316" type="line"/>
      <point x="109" y="18" type="line"/>
    </contour>
    <contour>
      <point x="183" y="19" type="line"/>
      <point x="183" y="273" type="line"/>
      <point x="257" y="199" type="line"/>
      <point x="257" y="93" type="line"/>
    </contour>
    <contour>
      <point x="201" y="0" type="line"/>
      <point x="276" y="75" type="line"/>
      <point x="462" y="75" type="line"/>
      <point x="537" y="0" type="line"/>
    </contour>
    <contour>
      <point x="481" y="93" type="line"/>
      <point x="481" y="279" type="line"/>
      <point x="537" y="335" type="line"/>
      <point x="555" y="317" type="line"/>
      <point x="555" y="19" type="line"/>
    </contour>
    <contour>
      <point x="90" y="354" type="line"/>
      <point x="34" y="410" type="line"/>
      <point x="34" y="633" type="line"/>
      <point x="90" y="689" type="line"/>
      <point x="109" y="670" type="line"/>
      <point x="109" y="372" type="line"/>
    </contour>
    <contour>
      <point x="537" y="354" type="line"/>
      <point x="481" y="410" type="line"/>
      <point x="481" y="615" type="line"/>
      <point x="555" y="689" type="line"/>
      <point x="555" y="373" type="line"/>
    </contour>
  </outline>
</glyph>
<glyph name="jcircumflex" format="2">
  <advance width="447"/>
  <unicode hex="0135"/>
  <outline>
    <contour>
      <point x="38" y="19" type="line"/>
      <point x="38" y="273" type="line"/>
      <point x="112" y="199" type="line"/>
      <point x="112" y="93" type="line"/>
    </contour>
    <contour>
      <point x="56" y="0" type="line"/>
      <point x="131" y="75" type="line"/>
      <point x="317" y="75" type="line"/>
      <point x="392" y="0" type="line"/>
    </contour>
    <contour>
      <point x="336" y="93" type="line"/>
      <point x="336" y="279" type="line"/>
      <point x="392" y="335" type="line"/>
      <point x="410" y="317" type="line"/>
      <point x="410" y="19" type="line"/>
    </contour>
    <contour>
      <point x="392" y="354" type="line"/>
      <point x="336" y="410" type="line"/>
      <point x="336" y="615" type="line"/>
      <point x="410" y="689" type="line"/>
      <point x="410" y="373" type="line"/>
    </contour>
    <contour>
      <point x="96" y="749" type="line"/>
      <point x="182" y="851" type="line"/>
      <point x="262" y="851" type="line"/>
      <point x="348" y="749" type="line"/>
      <point x="315" y="723" type="line"/>
      <point x="222" y="788" type="line"/>
      <point x="129" y="723" type="line"/>
    </contour>
  </outline>
</glyph>
<glyph name="uni0136" format="2">
  <advance width="447"/>
  <unicode hex="0136"/>
  <outline>
    <contour>
      <point x="38" y="0" type="line"/>
      <point x="38" y="316" type="line"/>
      <point x="57" y="335" type="line"/>
      <point x="112" y="279" type="line"/>
      <point x="112" y="74" type="line"/>
    </contour>
    <contour>
      <point x="410" y="0" type="line"/>
      <point x="336" y="74" type="line"/>
      <point x="336" y="279" type="line"/>
      <point x="392" y="335" type="line"/>
      <point x="410" y="316" type="line"/>
    </contour>
    <contour>
      <point x="56" y="354" type="line"/>
      <point x="38" y="372" type="line"/>
      <point x="38" y="689" type="line"/>
      <point x="112" y="614" type="line"/>
      <point x="112" y="409" type="line"/>
    </contour>
    <contour>
      <point x="121" y="307" type="line"/>
      <point x="84" y="344" type="line"/>
      <point x="121" y="382" type="line"/>
      <point x="327" y="382" type="line"/>
      <point x="364" y="344" type="line"/>
      <point x="327" y="307" type="line"/>
    </contour>
    <contour>
      <point x="138" y="408" type="line"/>
      <point x="138" y="470" type="line"/>
      <point x="358" y="689" type="line"/>
      <point x="410" y="689" type="line"/>
      <point x="410" y="636" type="line"/>
      <point x="182" y="408" type="line"/>
    </contour>
    <contour>
      <point x="208" y="-201" type="line"/>
      <point x="170" y="-163" type="line"/>
      <point x="170" y="-38" type="line"/>
      <point x="245" y="-38" type="line"/>
      <point x="245" y="-163" type="line"/>
    </contour>
  </outline>
</glyph>
<glyph name="Lacute" format="2">
  <advance width="408"/>
  <unicode hex="0139"/>
  <outline>
    <contour>
      <point x="38" y="19" type="line"/>
      <point x="38" y="317" type="line"/>
      <point x="57" y="336" type="line"/>
      <point x="112" y="280" type="line"/>
      <point x="112" y="94" type="line"/>
    </contour>
    <contour>
      <point x="57" y="0" type="line"/>
      <point x="131" y="75" type="line"/>
      <point x="317" y="75" type="line"/>
      <point x="392" y="0" type="line"/>
    </contour>
    <contour>
      <point x="57" y="354" type="line"/>
      <point x="38" y="373" type="line"/>
      <point x="38" y="690" type="line"/>
      <point x="112" y="615" type="line"/>
      <point x="112" y="410" type="line"/>
    </contour>
    <contour>
      <point x="95" y="749" type="line"/>
      <point x="181" y="851" type="line"/>
      <point x="232" y="851" type="line"/>
      <point x="230" y="795" type="line"/>
      <point x="128" y="723" type="line"/>
    </contour>
  </outline>
</glyph>
<glyph name="Lcaron" format="2">
  <advance width="408"/>
  <unicode hex="013D"/>
  <outline>
    <contour>
      <point x="38" y="19" type="line"/>
      <point x="38" y="317" type="line"/>
      <point x="57" y="336" type="line"/>
      <point x="112" y="280" type="line"/>
      <point x="112" y="94" type="line"/>
    </contour>
    <contour>
      <point x="57" y="0" type="line"/>
      <point x="131" y="75" type="line"/>
      <point x="317" y="75" type="line"/>
      <point x="392" y="0" type="line"/>
    </contour>
    <contour>
      <point x="57" y="354" type="line"/>
      <point x="38" y="373" type="line"/>
      <point x="38" y="690" type="line"/>
      <point x="112" y="615" type="line"/>
      <point x="112" y="410" type="line"/>
    </contour>
    <contour>
      <point x="96" y="825" type="line"/>
      <point x="129" y="851" type="line"/>
      <point x="222" y="786" type="line"/>
      <point x="315" y="851" type="line"/>
      <point x="348" y="825" type="line"/>
      <point x="262" y="723" type="line"/>
      <point x="182" y="723" type="line"/>
    </contour>
  </outline>
</glyph>
<glyph name="Lslash" format="2">
  <advance width="408"/>
  <unicode hex="0141"/>
  <outline>
    <contour>
      <point x="38" y="19" type="line"/>
      <point x="38" y="317" type="line"/>
      <point x="57" y="336" type="line"/>
      <point x="112" y="280" type="line"/>
      <point x="112" y="94" type="line"/>
    </contour>
    <contour>
      <point x="57" y="0" type="line"/>
      <point x="131" y="75" type="line"/>
      <point x="317" y="75" type="line"/>
      <point x="392" y="0" type="line"/>
    </contour>
    <contour>
      <point x="-131" y="186" type="line"/>
      <point x="-124" y="240" type="line"/>
      <point x="24" y="351" type="line"/>
      <point x="24" y="257" type="line"/>
      <point x="-81" y="179" type="line"/>
    </contour>
    <contour>
      <point x="57" y="354" type="line"/>
      <point x="38" y="373" type="line"/>
      <point x="38" y="690" type="line"/>
      <point x="112" y="615" type="line"/>
      <point x="112" y="410" type="line"/>
    </contour>
    <contour>
      <point x="106" y="312" type="line"/>
      <point x="71" y="347" type="line"/>
      <point x="122" y="399" type="line"/>
      <point x="122" y="425" type="line"/>
      <point x="212" y="493" type="line"/>
      <point x="271" y="488" type="line"/>
      <point x="261" y="435" type="line"/>
    </contour>
  </outline>
</glyph>
<glyph name="ncaron" format="2">
  <advance width="447"/>
  <unicode hex="0148"/>
  <outline>
    <contour>
      <point x="57" y="0" type="line"/>
      <point x="39" y="18" type="line"/>
      <point x="39" y="316" type="line"/>
      <point x="57" y="335" type="line"/>
      <point x="113" y="279" type="line"/>
      <point x="113" y="56" type="line"/>
    </contour>
    <contour>
      <point x="393" y="0" type="line"/>
      <point x="337" y="56" type="line"/>
      <point x="337" y="279" type="line"/>
      <point x="393" y="335" type="line"/>
      <point x="411" y="316" type="line"/>
      <point x="411" y="18" type="line"/>
    </contour>
    <contour>
      <point x="57" y="354" type="line"/>
      <point x="39" y="372" type="line"/>
      <point x="39" y="670" type="line"/>
      <point x="57" y="689" type="line"/>
      <point x="113" y="633" type="line"/>
      <point x="113" y="410" type="line"/>
    </contour>
    <contour>
      <point x="139" y="553" type="line"/>
      <point x="139" y="633" type="line"/>
      <point x="165" y="633" type="line"/>
      <point x="311" y="487" type="line"/>
      <point x="311" y="410" type="line"/>
      <point x="283" y="410" type="line"/>
    </contour>
    <contour>
      <point x="393" y="354" type="line"/>
      <point x="337" y="410" type="line"/>
      <point x="337" y="633" type="line"/>
      <point x="393" y="689" type="line"/>
      <point x="411" y="670" type="line"/>
      <point x="411" y="372" type="line"/>
    </contour>
    <contour>
      <point x="104" y="825" type="line"/>
      <point x="137" y="851" type="line"/>
      <point x="230" y="786" type="line"/>
      <point x="323" y="851" type="line"/>
      <point x="356" y="825" type="line"/>
      <point x="270" y="723" type="line"/>
      <point x="190" y="723" type="line"/>
    </contour>
  </outline>
</glyph>
<glyph name="OE" format="2">
  <advance width="706"/>
  <unicode hex="0152"/>
  <outline>
    <contour>
      <point x="38" y="56" type="line"/>
      <point x="38" y="317" type="line"/>
      <point x="57" y="336" type="line"/>
      <point x="113" y="280" type="line"/>
      <point x="113" y="93" type="line"/>
      <point x="57" y="38" type="line"/>
    </contour>
    <contour>
      <point x="329" y="93" type="line"/>
      <point x="329" y="317" type="line"/>
      <point x="348" y="336" type="line"/>
      <point x="403" y="280" type="line"/>
      <point x="403" y="94" type="line"/>
    </contour>
    <contour>
      <point x="94" y="0" type="line"/>
      <point x="75" y="19" type="line"/>
      <point x="131" y="75" type="line"/>
      <point x="608" y="75" type="line"/>
      <point x="683" y="0" type="line"/>
    </contour>
    <contour>
      <point x="57" y="354" type="line"/>
      <point x="38" y="373" type="line"/>
      <point x="38" y="634" type="line"/>
      <point x="57" y="652" type="line"/>
      <point x="113" y="597" type="line"/>
      <point x="113" y="410" type="line"/>
    </contour>
    <contour>
      <point x="348" y="354" type="line"/>
      <point x="329" y="373" type="line"/>
      <point x="329" y="597" type="line"/>
      <point x="403" y="597" type="line"/>
      <point x="403" y="410" type="line"/>
    </contour>
    <contour>
      <point x="412" y="308" type="line"/>
      <point x="375" y="345" type="line"/>
      <point x="412" y="382" type="line"/>
      <point x="618" y="382" type="line"/>
      <point x="655" y="345" type="line"/>
      <point x="618" y="308" type="line"/>
    </contour>
    <contour>
      <point x="131" y="615" type="line"/>
      <point x="75" y="671" type="line"/>
      <point x="94" y="690" type="line"/>
      <point x="683" y="690" type="line"/>
      <point x="608" y="615" type="line"/>
    </contour>
  </outline>
</glyph>
<glyph name="uni0156" format="2">
  <advance width="447"/>
  <unicode hex="0156"/>
  <outline>
    <contour>
      <point x="39" y="0" type="line"/>
      <point x="39" y="317" type="line"/>
      <point x="57" y="336" type="line"/>
      <point x="113" y="280" type="line"/>
      <point x="113" y="75" type="line"/>
    </contour>
    <contour>
      <point x="358" y="0" type="line"/>
      <point x="139" y="220" type="line"/>
      <point x="139" y="282" type="line"/>
      <point x="183" y="282" type="line"/>
      <point x="411" y="53" type="line"/>
      <point x="411" y="0" type="line"/>
    </contour>
    <contour>
      <point x="57" y="354" type="line"/>
      <point x="39" y="373" type="line"/>
      <point x="39" y="671" type="line"/>
      <point x="113" y="596" type="line"/>
      <point x="113" y="410" type="line"/>
    </contour>
    <contour>
      <point x="122" y="308" type="line"/>
      <point x="85" y="345" type="line"/>
      <point x="122" y="382" type="line"/>
      <point x="328" y="382" type="line"/>
      <point x="365" y="345" type="line"/>
      <point x="328" y="308" type="line"/>
    </contour>
    <contour>
      <point x="132" y="615" type="line"/>
      <point x="57" y="690" type="line"/>
      <point x="355" y="690" type="line"/>
      <point x="374" y="671" type="line"/>
      <point x="318" y="615" type="line"/>
    </contour>
    <contour>
      <point x="393" y="354" type="line"/>
      <point x="337" y="410" type="line"/>
      <point x="337" y="596" type="line"/>
      <point x="393" y="652" type="line"/>
      <point x="411" y="634" type="line"/>
      <point x="411" y="373" type="line"/>
    </contour>
    <contour>
      <point x="208" y="-201" type="line"/>
      <point x="170" y="-163" type="line"/>
      <point x="170" y="-38" type="line"/>
      <point x="245" y="-38" type="line"/>
      <point x="245" y="-163" type="line"/>
    </contour>
  </outline>
</glyph>
<glyph name="rcaron" format="2">
  <advance width="447"/>
  <unicode hex="0159"/>
  <outline>
    <contour>
      <point x="39" y="0" type="line"/>
      <point x="39" y="317" type="line"/>
      <point x="57" y="336" type="line"/>
      <point x="113" y="280" type="line"/>
      <point x="113" y="75" type="line"/>
    </contour>
    <contour>
      <point x="358" y="0" type="line"/>
      <point x="139" y="220" type="line"/>
      <point x="139" y="282" type="line"/>
      <point x="183" y="282" type="line"/>
      <point x="411" y="53" type="line"/>
      <point x="411" y="0" type="line"/>
    </contour>
    <contour>
      <point x="57" y="354" type="line"/>
      <point x="39" y="373" type="line"/>
      <point x="39" y="671" type="line"/>
      <point x="113" y="596" type="line"/>
      <point x="113" y="410" type="line"/>
    </contour>
    <contour>
      <point x="122" y="308" type="line"/>
      <point x="85" y="345" type="line"/>
      <point x="122" y="382" type="line"/>
      <point x="328" y="382" type="line"/>
      <point x="365" y="345" type="line"/>
      <point x="328" y="308" type="line"/>
    </contour>
    <contour>
      <point x="132" y="615" type="line"/>
      <point x="57" y="690" type="line"/>
      <point x="355" y="690" type="line"/>
      <point x="374" y="671" type="line"/>
      <point x="318" y="615" type="line"/>
    </contour>
    <contour>
      <point x="393" y="354" type="line"/>
      <point x="337" y="410" type="line"/>
      <point x="337" y="596" type="line"/>
      <point x="393" y="652" type="line"/>
      <point x="411" y="634" type="line"/>
      <point x="411" y="373" type="line"/>
    </contour>
    <contour>
      <point x="91" y="825" type="line"/>
      <point x="124" y="851" type="line"/>
      <point x="217" y="786" type="line"/>
      <point x="310" y="851" type="line"/>
      <point x="343" y="825" type="line"/>
      <point x="257" y="723" type="line"/>
      <point x="177" y="723" type="line"/>
    </contour>
  </outline>
</glyph>
<glyph name="sacute" format="2">
  <advance width="447"/>
  <unicode hex="015B"/>
  <outline>
    <contour>
      <point x="38" y="0" type="line"/>
      <point x="112" y="74" type="line"/>
      <point x="132" y="75" type="line"/>
      <point x="317" y="75" type="line"/>
      <point x="373" y="19" type="line"/>
      <point x="355" y="0" type="line"/>
    </contour>
    <contour>
      <point x="392" y="37" type="line"/>
      <point x="336" y="93" type="line"/>
      <point x="336" y="279" type="line"/>
      <point x="392" y="335" type="line"/>
      <point x="411" y="317" type="line"/>
      <point x="411" y="56" type="line"/>
    </contour>
    <contour>
      <point x="57" y="354" type="line"/>
      <point x="38" y="373" type="line"/>
      <point x="38" y="634" type="line"/>
      <point x="57" y="652" type="line"/>
      <point x="112" y="596" type="line"/>
      <point x="112" y="410" type="line"/>
    </contour>
    <contour>
      <point x="121" y="307" type="line"/>
      <point x="84" y="344" type="line"/>
      <point x="121" y="382" type="line"/>
      <point x="327" y="382" type="line"/>
      <point x="364" y="344" type="line"/>
      <point x="327" y="307" type="line"/>
    </contour>
    <contour>
      <point x="155" y="749" type="line"/>
      <point x="241" y="851" type="line"/>
      <point x="292" y="851" type="line"/>
      <point x="290" y="795" type="line"/>
      <point x="188" y="723" type="line"/>
    </contour>
    <contour>
      <point x="131" y="615" type="line"/>
      <point x="75" y="671" type="line"/>
      <point x="94" y="689" type="line"/>
      <point x="411" y="689" type="line"/>
      <point x="336" y="615" type="line"/>
    </contour>
  </outline>
</glyph>
<glyph name="Scedilla" format="2">
  <advance width="447"/>
  <unicode hex="015E"/>
  <outline>
    <contour>
      <point x="121" y="307" type="line"/>
      <point x="84" y="344" type="line"/>
      <point x="121" y="382" type="line"/>
      <point x="327" y="382" type="line"/>
      <point x="364" y="344" type="line"/>
      <point x="327" y="307" type="line"/>
    </contour>
    <contour>
      <point x="392" y="37" type="line"/>
      <point x="336" y="93" type="line"/>
      <point x="336" y="279" type="line"/>
      <point x="392" y="335" type="line"/>
      <point x="411" y="317" type="line"/>
      <point x="411" y="56" type="line"/>
    </contour>
    <contour>
      <point x="57" y="354" type="line"/>
      <point x="38" y="373" type="line"/>
      <point x="38" y="634" type="line"/>
      <point x="57" y="652" type="line"/>
      <point x="112" y="596" type="line"/>
      <point x="112" y="410" type="line"/>
    </contour>
    <contour>
      <point x="131" y="615" type="line"/>
      <point x="75" y="671" type="line"/>
      <point x="94" y="689" type="line"/>
      <point x="411" y="689" type="line"/>
      <point x="336" y="615" type="line"/>
    </contour>
    <contour>
      <point x="146" y="-200" type="line"/>
      <point x="188" y="-148" type="line"/>
      <point x="264" y="-148" type="line"/>
      <point x="264" y="-81" type="line"/>
      <point x="177" y="-80" type="line"/>
      <point x="144" y="-68" type="line"/>
      <point x="173" y="0" type="line"/>
      <point x="38" y="0" type="line"/>
      <point x="112" y="74" type="line"/>
      <point x="132" y="75" type="line"/>
      <point x="317" y="75" type="line"/>
      <point x="373" y="19" type="line"/>
      <point x="355" y="0" type="line"/>
      <point x="220" y="0" type="line"/>
      <point x="200" y="-45" type="line"/>
      <point x="293" y="-45" type="line"/>
      <point x="319" y="-93" type="line"/>
      <point x="319" y="-160" type="line"/>
      <point x="277" y="-200" type="line"/>
    </contour>
  </outline>
</glyph>
<glyph name="Scaron" format="2">
  <advance width="447"/>
  <unicode hex="0160"/>
  <outline>
    <contour>
      <point x="38" y="0" type="line"/>
      <point x="112" y="74" type="line"/>
      <point x="132" y="75" type="line"/>
      <point x="317" y="75" type="line"/>
      <point x="373" y="19" type="line"/>
      <point x="355" y="0" type="line"/>
    </contour>
    <contour>
      <point x="392" y="37" type="line"/>
      <point x="336" y="93" type="line"/>
      <point x="336" y="279" type="line"/>
      <point x="392" y="335" type="line"/>
      <point x="411" y="317" type="line"/>
      <point x="411" y="56" type="line"/>
    </contour>
    <contour>
      <point x="57" y="354" type="line"/>
      <point x="38" y="373" type="line"/>
      <point x="38" y="634" type="line"/>
      <point x="57" y="652" type="line"/>
      <point x="112" y="596" type="line"/>
      <point x="112" y="410" type="line"/>
    </contour>
    <contour>
      <point x="121" y="307" type="line"/>
      <point x="84" y="344" type="line"/>
      <point x="121" y="382" type="line"/>
      <point x="327" y="382" type="line"/>
      <point x="364" y="344" type="line"/>
      <point x="327" y="307" type="line"/>
    </contour>
    <contour>
      <point x="96" y="825" type="line"/>
      <point x="129" y="851" type="line"/>
      <point x="222" y="786" type="line"/>
      <point x="315" y="851" type="line"/>
      <point x="348" y="825" type="line"/>
      <point x="262" y="723" type="line"/>
      <point x="182" y="723" type="line"/>
    </contour>
    <contour>
      <point x="131" y="615" type="line"/>
      <point x="75" y="671" type="line"/>
      <point x="94" y="689" type="line"/>
      <point x="411" y="689" type="line"/>
      <point x="336" y="615" type="line"/>
    </contour>
  </outline>
</glyph>
<glyph name="uni0162" format="2">
  <advance width="435"/>
  <unicode hex="0162"/>
  <outline>
    <contour>
      <point x="146" y="-200" type="line"/>
      <point x="188" y="-148" type="line"/>
      <point x="264" y="-148" type="line"/>
      <point x="264" y="-81" type="line"/>
      <point x="177" y="-80" type="line"/>
      <point x="144" y="-68" type="line"/>
      <point x="192" y="44" type="line"/>
      <point x="180" y="56" type="line"/>
      <point x="180" y="279" type="line"/>
      <point x="236" y="335" type="line"/>
      <point x="255" y="316" type="line"/>
      <point x="255" y="18" type="line"/>
      <point x="236" y="0" type="line"/>
      <point x="225" y="11" type="line"/>
      <point x="200" y="-45" type="line"/>
      <point x="293" y="-45" type="line"/>
      <point x="319" y="-93" type="line"/>
      <point x="319" y="-160" type="line"/>
      <point x="277" y="-200" type="line"/>
    </contour>
    <contour>
      <point x="236" y="354" type="line"/>
      <point x="180" y="410" type="line"/>
      <point x="180" y="591" type="line"/>
      <point x="255" y="591" type="line"/>
      <point x="255" y="373" type="line"/>
    </contour>
    <contour>
      <point x="74" y="615" type="line"/>
      <point x="18" y="671" type="line"/>
      <point x="36" y="689" type="line"/>
      <point x="399" y="689" type="line"/>
      <point x="418" y="671" type="line"/>
      <point x="362" y="615" type="line"/>
    </contour>
  </outline>
</glyph>
<glyph name="Tcaron" format="2">
  <advance width="435"/>
  <unicode hex="0164"/>
  <outline>
    <contour>
      <point x="236" y="0" type="line"/>
      <point x="180" y="56" type="line"/>
      <point x="180" y="279" type="line"/>
      <point x="236" y="335" type="line"/>
      <point x="255" y="316" type="line"/>
      <point x="255" y="18" type="line"/>
    </contour>
    <contour>
      <point x="236" y="354" type="line"/>
      <point x="180" y="410" type="line"/>
      <point x="180" y="591" type="line"/>
      <point x="255" y="591" type="line"/>
      <point x="255" y="373" type="line"/>
    </contour>
    <contour>
      <point x="91" y="825" type="line"/>
      <point x="124" y="851" type="line"/>
      <point x="217" y="786" type="line"/>
      <point x="310" y="851" type="line"/>
      <point x="343" y="825" type="line"/>
      <point x="257" y="723" type="line"/>
      <point x="177" y="723" type="line"/>
    </contour>
    <contour>
      <point x="74" y="615" type="line"/>
      <point x="18" y="671" type="line"/>
      <point x="36" y="689" type="line"/>
      <point x="399" y="689" type="line"/>
      <point x="418" y="671" type="line"/>
      <point x="362" y="615" type="line"/>
    </contour>
  </outline>
</glyph>
<glyph name="tbar" format="2">
  <advance width="435"/>
  <unicode hex="0167"/>
  <outline>
    <contour>
      <point x="236" y="0" type="line"/>
      <point x="180" y="56" type="line"/>
      <point x="180" y="279" type="line"/>
      <point x="236" y="335" type="line"/>
      <point x="255" y="316" type="line"/>
      <point x="255" y="18" type="line"/>
    </contour>
    <contour>
      <point x="58" y="448" type="line"/>
      <point x="21" y="485" type="line"/>
      <point x="58" y="522" type="line"/>
      <point x="165" y="522" type="line"/>
      <point x="165" y="448" type="line"/>
    </contour>
    <contour>
      <point x="236" y="354" type="line"/>
      <point x="180" y="410" type="line"/>
      <point x="180" y="591" type="line"/>
      <point x="255" y="591" type="line"/>
      <point x="255" y="373" type="line"/>
    </contour>
    <contour>
      <point x="74" y="615" type="line"/>
      <point x="18" y="671" type="line"/>
      <point x="36" y="689" type="line"/>
      <point x="399" y="689" type="line"/>
      <point x="418" y="671" type="line"/>
      <point x="362" y="615" type="line"/>
    </contour>
    <contour>
      <point x="270" y="448" type="line"/>
      <point x="270" y="522" type="line"/>
      <point x="377" y="522" type="line"/>
      <point x="414" y="485" type="line"/>
      <point x="377" y="448" type="line"/>
    </contour>
  </outline>
</glyph>
<glyph name="Utilde" format="2">
  <advance width="447"/>
  <unicode hex="0168"/>
  <outline>
    <contour>
      <point x="36" y="19" type="line"/>
      <point x="36" y="317" type="line"/>
      <point x="55" y="335" type="line"/>
      <point x="111" y="279" type="line"/>
      <point x="111" y="93" type="line"/>
    </contour>
    <contour>
      <point x="55" y="0" type="line"/>
      <point x="129" y="74" type="line"/>
      <point x="316" y="74" type="line"/>
      <point x="390" y="0" type="line"/>
    </contour>
    <contour>
      <point x="334" y="93" type="line"/>
      <point x="334" y="279" type="line"/>
      <point x="390" y="335" type="line"/>
      <point x="409" y="317" type="line"/>
      <point x="409" y="19" type="line"/>
    </contour>
    <contour>
      <point x="55" y="354" type="line"/>
      <point x="36" y="373" type="line"/>
      <point x="36" y="689" type="line"/>
      <point x="111" y="615" type="line"/>
      <point x="111" y="410" type="line"/>
    </contour>
    <contour>
      <point x="390" y="354" type="line"/>
      <point x="334" y="410" type="line"/>
      <point x="334" y="615" type="line"/>
      <point x="409" y="689" type="line"/>
      <point x="409" y="373" type="line"/>
    </contour>
    <contour>
      <point x="97" y="750" type="line"/>
      <point x="183" y="852" type="line"/>
      <point x="237" y="852" type="line"/>
      <point x="277" y="806" type="line"/>
      <point x="343" y="852" type="line"/>
      <point x="376" y="826" type="line"/>
      <point x="290" y="724" type="line"/>
      <point x="210" y="780" type="line"/>
      <point x="130" y="724" type="line"/>
    </contour>
  </outline>
</glyph>
<glyph name="Ubreve" format="2">
  <advance width="447"/>
  <unicode hex="016C"/>
  <outline>
    <contour>
      <point x="36" y="19" type="line"/>
      <point x="36" y="317" type="line"/>
      <point x="55" y="335" type="line"/>
      <point x="111" y="279" type="line"/>
      <point x="111" y="93" type="line"/>
    </contour>
    <contour>
      <point x="55" y="0" type="line"/>
      <point x="129" y="74" type="line"/>
      <point x="316" y="74" type="line"/>
      <point x="390" y="0" type="line"/>
    </contour>
    <contour>
      <point x="334" y="93" type="line"/>
      <point x="334" y="279" type="line"/>
      <point x="390" y="335" type="line"/>
      <point x="409" y="317" type="line"/>
      <point x="409" y="19" type="line"/>
    </contour>
    <contour>
      <point x="55" y="354" type="line"/>
      <point x="36" y="373" type="line"/>
      <point x="36" y="689" type="line"/>
      <point x="111" y="615" type="line"/>
      <point x="111" y="410" type="line"/>
    </contour>
    <contour>
      <point x="390" y="354" type="line"/>
      <point x="334" y="410" type="line"/>
      <point x="334" y="615" type="line"/>
      <point x="409" y="689" type="line"/>
      <point x="409" y="373" type="line"/>
    </contour>
    <contour>
      <point x="177" y="786" type="line"/>
      <point x="265" y="786" type="line"/>
      <point x="298" y="838" type="line"/>
      <point x="331" y="825" type="line"/>
      <point x="287" y="723" type="line"/>
      <point x="155" y="723" type="line"/>
      <point x="111" y="825" type="line"/>
      <point x="144" y="838" type="line"/>
    </contour>
  </outline>
</glyph>
<glyph name="uring" format="2">
  <advance width="447"/>
  <unicode hex="016F"/>
  <outline>
    <contour>
      <point x="36" y="19" type="line"/>
      <point x="36" y="317" type="line"/>
      <point x="55" y="335" type="line"/>
      <point x="111" y="279" type="line"/>
      <point x="111" y="93" type="line"/>
    </contour>
    <contour>
      <point x="55" y="0" type="line"/>
      <point x="129" y="74" type="line"/>
      <point x="316" y="74" type="line"/>
      <point x="390" y="0" type="line"/>
    </contour>
    <contour>
      <point x="334" y="93" type="line"/>
      <point x="334" y="279" type="line"/>
      <point x="390" y="335" type="line"/>
      <point x="409" y="317" type="line"/>
      <point x="409" y="19" type="line"/>
    </contour>
    <contour>
      <point x="55" y="354" type="line"/>
      <point x="36" y="373" type="line"/>
      <point x="36" y="689" type="line"/>
      <point x="111" y="615" type="line"/>
      <point x="111" y="410" type="line"/>
    </contour>
    <contour>
      <point x="390" y="354" type="line"/>
      <point x="334" y="410" type="line"/>
      <point x="334" y="615" type="line"/>
      <point x="409" y="689" type="line"/>
      <point x="409" y="373" type="line"/>
    </contour>
    <contour>
      <point x="175" y="786" type="line"/>
      <point x="263" y="786" type="line"/>
      <point x="296" y="838" type="line"/>
      <point x="329" y="825" type="line"/>
      <point x="285" y="723" type="line"/>
      <point x="153" y="723" type="line"/>
      <point x="109" y="825" type="line"/>
      <point x="142" y="838" type="line"/>
    </contour>
  </outline>
</glyph>
<glyph name="uhungarumlaut" format="2">
  <advance width="447"/>
  <unicode hex="0171"/>
  <outline>
    <contour>
      <point x="36" y="19" type="line"/>
      <point x="36" y="317" type="line"/>
      <point x="55" y="335" type="line"/>
      <point x="111" y="279" type="line"/>
      <point x="111" y="93" type="line"/>
    </contour>
    <contour>
      <point x="55" y="0" type="line"/>
      <point x="129" y="74" type="line"/>
      <point x="316" y="74" type="line"/>
      <point x="390" y="0" type="line"/>
    </contour>
    <contour>
      <point x="334" y="93" type="line"/>
      <point x="334" y="279" type="line"/>
      <point x="390" y="335" type="line"/>
      <point x="409" y="317" type="line"/>
      <point x="409" y="19" type="line"/>
    </contour>
    <contour>
      <point x="55" y="354" type="line"/>
      <point x="36" y="373" type="line"/>
      <point x="36" y="689" type="line"/>
      <point x="111" y="615" type="line"/>
      <point x="111" y="410" type="line"/>
    </contour>
    <contour>
      <point x="390" y="354" type="line"/>
      <point x="334" y="410" type="line"/>
      <point x="334" y="615" type="line"/>
      <point x="409" y="689" type="line"/>
      <point x="409" y="373" type="line"/>
    </contour>
    <contour>
      <point x="88" y="749" type="line"/>
      <point x="174" y="851" type="line"/>
      <point x="225" y="851" type="line"/>
      <point x="223" y="795" type="line"/>
      <point x="121" y="723" type="line"/>
    </contour>
    <contour>
      <point x="233" y="749" type="line"/>
      <point x="319" y="851" type="line"/>
      <point x="370" y="851" type="line"/>
      <point x="368" y="795" type="line"/>
      <point x="266" y="723" type="line"/>
    </contour>
  </outline>
</glyph>
<glyph name="Uogonek" format="2">
  <advance width="447"/>
  <unicode hex="0172"/>
  <outline>
    <contour>
      <point x="36" y="19" type="line"/>
      <point x="36" y="317" type="line"/>
      <point x="55" y="335" type="line"/>
      <point x="111" y="279" type="line"/>
      <point x="111" y="93" type="line"/>
    </contour>
    <contour>
      <point x="334" y="93" type="line"/>
      <point x="334" y="279" type="line"/>
      <point x="390" y="335" type="line"/>
      <point x="409" y="317" type="line"/>
      <point x="409" y="19" type="line"/>
    </contour>
    <contour>
      <point x="55" y="354" type="line"/>
      <point x="36" y="373" type="line"/>
      <point x="36" y="689" type="line"/>
      <point x="111" y="615" type="line"/>
      <point x="111" y="410" type="line"/>
    </contour>
    <contour>
      <point x="390" y="354" type="line"/>
      <point x="334" y="410" type="line"/>
      <point x="334" y="615" type="line"/>
      <point x="409" y="689" type="line"/>
      <point x="409" y="373" type="line"/>
    </contour>
    <contour>
      <point x="133" y="-142" type="line"/>
      <point x="133" y="-46" type="line"/>
      <point x="187" y="0" type="line"/>
      <point x="55" y="0" type="line"/>
      <point x="129" y="74" type="line"/>
      <point x="316" y="74" type="line"/>
      <point x="390" y="0" type="line"/>
      <point x="267" y="0" type="line"/>
      <point x="189" y="-63" type="line"/>
      <point x="188" y="-128" type="line"/>
      <point x="257" y="-128" type="line"/>
      <point x="288" y="-182" type="line"/>
      <point x="175" y="-182" type="line"/>
    </contour>
  </outline>
</glyph>
<glyph name="wcircumflex" format="2">
  <advance width="498"/>
  <unicode hex="0175"/>
  <outline>
    <contour>
      <point x="35" y="19" type="line"/>
      <point x="35" y="317" type="line"/>
      <point x="54" y="336" type="line"/>
      <point x="110" y="280" type="line"/>
      <point x="110" y="94" type="line"/>
    </contour>
    <contour>
      <point x="54" y="0" type="line"/>
      <point x="129" y="75" type="line"/>
      <point x="371" y="75" type="line"/>
      <point x="445" y="0" type="line"/>
    </contour>
    <contour>
      <point x="215" y="101" type="line"/>
      <point x="215" y="317" type="line"/>
      <point x="252" y="354" type="line"/>
      <point x="289" y="317" type="line"/>
      <point x="289" y="101" type="line"/>
    </contour>
    <contour>
      <point x="464" y="19" type="line"/>
      <point x="389" y="94" type="line"/>
      <point x="389" y="280" type="line"/>
      <point x="445" y="336" type="line"/>
      <point x="464" y="317" type="line"/>
    </contour>
    <contour>
      <point x="54" y="354" type="line"/>
      <point x="35" y="373" type="line"/>
      <point x="35" y="690" type="line"/>
      <point x="110" y="615" type="line"/>
      <point x="110" y="410" type="line"/>
    </contour>
    <contour>
      <point x="445" y="354" type="line"/>
      <point x="389" y="410" type="line"/>
      <point x="389" y="615" type="line"/>
      <point x="464" y="690" type="line"/>
      <point x="464" y="373" type="line"/>
    </contour>
    <contour>
      <point x="122" y="749" type="line"/>
      <point x="208" y="851" type="line"/>
      <point x="288" y="851" type="line"/>
      <point x="374" y="749" type="line"/>
      <point x="341" y="723" type="line"/>
      <point x="248" y="788" type="line"/>
      <point x="155" y="723" type="line"/>
    </contour>
  </outline>
</glyph>
<glyph name="Ydieresis" format="2">
  <advance width="447"/>
  <unicode hex="0178"/>
  <outline>
    <contour>
      <point x="37" y="0" type="line"/>
      <point x="112" y="74" type="line"/>
      <point x="317" y="74" type="line"/>
      <point x="373" y="18" type="line"/>
      <point x="354" y="0" type="line"/>
    </contour>
    <contour>
      <point x="120" y="307" type="line"/>
      <point x="83" y="344" type="line"/>
      <point x="120" y="382" type="line"/>
      <point x="326" y="382" type="line"/>
      <point x="363" y="344" type="line"/>
      <point x="326" y="307" type="line"/>
    </contour>
    <contour>
      <point x="391" y="37" type="line"/>
      <point x="335" y="93" type="line"/>
      <point x="335" y="279" type="line"/>
      <point x="391" y="335" type="line"/>
      <point x="410" y="317" type="line"/>
      <point x="410" y="56" type="line"/>
    </contour>
    <contour>
      <point x="55" y="354" type="line"/>
      <point x="37" y="372" type="line"/>
      <point x="37" y="689" type="line"/>
      <point x="111" y="614" type="line"/>
      <point x="111" y="409" type="line"/>
    </contour>
    <contour>
      <point x="391" y="354" type="line"/>
      <point x="335" y="410" type="line"/>
      <point x="335" y="615" type="line"/>
      <point x="410" y="689" type="line"/>
      <point x="410" y="373" type="line"/>
    </contour>
    <contour>
      <point x="88" y="738" type="line"/>
      <point x="88" y="828" type="line"/>
      <point x="179" y="828" type="line"/>
      <point x="179" y="738" type="line"/>
    </contour>
    <contour>
      <point x="267" y="738" type="line"/>
      <point x="267" y="828" type="line"/>
      <point x="358" y="828" type="line"/>
      <point x="358" y="738" type="line"/>
    </contour>
  </outline>
</glyph>
<glyph name="zacute" format="2">
  <advance width="422"/>
  <unicode hex="017A"/>
  <outline>
    <contour>
      <point x="155" y="749" type="line"/>
      <point x="241" y="851" type="line"/>
      <point x="292" y="851" type="line"/>
      <point x="290" y="795" type="line"/>
      <point x="188" y="723" type="line"/>
    </contour>
    <contour>
      <point x="81" y="615" type="line"/>
      <point x="25" y="671" type="line"/>
      <point x="44" y="689" type="line"/>
      <point x="362" y="689" type="line"/>
      <point x="393" y="658" type="line"/>
      <point x="373" y="615" type="line"/>
    </contour>
    <contour>
      <point x="190" y="356" type="line"/>
      <point x="182" y="375" type="line"/>
      <point x="280" y="590" type="line"/>
      <point x="362" y="590" type="line"/>
      <point x="356" y="576"/>
      <point x="331" y="517"/>
      <point x="304" y="454"/>
      <point x="278" y="401"/>
      <point x="271" y="392" type="qcurve" smooth="yes"/>
      <point x="270" y="391"/>
      <point x="256" y="381"/>
      <point x="239" y="369"/>
      <point x="224" y="358"/>
      <point x="221" y="356" type="qcurve"/>
    </contour>
    <contour>
      <point x="56" y="99" type="line"/>
      <point x="154" y="314" type="line"/>
      <point x="186" y="333" type="line"/>
      <point x="209" y="333" type="line"/>
      <point x="226" y="292" type="line"/>
      <point x="138" y="99" type="line"/>
    </contour>
    <contour>
      <point x="55" y="0" type="line"/>
      <point x="25" y="30" type="line"/>
      <point x="45" y="74" type="line"/>
      <point x="337" y="74" type="line"/>
      <point x="393" y="18" type="line"/>
      <point x="374" y="0" type="line"/>
    </contour>
  </outline>
</glyph>
